<?xml version="1.0" encoding="utf-8"?>
<!-- Generator: Adobe Illustrator 25.2.1, SVG Export Plug-In . SVG Version: 6.00 Build 0)  -->
<svg version="1.1" id="Layer_1" xmlns="http://www.w3.org/2000/svg" xmlns:xlink="http://www.w3.org/1999/xlink" x="0px" y="0px"
	 viewBox="0 0 108 108" style="enable-background:new 0 0 108 108;" xml:space="preserve">
<style type="text/css">
	.st0{fill:#6887F7;}
</style>
<g>
	<path class="st0" d="M97.1,58.4V24.6c5.8-0.8,10.3-5.9,10.3-11.9c0-6.7-5.4-12.1-12.1-12.1c-6.7,0-12.1,5.4-12.1,12.1H0.6v69h51.8
		c0.9,14.4,12.9,25.9,27.5,25.9c15.2,0,27.6-12.4,27.6-27.6C107.4,71.2,103.4,63.4,97.1,58.4L97.1,58.4z M95.4,4
		c4.8,0,8.6,3.9,8.6,8.6s-3.9,8.6-8.6,8.6c-4.8,0-8.6-3.9-8.6-8.6S90.6,4,95.4,4L95.4,4z M4,16.1h79.8c0.4,1.4,1.1,2.6,1.9,3.8
		L75.2,30.4c-0.7-0.3-1.4-0.5-2.2-0.5c-0.8,0-1.5,0.2-2.2,0.5l-3.5-3.5c0.3-0.7,0.5-1.4,0.5-2.2c0-2.9-2.3-5.2-5.2-5.2
		c-2.9,0-5.2,2.3-5.2,5.2c0,0.8,0.2,1.5,0.5,2.2l-8.6,8.6c-0.7-0.3-1.4-0.5-2.2-0.5c-2.9,0-5.2,2.3-5.2,5.2c0,2.9,2.3,5.2,5.2,5.2
		c2.9,0,5.2-2.3,5.2-5.2c0-0.8-0.2-1.5-0.5-2.2l8.6-8.6c0.7,0.3,1.4,0.5,2.2,0.5s1.5-0.2,2.2-0.5l3.5,3.5c-0.3,0.7-0.5,1.4-0.5,2.2
		c0,2.9,2.3,5.2,5.2,5.2s5.2-2.3,5.2-5.2c0-0.8-0.2-1.5-0.5-2.2l10.5-10.5c1.6,1.2,3.4,2,5.5,2.3V56c-4.1-2.4-8.8-3.7-13.8-3.7
		c-8.2,0-15.6,3.7-20.7,9.4V54H48.8v20.7h4c-0.2,1.1-0.3,2.3-0.4,3.4H4V16.1z M73,33.3c0.9,0,1.7,0.8,1.7,1.7c0,1-0.8,1.7-1.7,1.7
		c-0.9,0-1.7-0.8-1.7-1.7C71.2,34.1,72,33.3,73,33.3L73,33.3z M60.9,24.7c0-1,0.8-1.7,1.7-1.7c0.9,0,1.7,0.8,1.7,1.7
		c0,1-0.8,1.7-1.7,1.7C61.7,26.4,60.9,25.6,60.9,24.7L60.9,24.7z M48.8,40.2c0,1-0.8,1.7-1.7,1.7c-0.9,0-1.7-0.8-1.7-1.7
		c0-1,0.8-1.7,1.7-1.7C48.1,38.5,48.8,39.3,48.8,40.2L48.8,40.2z M79.9,93.6c-7.6,0-13.8-6.2-13.8-13.8s6.2-13.8,13.8-13.8
		c7.6,0,13.8,6.2,13.8,13.8S87.5,93.6,79.9,93.6L79.9,93.6z M55.7,66.5c-0.8,1.5-1.5,3.1-2,4.7h-1.4V57.4h3.4V66.5z M78.1,55.8v6.9
		c-8.7,0.9-15.5,8.2-15.5,17.2c0,2.5,0.6,4.9,1.5,7.1l-6,3.5c-1.6-3.2-2.5-6.8-2.5-10.5C55.7,67.1,65.6,56.7,78.1,55.8L78.1,55.8z
		 M79.9,104c-8.3,0-15.6-4.2-20-10.6l6-3.5c3.1,4.3,8.2,7.2,14,7.2s10.8-2.8,14-7.2l6,3.5C95.5,99.8,88.2,104,79.9,104L79.9,104z
		 M101.5,90.4l-6-3.5c1-2.2,1.5-4.6,1.5-7.1c0-8.9-6.8-16.3-15.5-17.2v-6.9c12.5,0.9,22.4,11.3,22.4,24
		C104,83.6,103.1,87.2,101.5,90.4L101.5,90.4z M101.5,90.4"/>
	<path class="st0" d="M79.9,69.5c-5.7,0-10.3,4.6-10.3,10.3c0,5.7,4.6,10.3,10.3,10.3s10.3-4.6,10.3-10.3
		C90.2,74.2,85.6,69.5,79.9,69.5L79.9,69.5z M79.9,86.8c-3.8,0-6.9-3.1-6.9-6.9c0-3.8,3.1-6.9,6.9-6.9c3.8,0,6.9,3.1,6.9,6.9
		C86.8,83.7,83.7,86.8,79.9,86.8L79.9,86.8z M79.9,86.8"/>
	<rect x="7.5" y="19.5" class="st0" width="3.4" height="3.4"/>
	<rect x="14.4" y="19.5" class="st0" width="24.1" height="3.4"/>
	<rect x="7.5" y="26.4" class="st0" width="3.4" height="3.4"/>
	<rect x="14.4" y="26.4" class="st0" width="24.1" height="3.4"/>
	<rect x="7.5" y="33.3" class="st0" width="3.4" height="3.4"/>
	<rect x="14.4" y="33.3" class="st0" width="24.1" height="3.4"/>
	<rect x="7.5" y="40.2" class="st0" width="3.4" height="3.4"/>
	<rect x="14.4" y="40.2" class="st0" width="24.1" height="3.4"/>
	<path class="st0" d="M7.5,74.7h10.3V57.4H7.5V74.7z M10.9,60.9h3.4v10.3h-3.4V60.9z M10.9,60.9"/>
	<path class="st0" d="M21.2,74.7h10.3V60.9H21.2V74.7z M24.7,64.3h3.4v6.9h-3.4V64.3z M24.7,64.3"/>
	<path class="st0" d="M35,74.7h10.3V47.1H35V74.7z M38.5,50.6h3.4v20.7h-3.4V50.6z M38.5,50.6"/>
</g>
</svg>
