<?xml version="1.0" encoding="utf-8"?>
<!-- Generator: Adobe Illustrator 25.2.1, SVG Export Plug-In . SVG Version: 6.00 Build 0)  -->
<svg version="1.1" id="Layer_1" xmlns="http://www.w3.org/2000/svg" xmlns:xlink="http://www.w3.org/1999/xlink" x="0px" y="0px"
	 viewBox="0 0 108 108" style="enable-background:new 0 0 108 108;" xml:space="preserve">
<style type="text/css">
	.st0{clip-path:url(#SVGID_2_);fill:#33DAA8;}
</style>
<g>
	<g>
		<defs>
			<rect id="SVGID_1_" x="1.5" y="5.4" width="104.9" height="97.3"/>
		</defs>
		<clipPath id="SVGID_2_">
			<use xlink:href="#SVGID_1_"  style="overflow:visible;"/>
		</clipPath>
		<path class="st0" d="M67.3,59.8h-8.4v-10h1.4c1.6,0,3-1.3,3-3v-5.9c0-1.6-1.3-3-3-3h-5.9c-1.6,0-3,1.3-3,3v5.9c0,1.6,1.3,3,3,3
			h1.4v10H36v-5.2h1.4c1.6,0,3-1.3,3-3v-5.9c0-1.6-1.3-3-3-3h-5.9c-1.6,0-3,1.3-3,3v5.9c0,1.6,1.3,3,3,3H33v5.2H20.1
			c-3,0-5.8-1.1-8-3.2c-2.2-2-3.4-4.8-3.5-7.7c0-0.2,0-0.3,0-0.5c0-7,5.4-12.8,12.4-13.2c0.4,0,0.8-0.2,1.1-0.6
			c0.3-0.3,0.4-0.8,0.3-1.2C22.1,32,22,30.7,22,29.3c0-3.6,1-7.2,2.8-10.4c0.4-0.7,0.2-1.7-0.6-2.1c-0.7-0.4-1.7-0.2-2.1,0.6
			c-2.1,3.6-3.2,7.7-3.3,11.9c0,1,0.1,2,0.2,3c-7.7,1.3-13.6,8.1-13.6,16.1c0,0.2,0,0.4,0,0.6c0.1,3.7,1.7,7.2,4.5,9.9
			c2.7,2.6,6.3,4,10.1,4H33v9.1h-1.4c-1.6,0-3,1.3-3,3v1.4H13.4v-1.4c0-1.6-1.3-3-3-3H4.5c-1.6,0-3,1.3-3,3v5.9c0,1.6,1.3,3,3,3h5.9
			c1.6,0,3-1.3,3-3v-1.4h15.2v1.4c0,1.6,1.3,3,3,3h5.9c1.6,0,3-1.3,3-3v-5.9c0-1.6-1.3-3-3-3H36v-9.1h19.8v7.8h-1.4
			c-1.6,0-3,1.3-3,3v5.9c0,1.6,1.3,3,3,3h1.4v8.4h-1.4c-1.6,0-3,1.3-3,3v1.4H30.9v-1.4c0-1.6-1.3-3-3-3h-5.9c-1.6,0-3,1.3-3,3v1.4
			H3.2c-0.9,0-1.5,0.7-1.5,1.5s0.7,1.5,1.5,1.5h15.9v1.4c0,1.6,1.3,3,3,3h5.9c1.6,0,3-1.3,3-3v-1.4h20.6v1.4c0,1.6,1.3,3,3,3h5.9
			c1.6,0,3-1.3,3-3v-5.9c0-1.6-1.3-3-3-3h-1.4v-8.4h1.4c1.6,0,3-1.3,3-3v-5.9c0-1.6-1.3-3-3-3h-1.4v-7.8h8.4c0.8,0,1.5-0.7,1.5-1.5
			C68.8,60.4,68.2,59.8,67.3,59.8L67.3,59.8z M54.5,41h5.7v5.7h-5.7V41z M31.7,45.8h5.7v5.7h-5.7V45.8z M10.3,80.7H4.6V75h5.7V80.7z
			 M37.3,80.7h-5.7V75h5.7V80.7z M27.8,99.6h-5.7v-5.7h5.7V99.6z M60.2,99.6h-5.7v-5.7h5.7V99.6z M60.2,79.4h-5.7v-5.7h5.7V79.4z
			 M60.2,79.4"/>
		<path class="st0" d="M104.9,84.9H86.2v-1.6c0-1.6-1.3-3-3-3h-1.4V62.8H87c3.8,0,7.3-1.4,10.1-4c2.8-2.6,4.4-6.1,4.5-9.9
			c0-0.2,0-0.4,0-0.6c0-8.5-6.5-15.5-14.8-16.3c-0.4-8.6-7.6-15.5-16.3-15.5c-2.2,0-4.3,0.4-6.3,1.3c-4-7.3-11.5-12.1-19.9-12.5
			C37.5,5.1,31,7.5,26.2,12.2c-0.6,0.6-0.6,1.6,0,2.2c0.6,0.6,1.6,0.6,2.2,0c4.2-4.1,9.9-6.2,15.6-5.9c7.8,0.4,14.7,5,18,12.1
			c0.2,0.4,0.5,0.7,0.9,0.8c0.4,0.1,0.8,0.1,1.2-0.1c1.9-1,4.1-1.6,6.3-1.6c7.3,0,13.3,5.9,13.3,13.3c0,0.2,0,0.4,0,0.6
			c0,0.4,0.1,0.8,0.4,1.1c0.3,0.3,0.7,0.5,1.1,0.5c0,0,0,0,0,0c7.3,0,13.2,6,13.2,13.3c0,0.2,0,0.3,0,0.5c-0.1,2.9-1.4,5.7-3.5,7.7
			c-2.2,2-5,3.2-8,3.2H73.5c-0.9,0-1.5,0.7-1.5,1.5c0,0.9,0.7,1.5,1.5,1.5h5.3v17.5h-1.4c-1.6,0-3,1.3-3,3v5.9c0,1.6,1.3,3,3,3h5.9
			c1.6,0,3-1.3,3-3V88h18.8c0.8,0,1.5-0.7,1.5-1.5S105.8,84.9,104.9,84.9L104.9,84.9z M83.1,89.1h-5.7v-5.7h5.7V89.1z M83.1,89.1"/>
	</g>
</g>
</svg>
