<?xml version="1.0" encoding="utf-8"?>
<!-- Generator: Adobe Illustrator 25.2.1, SVG Export Plug-In . SVG Version: 6.00 Build 0)  -->
<svg version="1.1" id="Layer_1" xmlns="http://www.w3.org/2000/svg" xmlns:xlink="http://www.w3.org/1999/xlink" x="0px" y="0px"
	 viewBox="0 0 108 108" style="enable-background:new 0 0 108 108;" xml:space="preserve">
<style type="text/css">
	.st0{clip-path:url(#SVGID_2_);fill:#F667AB;}
</style>
<g>
	<g>
		<defs>
			<rect id="SVGID_1_" x="0" y="2" width="107.9" height="104"/>
		</defs>
		<clipPath id="SVGID_2_">
			<use xlink:href="#SVGID_1_"  style="overflow:visible;"/>
		</clipPath>
		<path class="st0" d="M103.8,74.5c0-0.1,0.1-0.1,0.1-0.2c6.4-14.8,5.3-32.9-3.1-46.7c4.4-5.3-1.3-12.9-7.6-10
			c-1.1-1.1-2.3-2.2-3.5-3.2C92.1,8,84.2,2.7,79.3,7.5C65,0.3,47.2,0.4,33,7.8C28,2.4,19.5,8.2,22.6,14.9c-1.8,1.5-3.4,3.2-4.9,4.9
			c-1.3,1.5,1.1,3.6,2.4,2.1c1.4-1.6,3-3.2,4.6-4.6c3.1,2.3,7.7,1.1,9.4-2.4c5.7,1.6,11.1,4,16.2,7c-0.4,1.5-0.3,3.2,0.5,4.7
			c-4.2,3.6-7.9,7.7-11.2,12.2c-3-0.9-6.3,0.6-7.6,3.5c-6.6,0-13.3,0.8-19.9,2.1c-0.6-1.1-1.5-2-2.5-2.6c1.2-4.8,3.2-9.4,5.8-13.6
			c1-1.7-1.6-3.4-2.7-1.7C9.8,31.1,7.8,35.9,6.5,41c-7.6,0.1-8.8,10.6-1.6,12.6c-0.1,14.9,6.3,29.4,17.5,39.3
			c-2.3,6.3,5.2,11.5,10.2,7.1c14.6,7.8,33,7.8,47.6,0c5.1,5,13.2-0.6,10.4-7.2C96.3,87.7,100.8,81.4,103.8,74.5L103.8,74.5z
			 M101.8,71c-4.4-4.4-9.2-8.3-14.3-11.8c0.7-2.3,0.1-4.8-1.6-6.5c4.3-7.2,7.7-14.8,10.1-22.8c0.8,0,1.6-0.1,2.3-0.4
			C105.5,41.8,106.8,57.6,101.8,71L101.8,71z M29,88.9c-1.3-13,1-26,6.8-37.8c3.6,1.1,7.5-1.2,8.2-4.9c10.9,1.3,21.4,4.5,31.3,9.5
			c-0.5,1.8-0.1,3.9,1,5.4C65.2,75.1,50.5,85.7,33.7,91.8C32.7,90.2,31,89.1,29,88.9L29,88.9z M78.2,57.3c0-1.8,1.4-3.2,3.2-3.2
			c4.3,0.2,4.3,6.3,0,6.5C79.6,60.5,78.2,59,78.2,57.3L78.2,57.3z M99.2,23.4c0,1.8-1.4,3.3-3.2,3.3c-4.3-0.2-4.3-6.3,0-6.5
			C97.8,20.2,99.2,21.7,99.2,23.4L99.2,23.4z M90.8,19.7c-2.2,3.1-1.2,7.5,2.1,9.3c-2.3,7.7-5.6,15.1-9.7,22
			c-0.9-0.3-1.8-0.3-2.7-0.2c-4.3-9.3-10.7-17.6-18.4-24.3c0.7-1.4,0.9-3.1,0.5-4.7c4.9-2.9,10.1-5.2,15.6-6.8
			c1.8,3.5,6.7,4.5,9.7,1.9C88.9,17.9,89.8,18.8,90.8,19.7L90.8,19.7z M53.2,23.7c0-1.8,1.4-3.3,3.2-3.3c4.3,0.2,4.3,6.3,0,6.5
			C54.6,26.9,53.2,25.5,53.2,23.7L53.2,23.7z M83.8,8.8c1.8,0,3.2,1.5,3.2,3.2c-0.2,4.3-6.3,4.3-6.5,0C80.5,10.3,82,8.8,83.8,8.8
			L83.8,8.8z M28.3,15.3c-1.8,0-3.2-1.5-3.2-3.3c0.2-4.3,6.3-4.3,6.5,0C31.5,13.9,30.1,15.3,28.3,15.3L28.3,15.3z M34.7,11.9
			c0-0.4-0.1-0.9-0.2-1.3c13.2-6.8,29.8-7,43.1-0.3c-0.2,0.6-0.3,1.2-0.3,1.8c-5.8,1.7-11.3,4.1-16.4,7.2c-2.5-2.6-6.7-2.6-9.2,0
			C46.5,16,40.7,13.6,34.7,11.9L34.7,11.9z M52.8,29c2.1,1.5,5,1.5,7.2,0c7.4,6.4,13.4,14.3,17.6,23.2c-0.3,0.2-0.5,0.5-0.8,0.7
			c-10.4-5.3-21.5-8.6-33-10c-0.3-0.9-0.8-1.8-1.5-2.5C45.3,36.2,48.9,32.4,52.8,29L52.8,29z M37.7,41.7c1.8,0,3.2,1.5,3.2,3.3
			c-0.2,4.3-6.3,4.3-6.5,0C34.5,43.1,35.9,41.7,37.7,41.7L37.7,41.7z M3.2,47.4c0-1.8,1.4-3.3,3.2-3.3c4.3,0.2,4.3,6.3,0,6.5
			C4.6,50.7,3.2,49.2,3.2,47.4L3.2,47.4z M8,53.6c0,0,4.8-1,4.8-6.2c0,0,12.3-2,18.5-2c0.1,1.5,0.8,2.9,1.8,4
			c-6.2,12.4-8.7,26.2-7.2,39.9c-0.6,0.3-1.2,0.6-1.7,1C13.9,81.1,8,65.6,8,53.6L8,53.6z M28.3,98.5c-1.8,0-3.2-1.5-3.2-3.3
			c0-1.8,1.4-3.3,3.2-3.3c1.8,0,3.2,1.5,3.2,3.3C31.5,97,30.1,98.5,28.3,98.5L28.3,98.5z M56.4,102.7c-7.7,0-15.3-1.8-22.1-5.3
			c0.3-0.8,0.4-1.7,0.3-2.5c17.4-6.3,32.5-17.2,44-31.7c0.9,0.4,2,0.6,3,0.6c0.7,2.6,1.3,5.3,1.7,7.9c0.3,2,3.4,1.6,3.1-0.5
			c-0.4-2.8-1-5.7-1.8-8.4c0.4-0.2,0.7-0.5,1-0.8c5.3,3.6,10.2,7.7,14.7,12.3c-2.8,6.1-6.8,11.6-11.9,16.2c-0.5-0.4-1.1-0.7-1.7-0.9
			c0.3-2.9,0.4-5.9,0.4-8.8c0-2.1-3.2-2-3.2,0c0,2.8-0.1,5.7-0.4,8.5c-3.7,0.6-6.2,4.5-5.1,8.1C71.8,100.8,64.1,102.7,56.4,102.7
			L56.4,102.7z M84.8,98.8c-1.8,0-3.2-1.5-3.2-3.3c0.2-4.3,6.3-4.3,6.5,0C88,97.3,86.5,98.8,84.8,98.8L84.8,98.8z M84.8,98.8"/>
	</g>
</g>
</svg>
