<?xml version="1.0" encoding="utf-8"?>
<!-- Generator: Adobe Illustrator 25.2.1, SVG Export Plug-In . SVG Version: 6.00 Build 0)  -->
<svg version="1.1" id="Layer_1" xmlns="http://www.w3.org/2000/svg" xmlns:xlink="http://www.w3.org/1999/xlink" x="0px" y="0px"
	 viewBox="0 0 108 108" style="enable-background:new 0 0 108 108;" xml:space="preserve">
<style type="text/css">
	.st0{fill:#3ACC3A;}
	.st1{clip-path:url(#SVGID_2_);fill:#3ACC3A;}
</style>
<g>
	<path class="st0" d="M47.8,44.2L50,48c0.4,0.7,1.1,1.1,1.8,1.1h4.4c0.8,0,1.5-0.4,1.8-1.1l2.2-3.8c0.4-0.7,0.4-1.5,0-2.1L58,38.3
		c-0.4-0.7-1.1-1.1-1.8-1.1h-4.4c-0.8,0-1.4,0.4-1.8,1.1l-2.2,3.8C47.4,42.8,47.4,43.6,47.8,44.2L47.8,44.2z M52.3,40.3h3.3l1.6,2.8
		L55.6,46h-3.3l-1.6-2.8L52.3,40.3z M52.3,40.3"/>
	<path class="st0" d="M49.4,24.6v2.8c-1.2,0.3-2.3,0.8-3.3,1.4l-2-2c-0.9-0.9-2.5-0.9-3.4,0l-3.1,3.1c-0.5,0.5-0.7,1.1-0.7,1.7
		c0,0.6,0.3,1.2,0.7,1.7l2,2c-0.6,1.1-1,2.2-1.4,3.3h-2.8c-1.3,0-2.4,1.1-2.4,2.4v4.4c0,1.3,1.1,2.4,2.4,2.4h2.8
		c0.3,1.2,0.8,2.3,1.4,3.3l-2,2c-0.9,0.9-0.9,2.5,0,3.4l3.1,3.1c0.5,0.5,1.1,0.7,1.7,0.7c0.6,0,1.2-0.3,1.7-0.7l2-2
		c1.1,0.6,2.2,1,3.3,1.4v2.8c0,1.3,1.1,2.4,2.4,2.4h4.4c1.3,0,2.4-1.1,2.4-2.4v-2.8c1.2-0.3,2.3-0.8,3.3-1.4l2,2
		c0.9,0.9,2.5,0.9,3.4,0l3.1-3.1c0.9-0.9,0.9-2.5,0-3.4l-2-2c0.6-1.1,1-2.2,1.4-3.3h2.8c1.3,0,2.4-1.1,2.4-2.4V41
		c0-1.3-1.1-2.4-2.4-2.4h-2.8c-0.3-1.2-0.8-2.3-1.4-3.3l2-2c0.5-0.5,0.7-1.1,0.7-1.7c0-0.6-0.2-1.2-0.7-1.7l-3.1-3.1
		c-0.9-0.9-2.5-0.9-3.4,0l-2,2c-1.1-0.6-2.2-1-3.3-1.4v-2.8c0-1.3-1.1-2.4-2.4-2.4h-4.4C50.5,22.2,49.4,23.3,49.4,24.6L49.4,24.6z
		 M52.5,25.3h3v2.6c0,1.1,0.7,2.1,1.8,2.3c1.2,0.3,2.4,0.8,3.5,1.4c0.9,0.6,2.2,0.4,2.9-0.4l1.8-1.8l2.1,2.1l-1.8,1.8
		c-0.8,0.8-0.9,2-0.4,2.9c0.6,1.1,1.1,2.3,1.4,3.5c0.3,1.1,1.2,1.8,2.3,1.8h2.6v3h-2.6c-1.1,0-2.1,0.7-2.3,1.8
		c-0.3,1.2-0.8,2.4-1.4,3.5c-0.6,0.9-0.4,2.2,0.4,2.9l1.8,1.8l-2.1,2.1L63.7,55c-0.8-0.8-2-0.9-2.9-0.4c-1.1,0.6-2.3,1.1-3.5,1.4
		c-1.1,0.3-1.8,1.2-1.8,2.3V61h-3v-2.6c0-1.1-0.7-2.1-1.8-2.3c-1.2-0.3-2.4-0.8-3.5-1.4c-0.9-0.6-2.2-0.4-2.9,0.4l-1.8,1.8l-2.1-2.1
		l1.8-1.8c0.8-0.8,0.9-2,0.4-2.9c-0.6-1.1-1.1-2.3-1.4-3.5c-0.3-1.1-1.2-1.8-2.3-1.8h-2.6v-3h2.6c1.1,0,2.1-0.7,2.3-1.8
		c0.3-1.2,0.8-2.4,1.4-3.5c0.6-0.9,0.4-2.2-0.4-2.9l-1.8-1.8l2.1-2.1l1.8,1.8c0.8,0.8,2,0.9,2.9,0.4c1.1-0.6,2.3-1.1,3.5-1.4
		c1.1-0.3,1.8-1.2,1.8-2.3V25.3z M52.5,25.3"/>
	<path class="st0" d="M43.1,43.2C43.1,49.2,48,54,54,54c6,0,10.9-4.9,10.9-10.9c0-6-4.9-10.9-10.9-10.9C48,32.3,43.1,37.2,43.1,43.2
		L43.1,43.2z M54,35.4c4.3,0,7.8,3.5,7.8,7.8c0,4.3-3.5,7.8-7.8,7.8c-4.3,0-7.8-3.5-7.8-7.8C46.2,38.9,49.7,35.4,54,35.4L54,35.4z
		 M54,35.4"/>
	<path class="st0" d="M95.9,43.2c0-0.9-0.7-1.5-1.5-1.5h-4.9c-0.9,0-1.5,0.7-1.5,1.5c0,0.9,0.7,1.5,1.5,1.5h4.9
		C95.2,44.7,95.9,44,95.9,43.2L95.9,43.2z M95.9,43.2"/>
	<path class="st0" d="M12.1,43.2c0,0.9,0.7,1.5,1.5,1.5h4.9c0.9,0,1.5-0.7,1.5-1.5c0-0.9-0.7-1.5-1.5-1.5h-4.9
		C12.8,41.6,12.1,42.3,12.1,43.2L12.1,43.2z M12.1,43.2"/>
	<path class="st0" d="M85.5,26.8l4.2-2.4c0.7-0.4,1-1.4,0.6-2.1c-0.4-0.7-1.4-1-2.1-0.6l-4.2,2.4c-0.7,0.4-1,1.4-0.6,2.1
		C83.8,26.9,84.8,27.2,85.5,26.8L85.5,26.8z M85.5,26.8"/>
	<path class="st0" d="M19.8,64.7l4.2-2.4c0.7-0.4,1-1.4,0.6-2.1c-0.4-0.7-1.4-1-2.1-0.6L18.3,62c-0.7,0.4-1,1.4-0.6,2.1
		C18.1,64.9,19.1,65.1,19.8,64.7L19.8,64.7z M19.8,64.7"/>
	<path class="st0" d="M73.1,13.2L75.5,9c0.4-0.7,0.2-1.7-0.6-2.1c-0.7-0.4-1.7-0.2-2.1,0.6l-2.4,4.2c-0.4,0.7-0.2,1.7,0.6,2.1
		C71.7,14.2,72.6,13.9,73.1,13.2L73.1,13.2z M73.1,13.2"/>
	<path class="st0" d="M55.5,7.7V2.8c0-0.9-0.7-1.5-1.5-1.5c-0.9,0-1.5,0.7-1.5,1.5v4.9c0,0.9,0.7,1.5,1.5,1.5
		C54.8,9.2,55.5,8.5,55.5,7.7L55.5,7.7z M55.5,7.7"/>
	<path class="st0" d="M34.9,13.2c0.4,0.7,1.4,1,2.1,0.6c0.7-0.4,1-1.4,0.6-2.1l-2.4-4.2c-0.4-0.7-1.4-1-2.1-0.6
		c-0.7,0.4-1,1.4-0.6,2.1L34.9,13.2z M34.9,13.2"/>
	<path class="st0" d="M22.5,26.8c0.7,0.4,1.7,0.2,2.1-0.6c0.4-0.7,0.2-1.7-0.6-2.1l-4.2-2.4c-0.7-0.4-1.7-0.2-2.1,0.6
		c-0.4,0.7-0.2,1.7,0.6,2.1L22.5,26.8z M22.5,26.8"/>
	<path class="st0" d="M83.9,62.3l4.2,2.4c0.7,0.4,1.7,0.2,2.1-0.6c0.4-0.7,0.2-1.7-0.6-2.1l-4.2-2.4c-0.7-0.4-1.7-0.2-2.1,0.6
		C83,60.9,83.2,61.8,83.9,62.3L83.9,62.3z M83.9,62.3"/>
	<g>
		<defs>
			<rect id="SVGID_1_" x="12.1" y="1.3" width="83.8" height="105.5"/>
		</defs>
		<clipPath id="SVGID_2_">
			<use xlink:href="#SVGID_1_"  style="overflow:visible;"/>
		</clipPath>
		<path class="st1" d="M56.1,13.8c-0.1,0.8,0.5,1.6,1.3,1.7C70.1,17.1,80.1,27,81.6,39.7c0.1,0.8,0.8,1.4,1.5,1.4c0.1,0,0.1,0,0.2,0
			c0.8-0.1,1.5-0.9,1.3-1.7c-1.7-14-12.9-25.2-26.9-26.9C56.9,12.3,56.2,12.9,56.1,13.8L56.1,13.8z M56.1,13.8"/>
		<path class="st1" d="M72.8,67.8c6.6-5,10.9-12.6,11.9-20.8c0.1-0.8-0.5-1.6-1.3-1.7c-0.8-0.1-1.6,0.5-1.7,1.3
			c-0.9,7.4-4.8,14.2-10.7,18.7c-4.2,3.2-6.9,8.3-6.9,14.3H44v-1.1c0-5.1-2.4-9.9-6.4-12.8C30.4,60.5,26.1,52,26.1,43.2
			c0-14,10.5-25.9,24.4-27.6c0.8-0.1,1.4-0.9,1.3-1.7c-0.1-0.8-0.9-1.4-1.7-1.3c-7.4,0.9-14.3,4.5-19.3,10.2
			c-5.1,5.7-7.9,13-7.9,20.6c0,9.8,4.8,19.2,12.7,25c3.2,2.4,5.1,6.2,5.1,10.3v1.2c-1.4,0.4-2.4,1.7-2.4,3.2v7.7
			c0,5,3.6,9.1,8.4,9.8c2.7,8.4,11.4,8.4,14.2,0c4.8-0.8,8.4-4.9,8.4-9.8c0-4.5,0-3.2,0-7.7c0-1.5-1-2.8-2.4-3.2
			C67.1,74.5,69.4,70.4,72.8,67.8L72.8,67.8z M66.1,82.7c0.1,0,0.2,0.1,0.2,0.2v5.6H41.6v-5.6c0-0.1,0.1-0.2,0.2-0.2H66.1z
			 M59.5,97.4h-11c-3.4,0-6.3-2.6-6.8-5.8h24.6C65.8,94.9,62.9,97.4,59.5,97.4L59.5,97.4z M50.3,100.5h7.4
			C55.8,104.7,52.2,104.7,50.3,100.5L50.3,100.5z M50.3,100.5"/>
	</g>
</g>
</svg>
