<?xml version="1.0" encoding="utf-8"?>
<!-- Generator: Adobe Illustrator 25.2.1, SVG Export Plug-In . SVG Version: 6.00 Build 0)  -->
<svg version="1.1" id="Layer_1" xmlns="http://www.w3.org/2000/svg" xmlns:xlink="http://www.w3.org/1999/xlink" x="0px" y="0px"
	 viewBox="0 0 108 108" style="enable-background:new 0 0 108 108;" xml:space="preserve">
<style type="text/css">
	.st0{fill:#C9F0FF;}
	.st1{fill:#FCD770;}
	.st2{fill:#CCD1D9;}
	.st3{fill:#FF826E;}
	.st4{fill:#B4DD7F;}
</style>
<g>
	<path class="st0" d="M2.7,14.7v65h68.4c0-4.7,3.8-8.5,8.5-8.5s8.5,3.8,8.5,8.5H95v-65C95,14.7,2.7,14.7,2.7,14.7z"/>
	<rect x="9.5" y="59.1" class="st1" width="6.8" height="13.7"/>
	<rect x="23.2" y="62.5" class="st1" width="6.8" height="10.3"/>
	<rect x="36.9" y="48.9" class="st1" width="6.8" height="23.9"/>
	<path class="st1" d="M57.4,55.7v11.1c-1.1,1.8-1.9,3.8-2.5,5.9h-4.3v-17H57.4z"/>
	<path class="st2" d="M79.6,64.3c-8.5,0-15.4,6.9-15.4,15.4c0,2.8,0.8,5.4,2.1,7.7C69,91.9,74,95,79.6,95c5.7,0,10.7-3.1,13.3-7.7
		c1.3-2.3,2.1-4.9,2.1-7.7C95,71.1,88.1,64.3,79.6,64.3L79.6,64.3z M79.6,88.2c-4.7,0-8.5-3.8-8.5-8.5s3.8-8.5,8.5-8.5
		s8.5,3.8,8.5,8.5S84.4,88.2,79.6,88.2L79.6,88.2z"/>
	<path class="st1" d="M93,87.3l8.9,5.1c-4.4,7.7-12.7,12.8-22.2,12.8S61.9,100,57.5,92.4l8.9-5.1C69,91.9,74,95,79.6,95
		C85.3,95,90.3,91.9,93,87.3L93,87.3z"/>
	<path class="st3" d="M105.3,79.6c0,4.7-1.2,9.1-3.4,12.8L93,87.3c1.3-2.3,2.1-4.9,2.1-7.7c0-8.5-6.9-15.4-15.4-15.4V54
		c5.8,0,11.1,1.9,15.4,5.1C101.3,63.8,105.3,71.3,105.3,79.6L105.3,79.6z"/>
	<path class="st4" d="M79.6,54v10.3c-8.5,0-15.4,6.9-15.4,15.4c0,2.8,0.8,5.4,2.1,7.7l-8.9,5.1c-2.2-3.8-3.4-8.2-3.4-12.8
		c0-2.4,0.3-4.7,0.9-6.8c0.6-2.1,1.4-4.1,2.5-5.9C61.8,59.2,70.2,54,79.6,54L79.6,54z"/>
	<path class="st3" d="M49.6,37.9c0.6,0.6,1,1.5,1,2.4c0,1.9-1.5,3.4-3.4,3.4s-3.4-1.5-3.4-3.4s1.5-3.4,3.4-3.4
		C48.1,36.9,49,37.3,49.6,37.9L49.6,37.9z"/>
	<path class="st3" d="M65,27.3c-0.6,0.6-1.5,1-2.4,1s-1.8-0.4-2.4-1c-0.6-0.6-1-1.5-1-2.4c0-1.9,1.5-3.4,3.4-3.4S66,23,66,24.9
		C66,25.9,65.6,26.7,65,27.3L65,27.3z"/>
	<path class="st3" d="M75.2,32.8c0.6,0.6,1,1.5,1,2.4c0,1.9-1.5,3.4-3.4,3.4s-3.4-1.5-3.4-3.4c0-0.9,0.4-1.8,1-2.4
		c0.6-0.6,1.5-1,2.4-1S74.6,32.2,75.2,32.8L75.2,32.8z"/>
	<path class="st3" d="M95,2.7c5.7,0,10.3,4.6,10.3,10.3S100.7,23.3,95,23.3c-2.8,0-5.4-1.1-7.2-3c-1.5-1.5-2.5-3.4-2.9-5.5
		c-0.1-0.5-0.2-1.1-0.2-1.7C84.8,7.3,89.4,2.7,95,2.7L95,2.7z"/>
	<path d="M96.7,58.3V24.8C102.5,24,107,19,107,13c0-6.6-5.4-12-12-12S83,6.4,83,13H1v68.4h51.4C53.3,95.6,65.1,107,79.6,107
		c15.1,0,27.4-12.3,27.4-27.4C107,71,103,63.3,96.7,58.3L96.7,58.3z M95,4.4c4.7,0,8.5,3.8,8.5,8.5s-3.8,8.5-8.5,8.5
		s-8.5-3.8-8.5-8.5S90.3,4.4,95,4.4L95,4.4z M4.4,16.4h79.1c0.4,1.4,1.1,2.6,1.9,3.7L75,30.6c-0.7-0.3-1.4-0.5-2.2-0.5
		s-1.5,0.2-2.2,0.5l-3.4-3.4c0.3-0.7,0.5-1.4,0.5-2.2c0-2.8-2.3-5.1-5.1-5.1c-2.8,0-5.1,2.3-5.1,5.1c0,0.8,0.2,1.5,0.5,2.2l-8.6,8.6
		c-0.7-0.3-1.4-0.5-2.2-0.5c-2.8,0-5.1,2.3-5.1,5.1s2.3,5.1,5.1,5.1s5.1-2.3,5.1-5.1c0-0.8-0.2-1.5-0.5-2.2l8.6-8.6
		c0.7,0.3,1.4,0.5,2.2,0.5s1.5-0.2,2.2-0.5l3.4,3.4c-0.3,0.7-0.5,1.4-0.5,2.2c0,2.8,2.3,5.1,5.1,5.1c2.8,0,5.1-2.3,5.1-5.1
		c0-0.8-0.2-1.5-0.5-2.2l10.5-10.5c1.6,1.2,3.4,2,5.4,2.3V56c-4-2.3-8.7-3.7-13.7-3.7c-8.2,0-15.5,3.6-20.5,9.3V54H48.9v20.5h3.9
		c-0.2,1.1-0.3,2.3-0.4,3.4h-48C4.4,77.9,4.4,16.4,4.4,16.4z M72.8,33.5c0.9,0,1.7,0.8,1.7,1.7s-0.8,1.7-1.7,1.7
		c-0.9,0-1.7-0.8-1.7-1.7C71.1,34.2,71.9,33.5,72.8,33.5L72.8,33.5z M60.8,24.9c0-0.9,0.8-1.7,1.7-1.7s1.7,0.8,1.7,1.7
		s-0.8,1.7-1.7,1.7C61.6,26.6,60.8,25.9,60.8,24.9L60.8,24.9z M48.9,40.3c0,0.9-0.8,1.7-1.7,1.7s-1.7-0.8-1.7-1.7s0.8-1.7,1.7-1.7
		C48.1,38.6,48.9,39.4,48.9,40.3L48.9,40.3z M79.6,93.3c-7.5,0-13.7-6.1-13.7-13.7S72.1,66,79.6,66s13.7,6.1,13.7,13.7
		S87.2,93.3,79.6,93.3L79.6,93.3z M55.7,66.4c-0.8,1.5-1.5,3-2,4.7h-1.4V57.4h3.4V66.4z M77.9,55.8v6.8c-8.6,0.9-15.4,8.2-15.4,17
		c0,2.5,0.6,4.9,1.5,7L58.1,90c-1.5-3.2-2.4-6.7-2.4-10.4C55.7,67,65.5,56.7,77.9,55.8L77.9,55.8z M79.6,103.6
		c-8.2,0-15.5-4.2-19.8-10.5l6-3.4c3.1,4.3,8.2,7.1,13.9,7.1c5.7,0,10.7-2.8,13.9-7.1l6,3.4C95.1,99.4,87.9,103.6,79.6,103.6
		L79.6,103.6z M101.1,90.1l-5.9-3.4c1-2.1,1.5-4.5,1.5-7c0-8.8-6.8-16.1-15.4-17v-6.8c12.4,0.9,22.2,11.2,22.2,23.8
		C103.6,83.4,102.7,86.9,101.1,90.1L101.1,90.1z"/>
	<path d="M79.6,69.4c-5.7,0-10.3,4.6-10.3,10.3c0,5.7,4.6,10.3,10.3,10.3c5.7,0,10.3-4.6,10.3-10.3S85.3,69.4,79.6,69.4L79.6,69.4z
		 M79.6,86.5c-3.8,0-6.8-3.1-6.8-6.8s3.1-6.8,6.8-6.8c3.8,0,6.8,3.1,6.8,6.8S83.4,86.5,79.6,86.5L79.6,86.5z"/>
	<rect x="7.8" y="19.8" width="3.4" height="3.4"/>
	<rect x="14.7" y="19.8" width="23.9" height="3.4"/>
	<rect x="7.8" y="26.6" width="3.4" height="3.4"/>
	<rect x="14.7" y="26.6" width="23.9" height="3.4"/>
	<rect x="7.8" y="33.5" width="3.4" height="3.4"/>
	<rect x="14.7" y="33.5" width="23.9" height="3.4"/>
	<rect x="7.8" y="40.3" width="3.4" height="3.4"/>
	<rect x="14.7" y="40.3" width="23.9" height="3.4"/>
	<path d="M7.8,74.5h10.3V57.4H7.8V74.5z M11.3,60.8h3.4v10.3h-3.4C11.3,71.1,11.3,60.8,11.3,60.8z"/>
	<path d="M21.5,74.5h10.3V60.8H21.5V74.5z M24.9,64.3h3.4v6.8h-3.4V64.3z"/>
	<path d="M35.2,74.5h10.3V47.2H35.2V74.5z M38.6,50.6H42v20.5h-3.4V50.6z"/>
</g>
</svg>
