<?xml version="1.0" encoding="utf-8"?>
<!-- Generator: Adobe Illustrator 25.2.3, SVG Export Plug-In . SVG Version: 6.00 Build 0)  -->
<svg version="1.1" id="Layer_1" xmlns="http://www.w3.org/2000/svg" xmlns:xlink="http://www.w3.org/1999/xlink" x="0px" y="0px"
	 width="102px" height="102px" viewBox="0 0 108 108" style="enable-background:new 0 0 108 108;" xml:space="preserve">
<style type="text/css">
	.st0{fill:#C9F0FF;}
	.st1{fill:#B5EAFF;}
	.st2{fill:#3498AC;}
	.st3{fill:#FF815C;}
	.st4{clip-path:url(#SVGID_2_);fill:#FF815C;}
	.st5{clip-path:url(#SVGID_2_);}
</style>
<g>
	<path class="st0" d="M106.1,53.7c0,27.4-22.1,49.7-49.5,49.7c-27.3,0-49.5-22.3-49.5-49.7C7.2,26.2,29.4,4,56.7,4
		c13.1,0,25.7,5.2,35,14.6C100.9,27.9,106.1,40.5,106.1,53.7L106.1,53.7z M106.1,53.7"/>
	<path class="st1" d="M56.7,4c-1,0-2.1,0-3.1,0.1c25.9,1.6,46.3,23.2,46.3,49.6c0,26.4-20.5,48-46.3,49.6c1,0.1,2.1,0.1,3.1,0.1
		c27.3,0,49.5-22.3,49.5-49.7C106.1,26.2,84,4,56.7,4L56.7,4z M56.7,4"/>
	<path class="st2" d="M29.9,10.7c-0.8-0.2-1.7,0.4-1.8,1.2c-0.1,0.4,0,0.8,0.2,1.1c1-0.7,2-1.4,3.1-2C30.8,10.9,30.4,10.8,29.9,10.7
		L29.9,10.7z M29.9,10.7"/>
	<path class="st2" d="M6.9,47.2c0.1,0.4,0.3,0.7,0.6,0.9c0.1-0.9,0.2-1.8,0.4-2.7C7.2,45.6,6.7,46.4,6.9,47.2L6.9,47.2z M6.9,47.2"
		/>
	<path class="st2" d="M27.3,94.5c0,0.1,0,0.3,0.1,0.4c0,0,0,0.1,0,0.1c0,0,0,0,0,0c0.1,0.7,0.8,1.3,1.5,1.3c0.1,0,0.2,0,0.3,0
		c0.4-0.1,0.7-0.3,0.9-0.6c0,0,0,0,0,0c-1-0.7-2.1-1.4-3.1-2.1C27.2,93.9,27.3,94.2,27.3,94.5L27.3,94.5z M27.3,94.5"/>
	<path class="st2" d="M84.1,96.3c0.1,0,0.2,0,0.3,0c0.7,0,1.4-0.5,1.5-1.3c0.1-0.5,0.2-1,0.3-1.5c-1,0.7-2,1.4-3,2.1
		C83.4,96,83.7,96.2,84.1,96.3L84.1,96.3z M84.1,96.3"/>
	<path class="st2" d="M85.3,11.9c-0.2-0.8-1-1.4-1.8-1.2C83,10.8,82.5,10.9,82,11c1,0.6,2.1,1.3,3.1,2
		C85.3,12.7,85.3,12.3,85.3,11.9L85.3,11.9z M85.3,11.9"/>
	<path class="st2" d="M97.3,24c0.2-0.8-0.3-1.7-1.2-1.9c-0.4-0.1-0.8,0-1.2,0.2c0.7,0.9,1.4,1.8,2.1,2.7
		C97.2,24.7,97.3,24.3,97.3,24L97.3,24z M97.3,24"/>
	<path class="st3" d="M61.4,23.7c0,2.6-2.1,4.8-4.8,4.8c-2.6,0-4.8-2.1-4.8-4.8c0-2.6,2.1-4.8,4.8-4.8
		C59.3,18.9,61.4,21.1,61.4,23.7L61.4,23.7z M61.4,23.7"/>
	<path class="st3" d="M42.9,44.7c0,2.6-2.1,4.8-4.8,4.8c-2.6,0-4.8-2.1-4.8-4.8c0-2.6,2.1-4.8,4.8-4.8
		C40.8,39.9,42.9,42.1,42.9,44.7L42.9,44.7z M42.9,44.7"/>
	<path class="st3" d="M86.2,56.9c0,2.6-2.1,4.8-4.8,4.8c-2.6,0-4.8-2.1-4.8-4.8c0-2.6,2.1-4.8,4.8-4.8C84,52.1,86.2,54.3,86.2,56.9
		L86.2,56.9z M86.2,56.9"/>
	<path class="st3" d="M28.9,99.2c-2.6,0-4.8-2.1-4.8-4.8c0-2.6,2.1-4.8,4.8-4.8c2.6,0,4.8,2.1,4.8,4.8
		C33.6,97.1,31.5,99.2,28.9,99.2L28.9,99.2z M28.9,99.2"/>
	<path class="st3" d="M84.7,99.5c-2.6,0-4.8-2.1-4.8-4.8c0-2.6,2.1-4.8,4.8-4.8c2.6,0,4.8,2.1,4.8,4.8
		C89.5,97.4,87.3,99.5,84.7,99.5L84.7,99.5z M84.7,99.5"/>
	<path class="st3" d="M95.8,28.2c-2.6,0-4.8-2.1-4.8-4.8c0-2.6,2.1-4.8,4.8-4.8c2.6,0,4.8,2.1,4.8,4.8
		C100.6,26.1,98.4,28.2,95.8,28.2L95.8,28.2z M95.8,28.2"/>
	<path class="st3" d="M83.7,17c-2.6,0-4.8-2.1-4.8-4.8c0-2.6,2.1-4.8,4.8-4.8c2.6,0,4.8,2.1,4.8,4.8C88.5,14.9,86.4,17,83.7,17
		L83.7,17z M83.7,17"/>
	<path class="st3" d="M28.9,17c-2.6,0-4.8-2.1-4.8-4.8c0-2.6,2.1-4.8,4.8-4.8c2.6,0,4.8,2.1,4.8,4.8C33.6,14.9,31.5,17,28.9,17
		L28.9,17z M28.9,17"/>
	<g>
		<defs>
			<rect id="SVGID_1_" x="0.9" y="2.3" width="106.7" height="102.9"/>
		</defs>
		<clipPath id="SVGID_2_">
			<use xlink:href="#SVGID_1_"  style="overflow:visible;"/>
		</clipPath>
		<path class="st4" d="M12,47.2c0,2.6-2.1,4.8-4.8,4.8c-2.6,0-4.8-2.1-4.8-4.8c0-2.6,2.1-4.8,4.8-4.8C9.8,42.4,12,44.5,12,47.2
			L12,47.2z M12,47.2"/>
		<path class="st5" d="M103.5,74c0-0.1,0.1-0.1,0.1-0.2c6.3-14.6,5.2-32.5-3-46.2c4.4-5.2-1.3-12.7-7.5-9.8
			c-1.1-1.1-2.2-2.2-3.4-3.2C92,8.2,84.2,3,79.3,7.7C65.2,0.6,47.6,0.7,33.6,8c-5-5.3-13.4,0.4-10.4,7c-1.7,1.5-3.4,3.2-4.9,4.9
			c-1.3,1.5,1.1,3.5,2.4,2.1c1.4-1.6,2.9-3.1,4.5-4.5c3.1,2.2,7.6,1.1,9.3-2.3c5.6,1.6,11,4,16,6.9c-0.4,1.5-0.2,3.2,0.5,4.6
			c-4.1,3.6-7.8,7.6-11.1,12c-3-0.9-6.3,0.6-7.6,3.4c-6.6,0-13.2,0.7-19.6,2.1c-0.6-1.1-1.4-1.9-2.5-2.5c1.2-4.7,3.1-9.3,5.7-13.4
			c1-1.7-1.6-3.4-2.7-1.7c-2.8,4.4-4.8,9.2-6.1,14.3c-7.5,0.1-8.8,10.5-1.6,12.5C5.5,68.1,11.9,82.4,23,92.2
			c-2.3,6.2,5.2,11.4,10.1,7c14.4,7.7,32.7,7.7,47.1,0c5,5,13.1-0.6,10.3-7.1C96.2,87,100.6,80.8,103.5,74L103.5,74z M101.6,70.5
			c-4.3-4.3-9.1-8.2-14.1-11.6c0.7-2.3,0.1-4.8-1.6-6.4c4.3-7.1,7.6-14.7,9.9-22.6c0.8,0,1.5-0.1,2.2-0.4
			C105.2,41.6,106.5,57.3,101.6,70.5L101.6,70.5z M29.6,88.2c-1.3-12.9,1-25.8,6.7-37.4c3.6,1.1,7.4-1.2,8.1-4.9
			c10.8,1.3,21.2,4.5,30.9,9.4c-0.5,1.8-0.1,3.8,1,5.3c-11,13.9-25.5,24.4-42.1,30.4C33.2,89.5,31.5,88.4,29.6,88.2L29.6,88.2z
			 M78.2,56.9c0-1.8,1.4-3.2,3.2-3.2c4.2,0.2,4.2,6.3,0,6.4C79.7,60.1,78.2,58.7,78.2,56.9L78.2,56.9z M99,23.5
			c0,1.8-1.4,3.2-3.2,3.2c-4.2-0.2-4.2-6.3,0-6.4C97.6,20.2,99,21.7,99,23.5L99,23.5z M90.7,19.8c-2.2,3-1.2,7.4,2.1,9.2
			c-2.3,7.6-5.5,15-9.6,21.8c-0.9-0.2-1.8-0.3-2.7-0.2c-4.3-9.2-10.5-17.4-18.2-24c0.7-1.4,0.9-3.1,0.5-4.6c4.8-2.9,10-5.1,15.4-6.8
			c1.8,3.5,6.6,4.5,9.6,1.9C88.8,18,89.7,18.9,90.7,19.8L90.7,19.8z M53.5,23.7c0-1.8,1.4-3.2,3.2-3.2c4.2,0.2,4.2,6.3,0,6.4
			C54.9,26.9,53.5,25.5,53.5,23.7L53.5,23.7z M83.7,9c1.8,0,3.2,1.4,3.2,3.2c-0.2,4.3-6.2,4.3-6.4,0C80.5,10.5,82,9,83.7,9L83.7,9z
			 M28.9,15.5c-1.8,0-3.2-1.4-3.2-3.2c0.2-4.3,6.2-4.3,6.4,0C32.1,14,30.6,15.5,28.9,15.5L28.9,15.5z M35.2,12
			c0-0.4-0.1-0.9-0.2-1.3C48.1,4,64.5,3.8,77.7,10.4c-0.2,0.6-0.3,1.2-0.3,1.8c-5.7,1.7-11.1,4.1-16.2,7.1c-2.4-2.5-6.6-2.5-9.1,0
			C46.8,16.1,41.2,13.7,35.2,12L35.2,12z M53.1,29c2.1,1.4,5,1.4,7.1,0c7.3,6.3,13.3,14.2,17.4,22.9c-0.3,0.2-0.5,0.5-0.8,0.7
			c-10.3-5.2-21.2-8.5-32.6-9.9c-0.3-0.9-0.8-1.8-1.5-2.5C45.7,36.1,49.2,32.3,53.1,29L53.1,29z M38.2,41.5c1.8,0,3.2,1.4,3.2,3.2
			c-0.2,4.3-6.2,4.3-6.4,0C35,42.9,36.4,41.5,38.2,41.5L38.2,41.5z M4,47.2C4,45.4,5.5,44,7.2,44c4.2,0.2,4.2,6.3,0,6.4
			C5.5,50.4,4,48.9,4,47.2L4,47.2z M8.8,53.3c0,0,4.8-1,4.8-6.1c0,0,12.2-1.9,18.3-2c0.1,1.5,0.8,2.9,1.8,3.9
			c-6.1,12.3-8.6,25.9-7.1,39.5c-0.6,0.3-1.2,0.6-1.7,1C14.6,80.5,8.8,65.2,8.8,53.3L8.8,53.3z M28.9,97.7c-1.8,0-3.2-1.4-3.2-3.2
			c0-1.8,1.4-3.2,3.2-3.2c1.7,0,3.2,1.5,3.2,3.2C32.1,96.2,30.6,97.7,28.9,97.7L28.9,97.7z M56.7,101.8c-7.6,0-15.1-1.8-21.8-5.3
			c0.3-0.8,0.4-1.7,0.3-2.5c17.2-6.2,32.2-17,43.6-31.4c0.9,0.4,2,0.6,3,0.6c0.7,2.6,1.2,5.2,1.6,7.8c0.3,2,3.4,1.6,3.1-0.5
			c-0.4-2.8-1-5.6-1.7-8.3c0.4-0.2,0.7-0.5,1-0.8c5.2,3.5,10.1,7.6,14.5,12.1c-2.7,6-6.7,11.5-11.8,16c-0.5-0.4-1.1-0.7-1.7-0.9
			c0.3-2.9,0.4-5.8,0.4-8.7c0-2-3.2-2-3.1,0c0,2.8-0.1,5.6-0.4,8.4c-3.7,0.6-6.1,4.4-5.1,8C71.9,100,64.3,101.8,56.7,101.8
			L56.7,101.8z M84.7,97.9c-1.8,0-3.2-1.4-3.2-3.2c0.2-4.3,6.2-4.3,6.4,0C87.9,96.5,86.5,97.9,84.7,97.9L84.7,97.9z M84.7,97.9"/>
	</g>
</g>
</svg>
