<?xml version="1.0" encoding="utf-8"?>
<!-- Generator: Adobe Illustrator 25.2.1, SVG Export Plug-In . SVG Version: 6.00 Build 0)  -->
<svg version="1.1" id="Layer_1" xmlns="http://www.w3.org/2000/svg" xmlns:xlink="http://www.w3.org/1999/xlink" x="0px" y="0px"
	 viewBox="0 0 108 108" style="enable-background:new 0 0 108 108;" xml:space="preserve">
<style type="text/css">
	.st0{fill:#DDEBFD;}
	.st1{fill:#BED9FD;}
	.st2{fill:#FF8086;}
	.st3{fill:#FFE07D;}
	.st4{clip-path:url(#SVGID_2_);}
	.st5{clip-path:url(#SVGID_4_);}
</style>
<g>
	<path class="st0" d="M19.1,61.5H88c7.1,0,13.2-5.6,13.4-12.7c0-0.2,0-0.4,0-0.5c0-8.4-6.8-15.2-15.2-15.2l0,0c0-0.2,0-0.4,0-0.7
		c0-8.4-6.8-15.2-15.2-15.2c-2.6,0-5.1,0.7-7.2,1.8c-3.7-7.7-11.2-13-20-13.5c-13.1-0.6-24.3,9.9-24.3,23c0,1.5,0.1,3,0.4,4.5
		C12,33.5,5.7,40.1,5.7,48.2c0,0.2,0,0.4,0,0.5C5.9,55.9,11.9,61.5,19.1,61.5L19.1,61.5z"/>
	<path class="st1" d="M86.1,33L86.1,33c0-0.2,0-0.4,0-0.7c0-8.4-6.8-15.2-15.2-15.2c-2.6,0-5.1,0.7-7.2,1.8
		C60.1,11.3,52.6,6,43.8,5.5c-6.5-0.3-12.5,2.1-16.9,6.2c3.2-1.5,6.8-2.2,10.6-2c6.2,0.3,11.8,3,15.7,7.3c2.8,2.9,6.7,4.5,10.7,4.3
		c0.2,0,0.4,0,0.7,0c8.1,0,11.9,5,13.7,9.4c1.4,3.4,4.1,6.3,7.5,7.7c5.5,2.3,9.3,7.7,9.3,14c0,0.2,0,0.4,0,0.5c-0.1,3-1.2,5.7-3,7.9
		c5.2-1.6,9.2-6.4,9.4-12.1c0-0.2,0-0.4,0-0.5C101.3,39.8,94.5,33,86.1,33L86.1,33z"/>
	<path class="st2" d="M30.9,74h6c0.8,0,1.5,0.7,1.5,1.5v6c0,0.8-0.7,1.5-1.5,1.5h-6c-0.8,0-1.5-0.7-1.5-1.5v-6
		C29.4,74.7,30.1,74,30.9,74L30.9,74z"/>
	<path class="st3" d="M30.9,44h6c0.8,0,1.5,0.7,1.5,1.5v6c0,0.8-0.7,1.5-1.5,1.5h-6c-0.8,0-1.5-0.7-1.5-1.5v-6
		C29.4,44.7,30.1,44,30.9,44L30.9,44z"/>
	<path class="st2" d="M78,82.7h6c0.8,0,1.5,0.7,1.5,1.5v6c0,0.8-0.7,1.5-1.5,1.5h-6c-0.8,0-1.5-0.7-1.5-1.5v-6
		C76.5,83.4,77.2,82.7,78,82.7L78,82.7z"/>
	<path class="st3" d="M54.5,93.5h6c0.8,0,1.5,0.7,1.5,1.5v6c0,0.8-0.7,1.5-1.5,1.5h-6c-0.8,0-1.5-0.7-1.5-1.5v-6
		C53,94.1,53.6,93.5,54.5,93.5L54.5,93.5z"/>
	<path class="st3" d="M21.1,93.5h6c0.8,0,1.5,0.7,1.5,1.5v6c0,0.8-0.7,1.5-1.5,1.5h-6c-0.8,0-1.5-0.7-1.5-1.5v-6
		C19.7,94.1,20.3,93.5,21.1,93.5L21.1,93.5z"/>
	<path class="st3" d="M3.1,74h6c0.8,0,1.5,0.7,1.5,1.5v6c0,0.8-0.7,1.5-1.5,1.5h-6c-0.8,0-1.5-0.7-1.5-1.5v-6
		C1.6,74.7,2.2,74,3.1,74L3.1,74z"/>
	<path class="st3" d="M54.5,72.7h6c0.8,0,1.5,0.7,1.5,1.5v6c0,0.8-0.7,1.5-1.5,1.5h-6c-0.8,0-1.5-0.7-1.5-1.5v-6
		C53,73.4,53.6,72.7,54.5,72.7L54.5,72.7z"/>
	<path class="st2" d="M54.5,39.1h6c0.8,0,1.5,0.7,1.5,1.5v6c0,0.8-0.7,1.5-1.5,1.5h-6c-0.8,0-1.5-0.7-1.5-1.5v-6
		C53,39.7,53.6,39.1,54.5,39.1L54.5,39.1z"/>
	<g>
		<g>
			<defs>
				<rect id="SVGID_1_" y="3.9" width="108" height="100.1"/>
			</defs>
			<clipPath id="SVGID_2_">
				<use xlink:href="#SVGID_1_"  style="overflow:visible;"/>
			</clipPath>
			<path class="st4" d="M67.7,59.9h-8.6V49.7h1.4c1.7,0,3.1-1.4,3.1-3.1v-6c0-1.7-1.4-3.1-3.1-3.1h-6c-1.7,0-3.1,1.4-3.1,3.1v6
				c0,1.7,1.4,3.1,3.1,3.1h1.4V60H35.5v-5.3h1.4c1.7,0,3.1-1.4,3.1-3.1v-6c0-1.7-1.4-3.1-3.1-3.1h-6c-1.7,0-3.1,1.4-3.1,3.1v6
				c0,1.7,1.4,3.1,3.1,3.1h1.4V60H19.1c-3.1,0-6-1.2-8.2-3.3s-3.5-4.9-3.6-7.9c0-0.2,0-0.3,0-0.5c0-7.2,5.6-13.1,12.7-13.6
				c0.5,0,0.9-0.3,1.1-0.6c0.3-0.4,0.4-0.8,0.3-1.3C21.2,31.4,21,30,21,28.6c0-3.8,1-7.5,2.9-10.7c0.4-0.8,0.2-1.7-0.6-2.2
				c-0.8-0.4-1.7-0.2-2.2,0.6c-2.2,3.7-3.3,8-3.4,12.3c0,1,0.1,2.1,0.2,3.1c-8,1.4-14,8.3-14,16.6c0,0.2,0,0.4,0,0.6
				C4,52.8,5.7,56.4,8.5,59c2.8,2.7,6.5,4.1,10.4,4.1h13.3v9.4h-1.4c-1.7,0-3.1,1.4-3.1,3.1V77H12.2v-1.4c0-1.7-1.4-3.1-3.1-3.1h-6
				c-1.7,0-3.1,1.4-3.1,3.1v6c0,1.7,1.4,3.1,3.1,3.1h6c1.7,0,3.1-1.4,3.1-3.1v-1.4h15.7v1.4c0,1.7,1.4,3.1,3.1,3.1h6
				c1.7,0,3.1-1.4,3.1-3.1v-6c0-1.7-1.4-3.1-3.1-3.1h-1.4v-9.4H56v8h-1.4c-1.7,0-3.1,1.4-3.1,3.1v6c0,1.7,1.4,3.1,3.1,3.1H56v8.6
				h-1.4c-1.7,0-3.1,1.4-3.1,3.1v1.4H30.2V95c0-1.7-1.4-3.1-3.1-3.1h-6c-1.7,0-3.1,1.4-3.1,3.1v1.4H1.7c-0.9,0-1.6,0.7-1.6,1.6
				s0.7,1.6,1.6,1.6h16.4v1.4c0,1.7,1.4,3.1,3.1,3.1h6c1.7,0,3.1-1.4,3.1-3.1v-1.4h21.2v1.4c0,1.7,1.4,3.1,3.1,3.1h6
				c1.7,0,3.1-1.4,3.1-3.1v-6c0-1.7-1.4-3.1-3.1-3.1h-1.4v-8.6h1.4c1.7,0,3.1-1.4,3.1-3.1v-6c0-1.7-1.4-3.1-3.1-3.1h-1.4v-8h8.6
				c0.9,0,1.6-0.7,1.6-1.6C69.3,60.6,68.6,59.9,67.7,59.9L67.7,59.9z M54.6,40.7h5.8v5.8h-5.8V40.7z M31,45.6h5.8v5.8H31V45.6z
				 M9,81.5H3.2v-5.8H9V81.5z M36.8,81.5H31v-5.8h5.8V81.5z M27.1,100.9h-5.8v-5.8h5.8C27.1,95.1,27.1,100.9,27.1,100.9z
				 M60.4,100.9h-5.8v-5.8h5.8V100.9z M60.4,80.1h-5.8v-5.8h5.8V80.1z"/>
		</g>
		<g>
			<defs>
				<rect id="SVGID_3_" y="3.9" width="108" height="100.1"/>
			</defs>
			<clipPath id="SVGID_4_">
				<use xlink:href="#SVGID_3_"  style="overflow:visible;"/>
			</clipPath>
			<path class="st5" d="M106.4,85.8H87.1v-1.6c0-1.7-1.4-3.1-3.1-3.1h-1.4v-18h5.3c3.9,0,7.6-1.5,10.4-4.1c2.8-2.7,4.5-6.3,4.6-10.1
				c0-0.2,0-0.4,0-0.6c0-8.7-6.7-15.9-15.2-16.7c-0.4-8.9-7.8-16-16.8-16c-2.2,0-4.5,0.5-6.5,1.3C60.2,9.3,52.5,4.4,43.9,4
				c-6.8-0.3-13.5,2.2-18.4,7c-0.6,0.6-0.6,1.6,0,2.2c0.6,0.6,1.6,0.6,2.2,0C32,9,37.9,6.8,43.8,7.1c8,0.4,15.1,5.2,18.5,12.5
				c0.2,0.4,0.5,0.7,0.9,0.8c0.4,0.1,0.9,0.1,1.3-0.1c2-1.1,4.2-1.6,6.5-1.6c7.5,0,13.6,6.1,13.6,13.6c0,0.2,0,0.4,0,0.6
				c0,0.4,0.1,0.9,0.4,1.2s0.7,0.5,1.1,0.5l0,0c7.5,0,13.6,6.1,13.6,13.6c0,0.2,0,0.3,0,0.5c-0.1,3-1.4,5.8-3.6,7.9
				c-2.2,2.1-5.1,3.3-8.2,3.3H74c-0.9,0-1.6,0.7-1.6,1.6c0,0.9,0.7,1.6,1.6,1.6h5.4v18H78c-1.7,0-3.1,1.4-3.1,3.1v6
				c0,1.7,1.4,3.1,3.1,3.1h6c1.7,0,3.1-1.4,3.1-3.1V89h19.3c0.9,0,1.6-0.7,1.6-1.6S107.3,85.8,106.4,85.8L106.4,85.8z M83.9,90.1
				h-5.8v-5.8h5.8V90.1z"/>
		</g>
	</g>
</g>
</svg>
