<?xml version="1.0" encoding="utf-8"?>
<!-- Generator: Adobe Illustrator 25.2.1, SVG Export Plug-In . SVG Version: 6.00 Build 0)  -->
<svg version="1.1" id="Layer_1" xmlns="http://www.w3.org/2000/svg" xmlns:xlink="http://www.w3.org/1999/xlink" x="0px" y="0px"
	 viewBox="0 0 108 108" style="enable-background:new 0 0 108 108;" xml:space="preserve">
<style type="text/css">
	.st0{fill:#C9F0FF;}
	.st1{fill:#6FBCCE;}
	.st2{fill:#4B98D4;}
	.st3{fill:#2472B2;}
	.st4{fill:#E4E3E1;}
	.st5{fill:#D1D0CF;}
	.st6{fill:#C1C1C1;}
	.st7{fill:#FF815C;}
	.st8{clip-path:url(#SVGID_2_);}
	.st9{clip-path:url(#SVGID_4_);}
</style>
<g>
	<path class="st0" d="M36.2,67.3c3.8,2.7,5.9,7.2,5.9,11.8v3.8h23.6V80c0-5.2,2.4-10,6.5-13.2C79.4,61.3,84,52.6,84,42.9
		c0-16.5-13.3-30-29.9-30.1C37.6,12.7,23.9,26.3,23.9,43C23.9,53,28.7,61.8,36.2,67.3L36.2,67.3z"/>
	<path class="st1" d="M40.5,67.3C33,61.8,28.1,53,28.1,43c0-15.9,12.4-28.9,28-30c-0.6,0-1.2-0.1-1.8-0.1
		C37.6,12.7,23.9,26.3,23.9,43c0,10,4.9,18.9,12.4,24.3c3.8,2.7,5.9,7.2,5.9,11.8v3.8h4.2v-3.8C46.4,74.5,44.2,70.1,40.5,67.3
		L40.5,67.3z"/>
	<path class="st2" d="M48,99.4c0.9,4.1,3.2,7.1,6,7.1s5.1-3,6-7.1H48z"/>
	<path class="st3" d="M52.2,99.4H48c0.9,4.1,3.2,7.1,6,7.1c0.7,0,1.4-0.2,2.1-0.6C54.2,104.9,52.8,102.5,52.2,99.4L52.2,99.4z"/>
	<path class="st4" d="M66.4,81.9H41.5c-1,0-1.8,0.8-1.8,1.8v7.8c0,4.8,3.9,8.6,8.6,8.6h11.3c4.8,0,8.6-3.9,8.6-8.6v-7.8
		C68.2,82.7,67.4,81.9,66.4,81.9L66.4,81.9z"/>
	<path class="st5" d="M43.9,91.5v-7.8c0-1,0.8-1.8,1.8-1.8h-4.2c-1,0-1.8,0.8-1.8,1.8v7.8c0,4.8,3.9,8.6,8.6,8.6h4.2
		C47.8,100.1,43.9,96.3,43.9,91.5L43.9,91.5z"/>
	<path class="st5" d="M39.7,91v0.5c0,4.8,3.9,8.6,8.6,8.6h11.3c4.8,0,8.6-3.9,8.6-8.6V91H39.7z"/>
	<path class="st6" d="M43.9,91.5V91h-4.2v0.5c0,4.8,3.9,8.6,8.6,8.6h4.2C47.8,100.1,43.9,96.3,43.9,91.5L43.9,91.5z"/>
	<path class="st7" d="M59,42.7l-2.3-3.9c-0.1-0.2-0.3-0.3-0.5-0.3h-4.5c-0.2,0-0.4,0.1-0.5,0.3L49,42.7c-0.1,0.2-0.1,0.4,0,0.6
		l2.3,3.9c0.1,0.2,0.3,0.3,0.5,0.3h4.5c0.2,0,0.4-0.1,0.5-0.3l2.3-3.9C59.1,43.1,59.1,42.9,59,42.7L59,42.7z"/>
	<path class="st2" d="M73,39.9h-3.4c-0.4,0-0.8-0.3-0.9-0.7c-0.4-1.4-0.9-2.7-1.6-4c-0.2-0.3-0.2-0.8,0.1-1.1l2.4-2.4
		c0.3-0.3,0.3-0.9,0-1.2l-3.2-3.2c-0.3-0.3-0.9-0.3-1.2,0l-2.4,2.4c-0.3,0.3-0.7,0.3-1.1,0.1c-1.2-0.7-2.6-1.3-4-1.6
		c-0.4-0.1-0.7-0.4-0.7-0.9V24c0-0.5-0.4-0.9-0.9-0.9h-4.5c-0.5,0-0.9,0.4-0.9,0.9v3.4c0,0.4-0.3,0.8-0.7,0.9
		c-1.4,0.4-2.7,0.9-4,1.6c-0.3,0.2-0.8,0.2-1.1-0.1l-2.4-2.4c-0.3-0.3-0.9-0.3-1.2,0l-3.2,3.2c-0.3,0.3-0.3,0.9,0,1.2l2.4,2.4
		c0.3,0.3,0.3,0.7,0.1,1.1c-0.7,1.2-1.3,2.6-1.6,4c-0.1,0.4-0.4,0.7-0.9,0.7H35c-0.5,0-0.9,0.4-0.9,0.9v4.5c0,0.5,0.4,0.9,0.9,0.9
		h3.4c0.4,0,0.8,0.3,0.9,0.7c0.4,1.4,0.9,2.7,1.6,4c0.2,0.3,0.2,0.8-0.1,1.1l-2.4,2.4c-0.3,0.3-0.3,0.9,0,1.2l3.2,3.2
		c0.3,0.3,0.9,0.3,1.2,0l2.4-2.4c0.3-0.3,0.7-0.3,1.1-0.1c1.2,0.7,2.6,1.3,4,1.6c0.4,0.1,0.7,0.4,0.7,0.9V62c0,0.5,0.4,0.9,0.9,0.9
		h4.5c0.5,0,0.9-0.4,0.9-0.9v-3.4c0-0.4,0.3-0.8,0.7-0.9c1.4-0.4,2.7-0.9,4-1.6c0.3-0.2,0.8-0.2,1.1,0.1l2.4,2.4
		c0.3,0.3,0.9,0.3,1.2,0l3.2-3.2c0.3-0.3,0.3-0.9,0-1.2l-2.4-2.4c-0.3-0.3-0.3-0.7-0.1-1.1c0.7-1.2,1.3-2.6,1.6-4
		c0.1-0.4,0.4-0.7,0.9-0.7H73c0.5,0,0.9-0.4,0.9-0.9v-4.5C73.8,40.3,73.4,39.9,73,39.9L73,39.9z M54,52.5c-5.3,0-9.6-4.3-9.6-9.5
		c0-5.3,4.3-9.6,9.6-9.6s9.5,4.3,9.5,9.6S59.2,52.5,54,52.5L54,52.5z"/>
	<path class="st7" d="M55.4,47.2l-2.3-3.9c-0.1-0.2-0.1-0.4,0-0.6l2.3-3.9c0.1-0.2,0.3-0.3,0.5-0.3h-4.2c-0.2,0-0.4,0.1-0.5,0.3
		L49,42.7c-0.1,0.2-0.1,0.4,0,0.6l2.3,3.9c0.1,0.2,0.3,0.3,0.5,0.3H56C55.7,47.5,55.5,47.4,55.4,47.2L55.4,47.2z"/>
	<path class="st3" d="M42.6,55.4"/>
	<path class="st3" d="M51.7,23.1c-0.5,0-0.9,0.4-0.9,0.9v3.4c0,0.3-0.1,0.5-0.3,0.7c0.5-0.2,1.7-0.6,3.8-0.7c0.4,0,0.7-0.4,0.7-0.8
		V24c0-0.5,0.4-0.9,0.9-0.9H51.7z"/>
	<path d="M47.6,44l2.3,3.9c0.4,0.7,1.1,1.1,1.9,1.1h4.5c0.8,0,1.5-0.4,1.9-1.1l2.3-3.9c0.4-0.7,0.4-1.5,0-2.2l-2.3-3.9
		c-0.4-0.7-1.1-1.1-1.9-1.1h-4.5c-0.8,0-1.5,0.4-1.9,1.1l-2.3,3.9C47.2,42.5,47.2,43.3,47.6,44L47.6,44z M52.3,40h3.3l1.7,2.9
		l-1.7,2.9h-3.3l-1.7-2.9L52.3,40z"/>
	<path d="M49.3,23.9v2.8c-1.2,0.3-2.3,0.8-3.4,1.4l-2-2c-1-1-2.5-1-3.5,0l-3.2,3.2c-0.5,0.5-0.7,1.1-0.7,1.7c0,0.7,0.3,1.3,0.7,1.7
		l2,2c-0.6,1.1-1.1,2.2-1.4,3.4H35c-1.4,0-2.5,1.1-2.5,2.5v4.5c0,1.4,1.1,2.5,2.5,2.5h2.8c0.3,1.2,0.8,2.3,1.4,3.4l-2,2
		c-1,1-1,2.5,0,3.5l3.2,3.2c0.5,0.5,1.1,0.7,1.7,0.7c0.7,0,1.3-0.3,1.7-0.7l2-2c1.1,0.6,2.2,1.1,3.4,1.4v2.8c0,1.4,1.1,2.5,2.5,2.5
		h4.5c1.4,0,2.5-1.1,2.5-2.5v-2.8c1.2-0.3,2.3-0.8,3.4-1.4l2,2c1,1,2.5,1,3.5,0l3.2-3.2c1-1,1-2.5,0-3.5l-2-2
		c0.6-1.1,1.1-2.2,1.4-3.4H73c1.4,0,2.5-1.1,2.5-2.5v-4.5c0-1.4-1.1-2.5-2.5-2.5h-2.8c-0.3-1.2-0.8-2.3-1.4-3.4l2-2
		c0.5-0.5,0.7-1.1,0.7-1.7c0-0.7-0.3-1.3-0.7-1.7l-3.2-3.2c-1-1-2.5-1-3.5,0l-2,2c-1.1-0.6-2.2-1.1-3.4-1.4v-2.8
		c0-1.4-1.1-2.5-2.5-2.5h-4.5C50.4,21.5,49.3,22.6,49.3,23.9L49.3,23.9z M52.4,24.6h3.1v2.7c0,1.1,0.8,2.1,1.9,2.4
		c1.2,0.3,2.4,0.8,3.6,1.5c1,0.6,2.2,0.4,3-0.4l1.9-1.9l2.2,2.2l-2,1.9c-0.8,0.8-0.9,2-0.4,3c0.7,1.1,1.2,2.3,1.5,3.6
		c0.3,1.1,1.3,1.9,2.4,1.9h2.7v3.1h-2.7c-1.1,0-2.1,0.8-2.4,1.9c-0.3,1.2-0.8,2.4-1.5,3.6c-0.6,1-0.4,2.2,0.4,3L68,55l-2.2,2.2
		L63.9,55c-0.8-0.8-2-0.9-3-0.4c-1.1,0.7-2.3,1.2-3.6,1.5c-1.1,0.3-1.9,1.3-1.9,2.4v2.7h-3.1v-2.7c0-1.1-0.8-2.1-1.9-2.4
		c-1.2-0.3-2.4-0.8-3.6-1.5c-1-0.6-2.2-0.4-3,0.4l-1.9,1.9L40,54.7l1.9-1.9c0.8-0.8,0.9-2,0.4-3c-0.7-1.1-1.2-2.3-1.5-3.6
		c-0.3-1.1-1.3-1.9-2.4-1.9h-2.7v-3.1h2.7c1.1,0,2.1-0.8,2.4-1.9c0.3-1.2,0.8-2.4,1.5-3.6c0.6-1,0.4-2.2-0.4-3L40,31.1l2.2-2.2
		l1.9,1.9c0.8,0.8,2,0.9,3,0.4c1.1-0.7,2.3-1.2,3.6-1.5c1.1-0.3,1.9-1.3,1.9-2.4v-2.7H52.4z"/>
	<path d="M42.9,42.9C42.9,49,47.8,54,54,54c6.1,0,11.1-5,11.1-11.1s-5-11.1-11.1-11.1C47.8,31.8,42.9,36.8,42.9,42.9L42.9,42.9z
		 M54,34.9c4.4,0,8,3.6,8,8s-3.6,8-8,8s-8-3.6-8-8S49.6,34.9,54,34.9L54,34.9z"/>
	<path d="M96.9,42.9c0-0.9-0.7-1.6-1.6-1.6h-5c-0.9,0-1.6,0.7-1.6,1.6c0,0.9,0.7,1.6,1.6,1.6h5C96.2,44.5,96.9,43.8,96.9,42.9
		L96.9,42.9z"/>
	<path d="M11.1,42.9c0,0.9,0.7,1.6,1.6,1.6h5c0.9,0,1.6-0.7,1.6-1.6c0-0.9-0.7-1.6-1.6-1.6h-5C11.8,41.3,11.1,42,11.1,42.9
		L11.1,42.9z"/>
	<path d="M86.3,26.1l4.3-2.5c0.8-0.4,1-1.4,0.6-2.2c-0.4-0.8-1.4-1-2.2-0.6l-4.3,2.5c-0.8,0.4-1,1.4-0.6,2.2
		C84.5,26.3,85.5,26.5,86.3,26.1L86.3,26.1z"/>
	<path d="M19,64.9l4.3-2.5c0.8-0.4,1-1.4,0.6-2.2s-1.4-1-2.2-0.6l-4.3,2.5c-0.8,0.4-1,1.4-0.6,2.2C17.3,65.1,18.2,65.4,19,64.9
		L19,64.9z"/>
	<path d="M73.5,12.2L76,7.9c0.4-0.8,0.2-1.7-0.6-2.2c-0.8-0.4-1.7-0.2-2.2,0.6l-2.5,4.3c-0.4,0.8-0.2,1.7,0.6,2.2
		C72.1,13.2,73.1,13,73.5,12.2L73.5,12.2z"/>
	<path d="M55.6,6.6v-5C55.6,0.7,54.9,0,54,0s-1.6,0.7-1.6,1.6v5c0,0.9,0.7,1.6,1.6,1.6C54.9,8.1,55.6,7.4,55.6,6.6L55.6,6.6z"/>
	<path d="M34.4,12.2c0.4,0.8,1.4,1,2.2,0.6s1-1.4,0.6-2.2l-2.5-4.3c-0.4-0.8-1.4-1-2.2-0.6s-1,1.4-0.6,2.2L34.4,12.2z"/>
	<path d="M21.7,26.1c0.8,0.4,1.7,0.2,2.2-0.6c0.4-0.8,0.2-1.7-0.6-2.2L19,20.9c-0.8-0.4-1.7-0.2-2.2,0.6c-0.4,0.8-0.2,1.7,0.6,2.2
		L21.7,26.1z"/>
	<path d="M84.7,62.5L89,65c0.8,0.4,1.7,0.2,2.2-0.6c0.4-0.8,0.2-1.7-0.6-2.2l-4.3-2.5c-0.8-0.4-1.7-0.2-2.2,0.6
		C83.7,61,83.9,62,84.7,62.5L84.7,62.5z"/>
	<g>
		<g>
			<defs>
				<rect id="SVGID_1_" x="11.1" width="85.9" height="108"/>
			</defs>
			<clipPath id="SVGID_2_">
				<use xlink:href="#SVGID_1_"  style="overflow:visible;"/>
			</clipPath>
			<path class="st8" d="M56.1,12.8c-0.1,0.9,0.5,1.7,1.4,1.8c13,1.6,23.2,11.8,24.8,24.8c0.1,0.8,0.8,1.4,1.6,1.4c0.1,0,0.1,0,0.2,0
				c0.9-0.1,1.5-0.9,1.4-1.8c-1.8-14.4-13.2-25.8-27.6-27.6C57,11.3,56.2,12,56.1,12.8L56.1,12.8z"/>
		</g>
		<g>
			<defs>
				<rect id="SVGID_3_" x="11.1" width="85.9" height="108"/>
			</defs>
			<clipPath id="SVGID_4_">
				<use xlink:href="#SVGID_3_"  style="overflow:visible;"/>
			</clipPath>
			<path class="st9" d="M73.2,68.1c6.7-5.2,11.2-12.9,12.2-21.3c0.1-0.9-0.5-1.7-1.4-1.8s-1.7,0.5-1.8,1.4
				c-0.9,7.5-4.9,14.5-11,19.2c-4.3,3.3-7.1,8.5-7.1,14.6H43.8v-1.1c0-5.2-2.5-10.1-6.6-13.1c-7.3-5.4-11.7-14-11.7-23.1
				c0-14.4,10.8-26.5,25-28.3c0.9-0.1,1.5-0.9,1.4-1.8c-0.1-0.9-0.9-1.5-1.8-1.4c-7.6,0.9-14.6,4.6-19.8,10.4s-8.1,13.3-8.1,21.1
				c0,10.1,4.9,19.7,13,25.6c3.3,2.4,5.3,6.4,5.3,10.5v1.3C39.1,80.7,38,82,38,83.6v7.8c0,5.1,3.7,9.3,8.6,10.1
				c2.8,8.6,11.7,8.6,14.5,0c4.9-0.8,8.6-5,8.6-10.1c0-4.6,0-3.3,0-7.8c0-1.5-1-2.9-2.5-3.3C67.4,75,69.7,70.8,73.2,68.1L73.2,68.1z
				 M66.4,83.4c0.1,0,0.2,0.1,0.2,0.2v5.7H41.3v-5.7c0-0.1,0.1-0.2,0.2-0.2H66.4z M59.6,98.5H48.3c-3.5,0-6.5-2.6-7-6h25.2
				C66.1,95.8,63.1,98.5,59.6,98.5L59.6,98.5z M50.2,101.6h7.6C55.8,105.9,52.1,105.9,50.2,101.6L50.2,101.6z"/>
		</g>
	</g>
</g>
</svg>
