<?xml version="1.0" encoding="utf-8"?>
<!-- Generator: Adobe Illustrator 25.2.1, SVG Export Plug-In . SVG Version: 6.00 Build 0)  -->
<svg version="1.1" id="Layer_1" xmlns="http://www.w3.org/2000/svg" xmlns:xlink="http://www.w3.org/1999/xlink" x="0px" y="0px"
	 viewBox="0 0 92 51" style="enable-background:new 0 0 92 51;" xml:space="preserve">
<style type="text/css">
	.st0{clip-path:url(#SVGID_2_);fill:#262F3E;}
	.st1{clip-path:url(#SVGID_2_);fill:#F7971D;}
	.st2{fill:#0F9BD7;}
	.st3{fill:#FFFFFF;}
	.st4{fill-rule:evenodd;clip-rule:evenodd;fill:#FFFFFF;}
	.st5{fill:#005289;}
	.st6{fill:#0098D8;}
	.st7{fill:#2B4E4E;}
	.st8{fill:#80B7A2;}
	.st9{fill:#777471;}
	.st10{fill:#E34C22;}
	.st11{fill:#6DBB29;}
	.st12{fill:#599DD5;}
	.st13{fill:#F3BF00;}
</style>
<g>
	<g>
		<defs>
			<rect id="SVGID_1_" x="-1" y="-14.2" width="90" height="74.2"/>
		</defs>
		<clipPath id="SVGID_2_">
			<use xlink:href="#SVGID_1_"  style="overflow:visible;"/>
		</clipPath>
		<path class="st0" d="M64.3,24.7c0.7,0.4,1.7,0.8,3.1,1.1c1.3,0.3,2.7,0.5,4.1,0.5c1.4,0,2.6-0.2,3.8-0.5c1.1-0.3,2.1-0.8,3-1.5
			c0.8-0.7,1.5-1.4,1.9-2.4c0.5-0.9,0.7-2,0.7-3.1c0-1.4-0.4-2.6-1.2-3.7c-0.8-1.1-2.2-1.9-4.1-2.6l-3.8-1.2c-1.4-0.5-2.4-1-2.9-1.5
			c-0.5-0.5-0.8-1.1-0.8-1.9c0-1.1,0.4-1.9,1.3-2.4c0.8-0.5,2-0.7,3.5-0.7c1.9,0,3.6,0.3,5.1,1c0.5,0.2,0.8,0.3,1,0.3
			c0.4,0,0.6-0.3,0.6-0.8V4c0-0.4-0.1-0.7-0.2-0.9c-0.2-0.2-0.4-0.4-0.8-0.7c-0.3-0.2-0.7-0.3-1.1-0.5c-0.5-0.2-1-0.3-1.5-0.4
			c-0.5-0.1-1.1-0.2-1.7-0.3c-0.6-0.1-1.2-0.1-1.8-0.1c-1.2,0-2.3,0.2-3.4,0.5c-1.1,0.3-2,0.8-2.8,1.4c-0.8,0.6-1.4,1.3-1.9,2.2
			c-0.5,0.9-0.7,1.8-0.7,3c0,1.4,0.4,2.7,1.3,3.9c0.9,1.2,2.3,2.1,4.3,2.7l3.9,1.2c1.3,0.4,2.2,0.9,2.7,1.4c0.5,0.5,0.7,1.1,0.7,1.9
			c0,1.1-0.5,1.9-1.4,2.5c-0.9,0.6-2.2,0.9-3.9,0.9c-1.1,0-2.1-0.1-3.2-0.3c-1.1-0.2-2-0.5-2.9-0.9c-0.3-0.1-0.5-0.2-0.7-0.3
			C64.2,21,64,21,63.9,21c-0.4,0-0.6,0.3-0.6,0.8v1.4c0,0.3,0.1,0.5,0.2,0.7C63.6,24.2,63.8,24.4,64.3,24.7"/>
		<path class="st0" d="M19.2,11.7c-1-0.1-1.9-0.2-2.8-0.2c-2.7,0-4.9,0.7-6.5,2.1c-1.6,1.4-2.4,3.2-2.4,5.5c0,2.1,0.7,3.9,2,5.1
			c1.3,1.3,3.1,1.9,5.3,1.9c3.1,0,5.8-1.2,7.8-3.7c0.3,0.6,0.6,1.1,0.8,1.6c0.3,0.5,0.6,0.9,1,1.2c0.2,0.2,0.5,0.4,0.8,0.4
			c0.2,0,0.5-0.1,0.7-0.2l1.7-1.1c0.3-0.3,0.5-0.5,0.5-0.8c0-0.2-0.1-0.4-0.2-0.6c-0.4-0.7-0.7-1.3-0.9-1.9
			c-0.2-0.6-0.3-1.4-0.3-2.4V9.9c0-2.9-0.7-5.1-2.2-6.6c-1.5-1.4-3.8-2.2-7-2.2c-1.5,0-2.8,0.2-4.2,0.5C12,2,10.9,2.4,9.9,2.9
			C9.6,3.1,9.3,3.2,9.2,3.4C9.1,3.6,9,3.9,9,4.4v1.3c0,0.6,0.2,0.8,0.6,0.8c0.1,0,0.2,0,0.4-0.1c0.2,0,0.5-0.2,0.9-0.3
			c0.9-0.4,1.9-0.7,2.9-0.9c1-0.2,1.9-0.3,2.9-0.3c2.1,0,3.5,0.4,4.3,1.2c0.8,0.8,1.3,2.2,1.3,4.3v2C21.2,12,20.2,11.9,19.2,11.7
			 M22.2,16.4c0,0.9-0.1,1.7-0.3,2.3c-0.2,0.6-0.5,1.2-0.9,1.7c-0.7,0.8-1.6,1.4-2.5,1.7c-1,0.3-1.9,0.5-2.8,0.5
			c-1.2,0-2.1-0.3-2.8-1c-0.7-0.6-1-1.6-1-2.8c0-1.3,0.4-2.4,1.3-3.1c0.9-0.7,2.2-1.1,4-1.1c0.8,0,1.6,0.1,2.5,0.2
			c0.9,0.1,1.7,0.3,2.4,0.4V16.4z"/>
		<path class="st0" d="M35.6,24.2c0.2,0.5,0.3,0.9,0.6,1c0.2,0.2,0.6,0.3,1,0.3h2.3c0.5,0,0.9-0.1,1.1-0.3c0.2-0.2,0.4-0.5,0.5-1.1
			L45.2,7l4.1,17.2c0.1,0.5,0.3,0.9,0.5,1.1c0.2,0.2,0.6,0.3,1.1,0.3h2.3c0.5,0,0.8-0.1,1-0.3c0.2-0.2,0.4-0.5,0.6-1l6.4-20.6
			c0.1-0.3,0.2-0.5,0.2-0.7c0-0.2,0-0.3,0-0.4c0-0.4-0.2-0.7-0.7-0.7h-2.5c-0.5,0-0.8,0.1-1,0.3c-0.2,0.2-0.4,0.5-0.5,1L52.1,21
			L47.9,3.2c-0.1-0.5-0.3-0.9-0.5-1c-0.2-0.2-0.6-0.3-1.1-0.3h-2.1c-0.5,0-0.9,0.1-1.1,0.3c-0.2,0.2-0.4,0.5-0.5,1l-4.2,17.6L34,3.2
			c-0.2-0.5-0.3-0.9-0.5-1c-0.2-0.2-0.6-0.3-1.1-0.3h-2.6c-0.4,0-0.7,0.2-0.7,0.7c0,0.2,0.1,0.5,0.2,1.1L35.6,24.2z"/>
		<path class="st1" d="M75.2,37.1c-9.8,4.2-20.5,6.2-30.3,6.2c-14.4,0-28.4-4-39.7-10.5c-1-0.6-1.7,0.4-0.9,1.2
			C14.9,43.4,28.7,49.1,44,49.1c11,0,23.7-3.4,32.5-9.9C77.9,38.1,76.7,36.5,75.2,37.1"/>
		<path class="st1" d="M69.7,33.5c-0.8,0.5-0.6,1.3,0.2,1.2c2.8-0.3,9.1-1.1,10.2,0.3c1.1,1.4-1.2,7.4-2.3,10
			c-0.3,0.8,0.4,1.1,1.1,0.5c4.7-3.9,5.9-12.2,5-13.4C82.9,30.9,74.7,29.9,69.7,33.5"/>
	</g>
</g>
<g>
	<g>
		<path class="st2" d="M415.2-6.7c2.6-2.7,6.2-4.4,10.3-4.4c5.3,0,10,3,12.5,7.4c2.2-1,4.5-1.5,7.1-1.5c9.6,0,17.5,7.9,17.5,17.6
			c0,9.7-7.8,17.6-17.5,17.6c-1.2,0-2.3-0.1-3.4-0.3c-2.2,3.9-6.4,6.5-11.1,6.5c-2,0-3.9-0.5-5.6-1.3c-2.2,5.2-7.4,8.9-13.4,8.9
			c-6.3,0-11.6-4-13.7-9.5c-0.9,0.2-1.8,0.3-2.8,0.3c-7.5,0-13.5-6.1-13.5-13.7c0-5.1,2.7-9.5,6.8-11.8c-0.8-1.9-1.3-4-1.3-6.2
			c0-8.7,7-15.7,15.7-15.7C407.8-12.9,412.3-10.5,415.2-6.7"/>
		<path class="st3" d="M393.2,16.5c-0.1,0.1,0,0.2,0,0.2c0.2,0.1,0.3,0.2,0.5,0.3c0.8,0.4,1.6,0.6,2.4,0.6c1.7,0,2.7-0.9,2.7-2.3v0
			c0-1.3-1.2-1.8-2.3-2.1l-0.1,0c-0.8-0.3-1.5-0.5-1.5-1v0c0-0.5,0.4-0.8,1.1-0.8c0.7,0,1.6,0.2,2.1,0.5c0,0,0.2,0.1,0.2-0.1
			c0-0.1,0.3-0.8,0.3-0.9c0-0.1,0-0.2-0.1-0.2c-0.6-0.4-1.5-0.6-2.4-0.6l-0.2,0c-1.5,0-2.6,0.9-2.6,2.2v0c0,1.4,1.2,1.8,2.3,2.2
			l0.2,0.1c0.8,0.2,1.5,0.5,1.5,1v0c0,0.5-0.4,0.9-1.2,0.9c-0.3,0-1.2,0-2.1-0.6c-0.1-0.1-0.2-0.1-0.3-0.2c0,0-0.2-0.1-0.2,0.1
			L393.2,16.5z"/>
		<path class="st3" d="M417.5,16.5c-0.1,0.1,0,0.2,0,0.2c0.2,0.1,0.3,0.2,0.5,0.3c0.8,0.4,1.6,0.6,2.4,0.6c1.7,0,2.7-0.9,2.7-2.3v0
			c0-1.3-1.2-1.8-2.3-2.1l-0.1,0c-0.8-0.3-1.5-0.5-1.5-1v0c0-0.5,0.4-0.8,1.1-0.8c0.7,0,1.6,0.2,2.1,0.5c0,0,0.2,0.1,0.2-0.1
			c0-0.1,0.3-0.8,0.3-0.9c0-0.1,0-0.2-0.1-0.2c-0.6-0.4-1.5-0.6-2.4-0.6l-0.2,0c-1.5,0-2.6,0.9-2.6,2.2v0c0,1.4,1.2,1.8,2.3,2.2
			l0.2,0.1c0.8,0.2,1.5,0.5,1.5,1v0c0,0.5-0.4,0.9-1.2,0.9c-0.3,0-1.2,0-2.1-0.6c-0.1-0.1-0.2-0.1-0.3-0.2c0,0-0.2-0.1-0.2,0.1
			L417.5,16.5z"/>
		<path class="st3" d="M435.5,12.2c-0.1-0.5-0.3-0.9-0.6-1.2c-0.3-0.3-0.6-0.6-1.1-0.8c-0.4-0.2-0.9-0.3-1.5-0.3
			c-0.6,0-1.1,0.1-1.5,0.3c-0.4,0.2-0.8,0.5-1.1,0.8c-0.3,0.3-0.5,0.7-0.6,1.2c-0.1,0.5-0.2,1-0.2,1.5c0,0.5,0.1,1,0.2,1.5
			c0.1,0.5,0.3,0.9,0.6,1.2c0.3,0.3,0.6,0.6,1.1,0.8c0.4,0.2,0.9,0.3,1.5,0.3c0.6,0,1.1-0.1,1.5-0.3c0.4-0.2,0.8-0.5,1.1-0.8
			c0.3-0.3,0.5-0.7,0.6-1.2c0.1-0.5,0.2-1,0.2-1.5C435.7,13.2,435.7,12.7,435.5,12.2 M434.1,13.7c0,0.8-0.1,1.4-0.4,1.9
			c-0.3,0.4-0.7,0.7-1.3,0.7c-0.6,0-1.1-0.2-1.3-0.7c-0.3-0.4-0.4-1.1-0.4-1.9c0-0.8,0.1-1.4,0.4-1.9c0.3-0.4,0.7-0.7,1.3-0.7
			c0.6,0,1.1,0.2,1.3,0.7C434,12.2,434.1,12.9,434.1,13.7"/>
		<path class="st4" d="M446.9,16c0-0.1-0.2-0.1-0.2-0.1c-0.2,0.1-0.4,0.1-0.6,0.2c-0.2,0-0.5,0.1-0.8,0.1c-0.7,0-1.2-0.2-1.6-0.6
			c-0.4-0.4-0.6-1-0.6-1.9c0-0.8,0.2-1.4,0.5-1.8c0.3-0.4,0.9-0.7,1.5-0.7c0.6,0,1,0.1,1.5,0.2c0,0,0.1,0,0.2-0.1
			c0.1-0.3,0.2-0.6,0.3-0.9c0-0.1-0.1-0.1-0.1-0.2c-0.2-0.1-0.6-0.2-0.9-0.2c-0.3,0-0.6-0.1-1-0.1c-0.6,0-1.1,0.1-1.5,0.3
			c-0.4,0.2-0.8,0.5-1.1,0.8c-0.3,0.3-0.5,0.7-0.7,1.2c-0.2,0.5-0.2,1-0.2,1.5c0,1.1,0.3,2.1,0.9,2.8c0.6,0.7,1.5,1,2.7,1
			c0.7,0,1.4-0.1,2-0.3c0,0,0.1,0,0.1-0.2L446.9,16z"/>
		<path class="st4" d="M454,11.9c-0.1-0.4-0.4-0.9-0.6-1.1c-0.3-0.3-0.6-0.6-0.9-0.7c-0.4-0.2-0.8-0.3-1.3-0.3
			c-0.6,0-1.1,0.1-1.5,0.3c-0.4,0.2-0.8,0.5-1.1,0.8c-0.3,0.3-0.5,0.8-0.6,1.2c-0.1,0.5-0.2,1-0.2,1.5c0,0.5,0.1,1,0.2,1.5
			c0.1,0.5,0.4,0.9,0.7,1.2c0.3,0.3,0.7,0.6,1.2,0.8c0.5,0.2,1,0.3,1.7,0.3c1.4,0,2.1-0.3,2.4-0.5c0.1,0,0.1-0.1,0-0.2l-0.3-0.9
			c0-0.1-0.2-0.1-0.2-0.1c-0.3,0.1-0.8,0.3-1.9,0.3c-0.7,0-1.3-0.2-1.6-0.6c-0.3-0.3-0.5-0.8-0.5-1.6l4.7,0c0,0,0.1,0,0.1-0.1
			C454.1,13.9,454.3,13,454,11.9 M449.3,12.9c0.1-0.4,0.2-0.8,0.4-1.1c0.3-0.4,0.7-0.7,1.3-0.7c0.6,0,1,0.2,1.3,0.7
			c0.2,0.3,0.3,0.7,0.3,1.1L449.3,12.9z"/>
		<path class="st4" d="M416.4,11.9c-0.1-0.4-0.4-0.9-0.6-1.1c-0.3-0.3-0.6-0.6-0.9-0.7c-0.4-0.2-0.8-0.3-1.3-0.3
			c-0.6,0-1.1,0.1-1.6,0.3c-0.4,0.2-0.8,0.5-1.1,0.8c-0.3,0.3-0.5,0.8-0.6,1.2c-0.1,0.5-0.2,1-0.2,1.5c0,0.5,0.1,1,0.2,1.5
			c0.1,0.5,0.4,0.9,0.7,1.2c0.3,0.3,0.7,0.6,1.2,0.8c0.5,0.2,1,0.3,1.7,0.3c1.4,0,2.1-0.3,2.4-0.5c0.1,0,0.1-0.1,0-0.2l-0.3-0.9
			c0-0.1-0.2-0.1-0.2-0.1c-0.3,0.1-0.8,0.3-1.9,0.3c-0.7,0-1.3-0.2-1.6-0.6c-0.3-0.3-0.5-0.8-0.5-1.6l4.7,0c0,0,0.1,0,0.1-0.1
			C416.6,13.9,416.7,13,416.4,11.9 M411.7,12.9c0.1-0.4,0.2-0.8,0.4-1.1c0.3-0.4,0.7-0.7,1.3-0.7s1,0.2,1.3,0.7
			c0.2,0.3,0.3,0.7,0.3,1.1L411.7,12.9z"/>
		<path class="st3" d="M403.5,12.7c-0.2,0-0.4,0-0.7,0c-0.4,0-0.8,0-1.2,0.1c-0.4,0.1-0.7,0.3-1,0.5c-0.3,0.2-0.5,0.5-0.7,0.8
			c-0.2,0.3-0.3,0.7-0.3,1.1c0,0.4,0.1,0.8,0.2,1.1c0.1,0.3,0.3,0.5,0.6,0.7c0.3,0.2,0.6,0.3,1,0.4c0.4,0.1,0.8,0.1,1.2,0.1
			c0.5,0,1,0,1.4-0.1c0.5-0.1,1-0.2,1.2-0.2c0.2,0,0.3-0.1,0.3-0.1c0.1,0,0.1-0.2,0.1-0.2l0-4.3c0-0.9-0.3-1.6-0.7-2.1
			c-0.5-0.4-1.2-0.6-2.2-0.6c-0.4,0-0.9,0-1.3,0.1c0,0-1,0.2-1.4,0.5c0,0-0.1,0.1,0,0.2l0.3,0.9c0,0.1,0.2,0.1,0.2,0.1s0,0,0.1,0
			c0.9-0.5,2-0.5,2-0.5c0.5,0,0.9,0.1,1.2,0.3c0.3,0.2,0.4,0.5,0.4,1.1v0.2C403.8,12.7,403.5,12.7,403.5,12.7 M401.6,16
			c-0.2-0.1-0.2-0.2-0.3-0.3c-0.1-0.1-0.1-0.3-0.1-0.6c0-0.4,0.1-0.7,0.4-0.9c0,0,0.4-0.4,1.4-0.3c0.7,0,1.3,0.1,1.3,0.1v2.1
			c0,0-0.6,0.1-1.3,0.2C402,16.3,401.6,16,401.6,16"/>
		<path class="st4" d="M441.3,10.3c0-0.1,0-0.2-0.1-0.2c-0.1,0-0.5-0.1-0.8-0.1c-0.6,0-0.9,0.1-1.2,0.2c-0.3,0.1-0.6,0.3-0.8,0.6
			l0-0.6c0-0.1-0.1-0.1-0.1-0.1h-1.2c-0.1,0-0.1,0.1-0.1,0.1v7c0,0.1,0.1,0.1,0.1,0.1h1.2c0.1,0,0.1-0.1,0.1-0.1v-3.5
			c0-0.5,0.1-0.9,0.2-1.2c0.1-0.3,0.2-0.5,0.4-0.7c0.2-0.2,0.4-0.3,0.6-0.3c0.2-0.1,0.5-0.1,0.6-0.1c0.2,0,0.5,0.1,0.5,0.1
			c0.1,0,0.1,0,0.2-0.1C441,11,441.3,10.4,441.3,10.3"/>
		<path class="st4" d="M429.7,7c-0.1,0-0.3-0.1-0.5-0.1c-0.2,0-0.4,0-0.6,0c-0.8,0-1.5,0.2-2,0.7c-0.5,0.5-0.8,1.2-0.9,2.1l-0.1,0.3
			h-1.1c0,0-0.1,0-0.2,0.1l-0.2,1c0,0.1,0,0.2,0.2,0.2h1l-1.1,5.9c-0.1,0.5-0.2,0.9-0.3,1.2c-0.1,0.3-0.2,0.5-0.3,0.7
			c-0.1,0.2-0.2,0.3-0.4,0.3c-0.2,0.1-0.3,0.1-0.6,0.1c-0.1,0-0.3,0-0.4,0c-0.1,0-0.2,0-0.3-0.1c0,0-0.1,0-0.2,0.1
			c0,0.1-0.3,0.9-0.3,1c0,0.1,0,0.2,0.1,0.2c0.1,0,0.2,0.1,0.4,0.1c0.3,0.1,0.5,0.1,0.7,0.1c0.4,0,0.8-0.1,1.2-0.2
			c0.3-0.1,0.6-0.3,0.9-0.6c0.3-0.3,0.4-0.6,0.6-1.1c0.2-0.4,0.3-1,0.4-1.6l1.1-6h1.5c0,0,0.1,0,0.2-0.1l0.2-1c0-0.1,0-0.2-0.2-0.2
			h-1.5c0,0,0.1-0.6,0.2-1.1c0.1-0.2,0.2-0.4,0.3-0.5c0.1-0.1,0.2-0.2,0.4-0.2c0.1,0,0.3-0.1,0.5-0.1c0.1,0,0.3,0,0.4,0
			c0.1,0,0.2,0,0.2,0.1c0.2,0,0.2,0,0.2-0.1l0.4-1C429.9,7.1,429.8,7,429.7,7"/>
		<path class="st4" d="M408.8,17.2c0,0.1-0.1,0.1-0.1,0.1h-1.2c-0.1,0-0.1-0.1-0.1-0.1v-10c0-0.1,0.1-0.1,0.1-0.1h1.2
			c0.1,0,0.1,0.1,0.1,0.1V17.2z"/>
	</g>
</g>
<g>
	<g>
		<g>
			<polygon class="st5" points="585.2,3.9 561.4,3.9 561.4,8.4 571,8.4 571,32.8 575.6,32.8 575.6,8.4 585.2,8.4 			"/>
			<path class="st5" d="M586.1,13.9l-0.4-2.5h-4.1v21.4h4.7V18.6c0.7-0.9,1.7-1.7,2.9-2.2c1.3-0.6,2.7-0.9,4.2-0.9h0.8V11h-0.8
				C590.4,11,588,12,586.1,13.9z"/>
			<g>
				<rect x="596.4" y="3.2" class="st5" width="4.9" height="4.9"/>
				<rect x="596.5" y="11.4" class="st5" width="4.7" height="21.4"/>
			</g>
			<path class="st5" d="M655.3,11c-2.6,0-4.9,1-7,3l-0.4-2.6h-4.1v21.4h4.7V18.9c1.9-2.3,3.9-3.5,6-3.5c2.6,0,3.9,1.4,3.9,4.3v13
				h4.7V19.3c0-2.3-0.7-4.3-2-5.9C659.5,11.8,657.6,11,655.3,11z"/>
			<path class="st5" d="M672.5,6.3l-8.4,8.3v1h3.8v11.8c0,3.8,2.2,5.8,6.3,5.8c1.4,0,2.6-0.3,3.8-0.9l0.3-0.1v-3.8h-0.9l-0.1,0
				c-1.8,0.8-3.3,0.7-4.2,0.3c-0.4-0.2-0.6-0.7-0.6-1.6V15.6h5.8v-4.1h-5.8V6.3z"/>
			<g>
				<rect x="681" y="3.2" class="st5" width="4.9" height="4.9"/>
				<rect x="681.2" y="11.4" class="st5" width="4.7" height="21.4"/>
			</g>
			<path class="st5" d="M703.5,22.7c-0.9-1-2-1.7-3.2-2l-3.5-0.9c-1.1-0.3-2.1-0.6-2.9-1c-0.9-0.4-1-0.9-1-1.3c0-0.6,0.3-1,1-1.4
				c0.7-0.4,1.9-0.7,3.5-0.7c1.6,0,3.3,0.4,5,1.1l0.1,0h0.9v-4.2l-0.3-0.1c-2-0.8-4.3-1.1-6.6-1.1c-2.4,0-4.4,0.6-5.8,1.9
				c-1.5,1.3-2.2,2.9-2.2,4.9c0,1.5,0.5,2.7,1.4,3.7c0.9,0.9,2,1.6,3.3,1.9l3.5,0.9c1.1,0.3,2.1,0.6,2.9,1c0.9,0.4,0.9,0.9,0.9,1
				c0,1-0.4,2.3-3.9,2.3c-2.5,0-4.8-0.6-6.8-1.8l-0.1-0.1h-0.9v4.3l0.3,0.1c2.2,1.2,4.8,1.9,7.5,1.9c2.8,0,4.9-0.6,6.3-1.8
				c1.5-1.2,2.2-2.7,2.2-4.5C704.9,25.2,704.4,23.8,703.5,22.7z"/>
			<g>
				<path class="st5" d="M631.8,11c-1.3,0-2.5,0.2-3.8,0.7c-1.2,0.5-2.3,1.2-3.3,2.1c-0.9,0.9-1.7,2.1-2.3,3.5
					c-0.6,1.4-0.9,3-0.9,4.9c0,1.6,0.2,3.1,0.7,4.4c0.4,1.3,1.1,2.5,2,3.5c0.9,1,2.1,1.7,3.5,2.3c1.4,0.5,3.1,0.8,5,0.8
					c0.7,0,1.5,0,2.2-0.1c0.7-0.1,1.4-0.2,2-0.3c0.6-0.1,1.2-0.3,1.7-0.4c0.5-0.1,0.8-0.3,1.1-0.4l-0.6-3.9
					c-0.6,0.2-1.4,0.5-2.3,0.7c-1,0.2-2.2,0.3-3.4,0.3c-2.1,0-3.8-0.5-4.9-1.4c-1.1-0.9-1.8-2.3-1.9-4l0-0.1h14.5
					c0-0.2,0-0.5,0.1-0.8c0-0.4,0-0.7,0-0.9c0-3.6-0.8-6.3-2.5-8.1C637.2,11.9,634.8,11,631.8,11z M636.4,20.1h-9.6l0-0.1
					c0.1-0.6,0.2-1.3,0.5-1.8c0.2-0.6,0.6-1.1,1-1.6c0.4-0.5,0.9-0.9,1.5-1.1c0.6-0.3,1.3-0.4,2.1-0.4c0.8,0,1.4,0.1,2,0.4
					c0.6,0.3,1,0.6,1.4,1.1c0.4,0.5,0.7,1,0.9,1.6C636.3,18.7,636.4,19.3,636.4,20.1L636.4,20.1z"/>
			</g>
			<g>
				<path class="st5" d="M615.9,10.9c-6.8,0-12.2,4.9-12.2,11.1V22c0,6.2,5.3,11,12.2,11c2.5,0,4.6-0.5,6.5-1.5c0,0,0,0-0.1,0
					c-0.1-0.1-0.2-0.1-0.2-0.2l0,0c-0.8-0.9-1.5-1.9-2-3.1c-1.2,0.7-2.5,1-3.9,1c-4.2,0-7.3-3.1-7.3-7.1v-0.1c0-4,3.1-7.1,7.1-7.1
					c1.6,0,2.9,0.4,4.2,1.1c0.6-1.4,1.4-2.6,2.4-3.6C620.5,11.4,618.4,10.9,615.9,10.9z"/>
			</g>
		</g>
		<g>
			<g>
				<polygon class="st5" points="527.4,30 522.7,25.4 529.7,18.4 522.8,11.5 527.4,6.8 539,18.4 				"/>
			</g>
			<g>
				<polygon class="st5" points="534.5,37.2 529.9,32.5 541.5,20.9 553.1,32.5 548.4,37.1 541.5,30.2 				"/>
			</g>
			<g>
				<polygon class="st5" points="541.5,15.9 529.9,4.4 534.5,-0.3 541.5,6.7 548.4,-0.3 553.1,4.3 				"/>
			</g>
		</g>
	</g>
	<g>
		<path class="st5" d="M706,12.5h-0.3v-2.2h-0.8v-0.3h1.9v0.3H706V12.5z"/>
		<path class="st5" d="M708.2,12.5l-0.8-2.2h0c0,0.2,0,0.4,0,0.6v1.6h-0.3v-2.5h0.4l0.8,2h0l0.8-2h0.4v2.5h-0.3v-1.6
			c0-0.2,0-0.4,0-0.6h0l-0.8,2.2H708.2z"/>
	</g>
</g>
<g>
	<g id="UiPath_logo_1_">
		<g>
			<path class="st6" d="M919.7,35.7V20.2c0-6.2-1.9-10.2-7.8-10.2c-3.4,0-5.8,2.1-7.9,4.1c-1.7,1.8-3.6,3.8-5.7,6.7V25
				c1.5-1.7,3.8-4.3,5.9-6.6c2.1-2,3.5-3.1,5.7-3.1c2.8,0,3.9,1.5,3.9,5.6v14.7H919.7z"/>
			<path class="st6" d="M898.3,35.7h5.9V20.8c-1.6,1.7-4.4,4.8-5.9,6.6V35.7z"/>
			<path class="st6" d="M819.2,44.5V-7.7c0-0.9-0.7-1.7-1.7-1.7h-52.1c-0.9,0-1.7,0.7-1.7,1.7v52.3c0,0.9,0.7,1.7,1.7,1.7h52.1
				C818.5,46.2,819.2,45.5,819.2,44.5z M817,44h-51.1V-7.1H817V44z"/>
			<path class="st6" d="M784.9,35.9c7.7,0,12.5-4.3,12.5-15.2V2.1h-5.6v19.1c0,7.2-2.8,9.6-6.9,9.6c-4,0-6.7-2.4-6.7-9.6V2.1h-5.9
				v18.6C772.4,31.6,777.3,35.9,784.9,35.9z"/>
			<path class="st6" d="M808,6.6c2.1,0,3.6-1.4,3.6-3.3c0-2-1.5-3.3-3.6-3.3c-2.1,0-3.6,1.4-3.6,3.3C804.4,5.2,805.9,6.6,808,6.6z"
				/>
			<rect x="805.1" y="11" class="st6" width="5.8" height="24.9"/>
			<path class="st6" d="M826.5,1.1v6.8c1.9-2.3,3.6-4.4,5-5.5l-0.2-1.3H826.5z"/>
			<path class="st6" d="M832.3,24c5,4.8,15.8,3.1,16.8-8.9c1.1-13.2-7.6-15.5-12.1-14.3c-1.6,0.4-3.2,1.5-4.7,2.9
				c-2.3,2.2-4.4,5-5.8,7.2v4.4c1.2-1.9,3.1-4.6,5.8-7.2c0.5-0.5,1.1-1,1.7-1.5c4.3-3.3,9.7-1,9,7.5c-0.6,8.1-6.4,9.4-10.8,5.5
				c0-4.1,0-7.2,0-9.6l-5.8,7.9v17.8h5.8V24z"/>
			<path class="st6" d="M867.8,33h0.2l0.5,2.7h4.7V21.1c0-6.9-3-10.7-9.2-10.7c-3.9,0-7.4,1.5-10.1,3.2l2.1,3.9
				c2.2-1.3,4.5-2.4,6.9-2.4c3.3,0,4.4,2.2,4.5,4.8c-10.1,1.1-14.5,3.9-14.5,9.2c0,4.3,3,7.2,7.3,7.2C863,36.3,865.6,34.8,867.8,33z
				 M858.4,28.6c0-2.5,2.2-4.2,8.9-5.1v5.5c-1.8,1.7-3.4,2.7-5.4,2.7C859.9,31.8,858.4,30.8,858.4,28.6z"/>
			<path class="st6" d="M893.9,35.4l-1-4.3c-0.7,0.3-1.7,0.6-2.6,0.6c-2.4,0-3.5-1.4-3.5-4.3V15.6h6.3V11h-6.3V4.2H882l-0.7,6.7
				l-3.8,0.3v4.3h3.5v11.8c0,5.3,2.1,9,7.9,9C890.8,36.3,892.5,35.9,893.9,35.4z"/>
		</g>
	</g>
	<path class="st6" d="M904.2,11.9V9.3V1.1h-5.9v16.2V18C898.7,17.5,901,14.6,904.2,11.9z"/>
</g>
<g>
	<g>
		<path class="st7" d="M988.6,18.1v-0.4c0-1.4-1.3-2.5-3-2.5c-1.6,0-2.6,0.9-2.6,2.1c0,0.6,0.3,1.2,0.7,1.5c0.7,0.6,0.8,0.6,4,1.6
			c5.3,1.6,7.4,3.7,7.4,7.6c0,4.6-3.7,7.7-9.2,7.7c-5.6,0-9.1-2.9-9.3-7.8h6.2c0.3,2,1.2,3,3.1,3c1.5,0,2.6-0.9,2.6-2.3
			c0-1.4-0.9-2.1-4.4-3.2c-5.1-1.5-7.4-3.8-7.4-7.6c0-4.5,3.6-7.5,9.2-7.5c5.4,0,8.7,2.9,8.8,7.7H988.6z"/>
		<path class="st7" d="M1003.6,24.6c0.6,3.3,3,5.3,6.2,5.3c2.4,0,4.4-1.2,5.5-3.1l6,1.6c-2.4,4.6-6.5,7.2-11.5,7.2
			c-7.5,0-12.9-5.3-12.9-12.7c0-7.4,5.2-12.6,12.5-12.6c7.6,0,12.8,5.3,12.8,12.9l-0.1,1.3H1003.6z M1015.5,20.9c-0.6-3.1-2.8-5-6-5
			c-3.1,0-5.2,1.8-5.8,5H1015.5z"/>
		<path class="st7" d="M1031.5,11.2v3.5c0.7-1.7,1.1-2.5,2.1-3.2c1-0.7,2.4-1.1,3.8-1.1c0.2,0,0.4,0,0.8,0.1v6.6
			c-0.5-0.1-1-0.1-1.4-0.1c-1.8,0-3.4,0.8-4.3,2.1c-0.8,1.1-1,2.1-1,4.3v11.4h-6.5V11.2H1031.5z"/>
		<path class="st7" d="M1064.5,11.2l-8.6,23.7h-6.7l-8.5-23.7h6.8l5.2,14.1l5.3-14.1H1064.5z"/>
		<path class="st7" d="M1073.9,4.5c0,2-1.5,3.5-3.6,3.5c-2.1,0-3.6-1.5-3.6-3.6c0-2.1,1.5-3.6,3.6-3.6
			C1072.4,0.8,1073.9,2.4,1073.9,4.5z M1073.5,34.9h-6.5V11.2h6.5V34.9z"/>
		<path class="st7" d="M1099.5,32.2c-2.7,2.5-5.5,3.5-9.1,3.5c-7.2,0-12.5-5.3-12.5-12.5c0-7.5,5.2-12.8,12.6-12.8
			c3.5,0,6.4,1.2,9.5,3.9l-4.3,3.9c-1.4-1.4-3-2.1-4.9-2.1c-3.6,0-6.2,2.9-6.2,6.8c0,4,2.7,7,6.5,7c1.7,0,2.9-0.5,4.6-2L1099.5,32.2
			z"/>
		<path class="st7" d="M1107.2,24.6c0.6,3.3,3,5.3,6.2,5.3c2.4,0,4.5-1.2,5.5-3.1l6,1.6c-2.4,4.6-6.5,7.2-11.5,7.2
			c-7.5,0-12.9-5.3-12.9-12.7c0-7.4,5.2-12.6,12.5-12.6c7.6,0,12.8,5.3,12.8,12.9l-0.1,1.3H1107.2z M1119.1,20.9c-0.6-3.1-2.8-5-6-5
			c-3.1,0-5.2,1.8-5.8,5H1119.1z"/>
		<path class="st7" d="M1135.2,11.2v2.9c1.7-2.7,3.5-3.7,6.4-3.7c2.3,0,4.4,0.8,5.8,2.2c1.5,1.5,2.1,3.4,2.1,7.3v15h-6.5V20.2
			c0-1.3-0.2-2.1-0.6-2.8c-0.6-1-1.8-1.6-3.1-1.6c-2.5,0-4.2,1.9-4.2,4.7v14.4h-6.5V11.2H1135.2z"/>
		<path class="st7" d="M1220,11.2l-7.7,23.7h-6.8l-4.1-14.5l-4.2,14.5h-6.9l-7.6-23.7h6.6l4.8,14.4l4.1-14.4h6.2l4.2,14.4l4.8-14.4
			H1220z"/>
		<path class="st7" d="M1216.2,34.8h-0.7v-2.4h-0.7v-0.5h2.1v0.5h-0.7V34.8z M1218,34.8h-0.7v-2.9h0.7l0.9,1.7l0.9-1.7h0.7v2.9h-0.7
			v-1.7l-0.9,1.8l-0.9-1.8V34.8z"/>
		<path class="st8" d="M1166.1,10.3c-6.8,0.8-12.2,6.4-12.6,13.3c-0.3,4.7,1.8,9,5.1,11.8c1.2,1,2.9,0.9,4-0.2
			c1.3-1.3,3.1-2.1,5-2.1c2,0,3.8,0.8,5,2.1c1.1,1.1,2.8,1.2,4,0.2c3.1-2.6,5.1-6.5,5.1-10.9C1181.9,16,1174.6,9.3,1166.1,10.3z
			 M1167.7,31.5c-3.9,0-7.1-3.2-7.1-7.1c0-3.9,3.2-7.1,7.1-7.1c3.9,0,7.1,3.2,7.1,7.1C1174.8,28.3,1171.6,31.5,1167.7,31.5z"/>
	</g>
</g>
<g>
	<path class="st9" d="M-238.4,33.1l-1.3,3.7h-0.1c-0.2-0.9-0.6-2.1-1.3-3.7l-7.1-17.8h-6.9v28.3h4.6V26.2c0-1.1,0-2.4-0.1-3.9
		c0-0.8-0.1-1.4-0.1-1.8h0.1c0.2,1.1,0.5,1.9,0.6,2.4l8.5,20.7h3.2l8.4-20.8c0.2-0.5,0.4-1.4,0.6-2.2h0.1c-0.1,2.1-0.2,3.9-0.2,5.1
		v18h4.9V15.3h-6.6L-238.4,33.1"/>
	<polyline class="st9" points="-220,43.6 -215.2,43.6 -215.2,28.3 -215.2,23.4 -220,23.4 -220,33.3 -220,43.6 	"/>
	<path class="st9" d="M-217.5,14.7c-0.8,0-1.5,0.3-2,0.8c-0.6,0.5-0.8,1.2-0.8,2c0,0.8,0.3,1.4,0.8,2c0.6,0.5,1.2,0.8,2,0.8
		c0.8,0,1.5-0.3,2-0.8c0.6-0.5,0.9-1.2,0.9-2c0-0.8-0.3-1.4-0.8-2C-216,15-216.7,14.7-217.5,14.7"/>
	<path class="st9" d="M-198.3,23.2c-0.9-0.2-1.8-0.3-2.7-0.3c-2.2,0-4.1,0.5-5.8,1.4c-1.7,0.9-2.9,2.3-3.8,3.9
		c-0.9,1.7-1.3,3.6-1.3,5.8c0,1.9,0.4,3.7,1.3,5.2c0.8,1.6,2,2.8,3.6,3.6c1.5,0.8,3.3,1.3,5.2,1.3c2.3,0,4.2-0.5,5.7-1.3l0.1,0v-4.4
		l-0.2,0.1c-0.7,0.5-1.5,0.9-2.3,1.2c-0.8,0.3-1.6,0.4-2.3,0.4c-1.9,0-3.4-0.6-4.5-1.7c-1.1-1.2-1.6-2.8-1.6-4.8
		c0-2.1,0.6-3.7,1.7-5c1.1-1.2,2.6-1.8,4.5-1.8c1.6,0,3.1,0.5,4.5,1.6l0.2,0.1v-4.6l-0.1,0C-196.7,23.6-197.4,23.3-198.3,23.2"/>
	<path class="st9" d="M-182.7,23c-1.2,0-2.3,0.4-3.2,1.1c-0.8,0.7-1.4,1.6-1.8,2.7h-0.1v-3.5h-4.8v20.3h4.8V33.3
		c0-1.8,0.4-3.2,1.2-4.3c0.8-1.1,1.8-1.6,3.1-1.6c0.4,0,0.9,0.1,1.4,0.2c0.5,0.1,0.9,0.3,1.1,0.5l0.2,0.1v-4.8l-0.1,0
		C-181.2,23.1-181.9,23-182.7,23"/>
	<path class="st9" d="M-166,38.5c-0.9,1.1-2.2,1.7-4,1.7c-1.7,0-3.1-0.6-4.1-1.7c-1-1.2-1.5-2.8-1.5-4.9c0-2.2,0.5-3.8,1.5-5
		c1-1.2,2.3-1.8,4.1-1.8c1.7,0,3,0.6,4,1.7c1,1.1,1.4,2.8,1.4,5C-164.6,35.7-165.1,37.4-166,38.5 M-169.7,22.9c-3.3,0-6,1-7.9,2.9
		c-1.9,1.9-2.8,4.6-2.8,8c0,3.2,0.9,5.7,2.8,7.6c1.8,1.9,4.4,2.8,7.5,2.8c3.2,0,5.8-1,7.7-3c1.9-2,2.8-4.6,2.8-7.9
		c0-3.2-0.9-5.8-2.7-7.7C-164.1,23.8-166.6,22.9-169.7,22.9"/>
	<path class="st9" d="M-149.1,31.7c-1.5-0.6-2.5-1.1-2.9-1.5c-0.4-0.4-0.6-0.9-0.6-1.6c0-0.6,0.2-1.1,0.7-1.4c0.5-0.4,1.2-0.6,2-0.6
		c0.8,0,1.6,0.1,2.4,0.4c0.8,0.2,1.5,0.6,2.1,1l0.2,0.1v-4.4l-0.1,0c-0.6-0.2-1.3-0.4-2.2-0.6c-0.9-0.2-1.7-0.2-2.4-0.2
		c-2.3,0-4.1,0.6-5.6,1.7c-1.4,1.2-2.2,2.7-2.2,4.5c0,1,0.2,1.8,0.5,2.5c0.3,0.7,0.8,1.4,1.4,1.9c0.6,0.5,1.6,1.1,2.9,1.6
		c1.1,0.5,1.9,0.8,2.4,1.1c0.5,0.3,0.9,0.6,1.1,0.9c0.2,0.3,0.3,0.7,0.3,1.2c0,1.4-1,2-3.1,2c-0.8,0-1.7-0.2-2.6-0.5
		c-1-0.3-1.9-0.8-2.7-1.4l-0.2-0.1V43l0.1,0c0.7,0.3,1.5,0.6,2.6,0.8c1,0.2,1.9,0.3,2.7,0.3c2.5,0,4.4-0.6,5.9-1.7
		c1.5-1.2,2.2-2.7,2.2-4.6c0-1.4-0.4-2.5-1.2-3.5C-145.9,33.4-147.2,32.5-149.1,31.7"/>
	<path class="st9" d="M-127.3,38.5c-0.9,1.1-2.2,1.7-4,1.7c-1.7,0-3.1-0.6-4.1-1.7c-1-1.2-1.5-2.8-1.5-4.9c0-2.2,0.5-3.8,1.5-5
		c1-1.2,2.3-1.8,4.1-1.8c1.7,0,3,0.6,4,1.7c1,1.1,1.4,2.8,1.4,5C-126,35.7-126.4,37.4-127.3,38.5 M-131.1,22.9c-3.3,0-6,1-7.9,2.9
		c-1.9,1.9-2.8,4.6-2.8,8c0,3.2,0.9,5.7,2.8,7.6c1.8,1.9,4.4,2.8,7.5,2.8c3.2,0,5.8-1,7.7-3c1.9-2,2.8-4.6,2.8-7.9
		c0-3.2-0.9-5.8-2.7-7.7C-125.5,23.8-128,22.9-131.1,22.9"/>
	<path class="st9" d="M-95.7,27.2v-3.9h-4.8v-6.1l-0.2,0l-4.5,1.4l-0.1,0v4.6h-7.1v-2.6c0-1.2,0.3-2.1,0.8-2.7
		c0.5-0.6,1.3-0.9,2.2-0.9c0.7,0,1.4,0.2,2.1,0.5l0.2,0.1v-4.1l-0.1,0c-0.7-0.2-1.6-0.4-2.7-0.4c-1.4,0-2.7,0.3-3.8,0.9
		c-1.1,0.6-2,1.5-2.6,2.6c-0.6,1.1-0.9,2.4-0.9,3.8v2.8h-3.4v3.9h3.4v16.4h4.8V27.2h7.1v10.4c0,4.3,2,6.5,6,6.5c0.7,0,1.3-0.1,2-0.2
		c0.7-0.2,1.2-0.3,1.5-0.5l0.1,0v-3.9l-0.2,0.1c-0.3,0.2-0.6,0.3-1,0.4c-0.4,0.1-0.7,0.2-1,0.2c-0.9,0-1.6-0.3-2.1-0.7
		c-0.4-0.5-0.7-1.4-0.7-2.6v-9.6H-95.7"/>
	<polyline class="st10" points="-293.9,28.3 -316.3,28.3 -316.3,5.9 -293.9,5.9 -293.9,28.3 	"/>
	<polyline class="st11" points="-269.2,28.3 -291.6,28.3 -291.6,5.9 -269.2,5.9 -269.2,28.3 	"/>
	<polyline class="st12" points="-293.9,53.1 -316.3,53.1 -316.3,30.7 -293.9,30.7 -293.9,53.1 	"/>
	<polyline class="st13" points="-269.2,53.1 -291.6,53.1 -291.6,30.7 -269.2,30.7 -269.2,53.1 	"/>
</g>
</svg>
