<?xml version="1.0" encoding="utf-8"?>
<!-- Generator: Adobe Illustrator 25.2.1, SVG Export Plug-In . SVG Version: 6.00 Build 0)  -->
<svg version="1.1" id="Layer_1" xmlns="http://www.w3.org/2000/svg" xmlns:xlink="http://www.w3.org/1999/xlink" x="0px" y="0px"
	 viewBox="0 0 226 51" style="enable-background:new 0 0 226 51;" xml:space="preserve">
<style type="text/css">
	.st0{clip-path:url(#SVGID_2_);fill:#262F3E;}
	.st1{clip-path:url(#SVGID_2_);fill:#F7971D;}
	.st2{fill:#0F9BD7;}
	.st3{fill:#FFFFFF;}
	.st4{fill-rule:evenodd;clip-rule:evenodd;fill:#FFFFFF;}
	.st5{fill:#005289;}
	.st6{fill:#0098D8;}
	.st7{fill:#2B4E4E;}
	.st8{fill:#80B7A2;}
	.st9{fill:#777471;}
	.st10{fill:#E34C22;}
	.st11{fill:#6DBB29;}
	.st12{fill:#599DD5;}
	.st13{fill:#F3BF00;}
</style>
<g>
	<g>
		<defs>
			<rect id="SVGID_1_" x="283.1" y="-25.8" width="100" height="82.4"/>
		</defs>
		<clipPath id="SVGID_2_">
			<use xlink:href="#SVGID_1_"  style="overflow:visible;"/>
		</clipPath>
		<path class="st0" d="M355.6,17.4c0.8,0.4,1.9,0.8,3.4,1.2c1.5,0.3,3,0.5,4.6,0.5c1.5,0,2.9-0.2,4.2-0.6c1.3-0.4,2.4-0.9,3.3-1.7
			c0.9-0.7,1.6-1.6,2.2-2.6c0.5-1,0.8-2.2,0.8-3.4c0-1.6-0.5-2.9-1.4-4.1c-0.9-1.2-2.4-2.2-4.6-2.8l-4.2-1.3
			c-1.6-0.5-2.7-1.1-3.3-1.6s-0.9-1.3-0.9-2.1c0-1.2,0.5-2.1,1.4-2.6c0.9-0.6,2.2-0.8,3.9-0.8c2.1,0,4,0.4,5.7,1.1
			c0.5,0.2,0.9,0.4,1.1,0.4c0.4,0,0.7-0.3,0.7-0.9v-1.4c0-0.4-0.1-0.7-0.3-1c-0.2-0.2-0.5-0.5-0.9-0.7c-0.3-0.2-0.7-0.3-1.2-0.5
			c-0.5-0.2-1.1-0.3-1.7-0.5c-0.6-0.1-1.2-0.3-1.9-0.3c-0.7-0.1-1.3-0.1-2-0.1c-1.3,0-2.6,0.2-3.7,0.5c-1.2,0.3-2.2,0.9-3.1,1.5
			c-0.9,0.7-1.6,1.5-2.1,2.4c-0.5,1-0.8,2-0.8,3.3c0,1.6,0.5,3,1.5,4.3c1,1.3,2.6,2.3,4.7,3l4.3,1.3c1.5,0.5,2.4,1,3,1.6
			c0.5,0.6,0.8,1.2,0.8,2.1c0,1.2-0.5,2.1-1.5,2.8c-1,0.7-2.5,1-4.3,1c-1.2,0-2.3-0.1-3.5-0.4c-1.2-0.2-2.3-0.6-3.3-1
			c-0.3-0.1-0.6-0.2-0.8-0.3c-0.2-0.1-0.4-0.1-0.5-0.1c-0.4,0-0.7,0.3-0.7,0.9v1.5c0,0.3,0.1,0.6,0.2,0.8
			C354.8,16.9,355.1,17.1,355.6,17.4"/>
		<path class="st0" d="M305.5,3c-1.1-0.2-2.1-0.2-3.1-0.2c-3,0-5.5,0.8-7.3,2.3c-1.8,1.5-2.7,3.6-2.7,6.1c0,2.4,0.7,4.3,2.2,5.7
			c1.4,1.4,3.4,2.1,5.9,2.1c3.5,0,6.4-1.4,8.7-4.1c0.3,0.7,0.6,1.2,0.9,1.7c0.3,0.5,0.6,1,1.1,1.4c0.3,0.3,0.6,0.4,0.9,0.4
			c0.2,0,0.5-0.1,0.8-0.3l1.9-1.2c0.4-0.3,0.6-0.6,0.6-0.9c0-0.2-0.1-0.4-0.2-0.7c-0.4-0.8-0.7-1.5-1-2.1c-0.2-0.7-0.3-1.5-0.3-2.6
			V1c0-3.2-0.8-5.7-2.5-7.3c-1.6-1.6-4.2-2.4-7.7-2.4c-1.6,0-3.2,0.2-4.6,0.6c-1.5,0.4-2.7,0.8-3.7,1.3c-0.4,0.2-0.7,0.4-0.8,0.6
			c-0.1,0.2-0.2,0.6-0.2,1v1.4c0,0.6,0.2,0.9,0.6,0.9c0.1,0,0.3,0,0.5-0.1c0.2-0.1,0.6-0.2,1-0.4c1-0.4,2.1-0.8,3.2-1
			c1.1-0.3,2.2-0.4,3.2-0.4c2.3,0,3.9,0.5,4.8,1.4c0.9,0.9,1.4,2.5,1.4,4.7v2.2C307.8,3.4,306.6,3.2,305.5,3 M308.9,8.2
			c0,1-0.1,1.9-0.3,2.6c-0.2,0.7-0.5,1.3-1,1.9c-0.8,0.9-1.7,1.5-2.8,1.9c-1.1,0.4-2.1,0.5-3.1,0.5c-1.3,0-2.4-0.4-3.1-1.1
			c-0.7-0.7-1.1-1.8-1.1-3.1c0-1.5,0.5-2.6,1.5-3.4c1-0.8,2.4-1.2,4.4-1.2c0.9,0,1.8,0.1,2.8,0.2c0.9,0.1,1.9,0.3,2.7,0.5V8.2z"/>
		<path class="st0" d="M323.8,16.9c0.2,0.6,0.4,1,0.6,1.2c0.2,0.2,0.6,0.3,1.1,0.3h2.5c0.6,0,0.9-0.1,1.2-0.3
			c0.2-0.2,0.4-0.6,0.6-1.2l4.6-19.1l4.6,19.1c0.1,0.6,0.3,1,0.6,1.2c0.2,0.2,0.6,0.3,1.2,0.3h2.5c0.5,0,0.9-0.1,1.1-0.3
			c0.2-0.2,0.4-0.6,0.6-1.2L352.2-6c0.1-0.3,0.2-0.6,0.2-0.7c0-0.2,0-0.3,0-0.5c0-0.5-0.2-0.7-0.7-0.7H349c-0.6,0-0.9,0.1-1.2,0.3
			c-0.2,0.2-0.4,0.6-0.6,1.2l-5.1,19.8l-4.7-19.8c-0.1-0.6-0.3-1-0.6-1.2c-0.2-0.2-0.6-0.3-1.2-0.3h-2.4c-0.6,0-1,0.1-1.2,0.3
			c-0.2,0.2-0.4,0.6-0.6,1.2L327,13.1l-5-19.6c-0.2-0.6-0.4-1-0.6-1.2c-0.2-0.2-0.6-0.3-1.2-0.3h-2.9c-0.5,0-0.7,0.2-0.7,0.7
			c0,0.2,0.1,0.6,0.3,1.2L323.8,16.9z"/>
		<path class="st1" d="M367.8,31.3c-10.9,4.6-22.8,6.9-33.6,6.9c-16,0-31.5-4.4-44.1-11.7c-1.1-0.6-1.9,0.5-1,1.3
			c11.6,10.5,27,16.8,44,16.8c12.2,0,26.3-3.8,36.1-11C370.8,32.3,369.4,30.6,367.8,31.3"/>
		<path class="st1" d="M361.6,27.2c-0.9,0.6-0.7,1.4,0.2,1.3c3.1-0.4,10.1-1.2,11.4,0.4c1.2,1.6-1.4,8.2-2.6,11.1
			c-0.4,0.9,0.4,1.3,1.2,0.6c5.2-4.4,6.6-13.5,5.5-14.9C376.4,24.4,367.2,23.3,361.6,27.2"/>
	</g>
</g>
<g>
	<g>
		<path class="st2" d="M486.2-6.7c2.6-2.7,6.2-4.4,10.3-4.4c5.3,0,10,3,12.5,7.4c2.2-1,4.5-1.5,7.1-1.5c9.6,0,17.5,7.9,17.5,17.6
			c0,9.7-7.8,17.6-17.5,17.6c-1.2,0-2.3-0.1-3.4-0.3c-2.2,3.9-6.4,6.5-11.1,6.5c-2,0-3.9-0.5-5.6-1.3c-2.2,5.2-7.4,8.9-13.4,8.9
			c-6.3,0-11.6-4-13.7-9.5c-0.9,0.2-1.8,0.3-2.8,0.3c-7.5,0-13.5-6.1-13.5-13.7c0-5.1,2.7-9.5,6.8-11.8c-0.8-1.9-1.3-4-1.3-6.2
			c0-8.7,7-15.7,15.7-15.7C478.8-12.9,483.3-10.5,486.2-6.7"/>
		<path class="st3" d="M464.2,16.5c-0.1,0.1,0,0.2,0,0.2c0.2,0.1,0.3,0.2,0.5,0.3c0.8,0.4,1.6,0.6,2.4,0.6c1.7,0,2.7-0.9,2.7-2.3v0
			c0-1.3-1.2-1.8-2.3-2.1l-0.1,0c-0.8-0.3-1.5-0.5-1.5-1v0c0-0.5,0.4-0.8,1.1-0.8c0.7,0,1.6,0.2,2.1,0.5c0,0,0.2,0.1,0.2-0.1
			c0-0.1,0.3-0.8,0.3-0.9c0-0.1,0-0.2-0.1-0.2c-0.6-0.4-1.5-0.6-2.4-0.6l-0.2,0c-1.5,0-2.6,0.9-2.6,2.2v0c0,1.4,1.2,1.8,2.3,2.2
			l0.2,0.1c0.8,0.2,1.5,0.5,1.5,1v0c0,0.5-0.4,0.9-1.2,0.9c-0.3,0-1.2,0-2.1-0.6c-0.1-0.1-0.2-0.1-0.3-0.2c0,0-0.2-0.1-0.2,0.1
			L464.2,16.5z"/>
		<path class="st3" d="M488.5,16.5c-0.1,0.1,0,0.2,0,0.2c0.2,0.1,0.3,0.2,0.5,0.3c0.8,0.4,1.6,0.6,2.4,0.6c1.7,0,2.7-0.9,2.7-2.3v0
			c0-1.3-1.2-1.8-2.3-2.1l-0.1,0c-0.8-0.3-1.5-0.5-1.5-1v0c0-0.5,0.4-0.8,1.1-0.8c0.7,0,1.6,0.2,2.1,0.5c0,0,0.2,0.1,0.2-0.1
			c0-0.1,0.3-0.8,0.3-0.9c0-0.1,0-0.2-0.1-0.2c-0.6-0.4-1.5-0.6-2.4-0.6l-0.2,0c-1.5,0-2.6,0.9-2.6,2.2v0c0,1.4,1.2,1.8,2.3,2.2
			l0.2,0.1c0.8,0.2,1.5,0.5,1.5,1v0c0,0.5-0.4,0.9-1.2,0.9c-0.3,0-1.2,0-2.1-0.6c-0.1-0.1-0.2-0.1-0.3-0.2c0,0-0.2-0.1-0.2,0.1
			L488.5,16.5z"/>
		<path class="st3" d="M506.5,12.2c-0.1-0.5-0.3-0.9-0.6-1.2c-0.3-0.3-0.6-0.6-1.1-0.8c-0.4-0.2-0.9-0.3-1.5-0.3
			c-0.6,0-1.1,0.1-1.5,0.3c-0.4,0.2-0.8,0.5-1.1,0.8c-0.3,0.3-0.5,0.7-0.6,1.2c-0.1,0.5-0.2,1-0.2,1.5c0,0.5,0.1,1,0.2,1.5
			c0.1,0.5,0.3,0.9,0.6,1.2c0.3,0.3,0.6,0.6,1.1,0.8c0.4,0.2,0.9,0.3,1.5,0.3c0.6,0,1.1-0.1,1.5-0.3c0.4-0.2,0.8-0.5,1.1-0.8
			c0.3-0.3,0.5-0.7,0.6-1.2c0.1-0.5,0.2-1,0.2-1.5C506.7,13.2,506.7,12.7,506.5,12.2 M505.1,13.7c0,0.8-0.1,1.4-0.4,1.9
			c-0.3,0.4-0.7,0.7-1.3,0.7c-0.6,0-1.1-0.2-1.3-0.7c-0.3-0.4-0.4-1.1-0.4-1.9c0-0.8,0.1-1.4,0.4-1.9c0.3-0.4,0.7-0.7,1.3-0.7
			c0.6,0,1.1,0.2,1.3,0.7C505,12.2,505.1,12.9,505.1,13.7"/>
		<path class="st4" d="M517.9,16c0-0.1-0.2-0.1-0.2-0.1c-0.2,0.1-0.4,0.1-0.6,0.2c-0.2,0-0.5,0.1-0.8,0.1c-0.7,0-1.2-0.2-1.6-0.6
			c-0.4-0.4-0.6-1-0.6-1.9c0-0.8,0.2-1.4,0.5-1.8c0.3-0.4,0.9-0.7,1.5-0.7c0.6,0,1,0.1,1.5,0.2c0,0,0.1,0,0.2-0.1
			c0.1-0.3,0.2-0.6,0.3-0.9c0-0.1-0.1-0.1-0.1-0.2c-0.2-0.1-0.6-0.2-0.9-0.2c-0.3,0-0.6-0.1-1-0.1c-0.6,0-1.1,0.1-1.5,0.3
			c-0.4,0.2-0.8,0.5-1.1,0.8c-0.3,0.3-0.5,0.7-0.7,1.2c-0.2,0.5-0.2,1-0.2,1.5c0,1.1,0.3,2.1,0.9,2.8c0.6,0.7,1.5,1,2.7,1
			c0.7,0,1.4-0.1,2-0.3c0,0,0.1,0,0.1-0.2L517.9,16z"/>
		<path class="st4" d="M525,11.9c-0.1-0.4-0.4-0.9-0.6-1.1c-0.3-0.3-0.6-0.6-0.9-0.7c-0.4-0.2-0.8-0.3-1.3-0.3
			c-0.6,0-1.1,0.1-1.5,0.3c-0.4,0.2-0.8,0.5-1.1,0.8c-0.3,0.3-0.5,0.8-0.6,1.2c-0.1,0.5-0.2,1-0.2,1.5c0,0.5,0.1,1,0.2,1.5
			c0.1,0.5,0.4,0.9,0.7,1.2c0.3,0.3,0.7,0.6,1.2,0.8c0.5,0.2,1,0.3,1.7,0.3c1.4,0,2.1-0.3,2.4-0.5c0.1,0,0.1-0.1,0-0.2l-0.3-0.9
			c0-0.1-0.2-0.1-0.2-0.1c-0.3,0.1-0.8,0.3-1.9,0.3c-0.7,0-1.3-0.2-1.6-0.6c-0.3-0.3-0.5-0.8-0.5-1.6l4.7,0c0,0,0.1,0,0.1-0.1
			C525.1,13.9,525.3,13,525,11.9 M520.3,12.9c0.1-0.4,0.2-0.8,0.4-1.1c0.3-0.4,0.7-0.7,1.3-0.7c0.6,0,1,0.2,1.3,0.7
			c0.2,0.3,0.3,0.7,0.3,1.1L520.3,12.9z"/>
		<path class="st4" d="M487.4,11.9c-0.1-0.4-0.4-0.9-0.6-1.1c-0.3-0.3-0.6-0.6-0.9-0.7c-0.4-0.2-0.8-0.3-1.3-0.3
			c-0.6,0-1.1,0.1-1.6,0.3c-0.4,0.2-0.8,0.5-1.1,0.8c-0.3,0.3-0.5,0.8-0.6,1.2c-0.1,0.5-0.2,1-0.2,1.5c0,0.5,0.1,1,0.2,1.5
			c0.1,0.5,0.4,0.9,0.7,1.2c0.3,0.3,0.7,0.6,1.2,0.8c0.5,0.2,1,0.3,1.7,0.3c1.4,0,2.1-0.3,2.4-0.5c0.1,0,0.1-0.1,0-0.2l-0.3-0.9
			c0-0.1-0.2-0.1-0.2-0.1c-0.3,0.1-0.8,0.3-1.9,0.3c-0.7,0-1.3-0.2-1.6-0.6c-0.3-0.3-0.5-0.8-0.5-1.6l4.7,0c0,0,0.1,0,0.1-0.1
			C487.6,13.9,487.7,13,487.4,11.9 M482.7,12.9c0.1-0.4,0.2-0.8,0.4-1.1c0.3-0.4,0.7-0.7,1.3-0.7s1,0.2,1.3,0.7
			c0.2,0.3,0.3,0.7,0.3,1.1L482.7,12.9z"/>
		<path class="st3" d="M474.5,12.7c-0.2,0-0.4,0-0.7,0c-0.4,0-0.8,0-1.2,0.1c-0.4,0.1-0.7,0.3-1,0.5c-0.3,0.2-0.5,0.5-0.7,0.8
			c-0.2,0.3-0.3,0.7-0.3,1.1c0,0.4,0.1,0.8,0.2,1.1c0.1,0.3,0.3,0.5,0.6,0.7c0.3,0.2,0.6,0.3,1,0.4c0.4,0.1,0.8,0.1,1.2,0.1
			c0.5,0,1,0,1.4-0.1c0.5-0.1,1-0.2,1.2-0.2c0.2,0,0.3-0.1,0.3-0.1c0.1,0,0.1-0.2,0.1-0.2l0-4.3c0-0.9-0.3-1.6-0.7-2.1
			c-0.5-0.4-1.2-0.6-2.2-0.6c-0.4,0-0.9,0-1.3,0.1c0,0-1,0.2-1.4,0.5c0,0-0.1,0.1,0,0.2l0.3,0.9c0,0.1,0.2,0.1,0.2,0.1s0,0,0.1,0
			c0.9-0.5,2-0.5,2-0.5c0.5,0,0.9,0.1,1.2,0.3c0.3,0.2,0.4,0.5,0.4,1.1v0.2C474.8,12.7,474.5,12.7,474.5,12.7 M472.6,16
			c-0.2-0.1-0.2-0.2-0.3-0.3c-0.1-0.1-0.1-0.3-0.1-0.6c0-0.4,0.1-0.7,0.4-0.9c0,0,0.4-0.4,1.4-0.3c0.7,0,1.3,0.1,1.3,0.1v2.1
			c0,0-0.6,0.1-1.3,0.2C473,16.3,472.6,16,472.6,16"/>
		<path class="st4" d="M512.3,10.3c0-0.1,0-0.2-0.1-0.2c-0.1,0-0.5-0.1-0.8-0.1c-0.6,0-0.9,0.1-1.2,0.2c-0.3,0.1-0.6,0.3-0.8,0.6
			l0-0.6c0-0.1-0.1-0.1-0.1-0.1h-1.2c-0.1,0-0.1,0.1-0.1,0.1v7c0,0.1,0.1,0.1,0.1,0.1h1.2c0.1,0,0.1-0.1,0.1-0.1v-3.5
			c0-0.5,0.1-0.9,0.2-1.2c0.1-0.3,0.2-0.5,0.4-0.7c0.2-0.2,0.4-0.3,0.6-0.3c0.2-0.1,0.5-0.1,0.6-0.1c0.2,0,0.5,0.1,0.5,0.1
			c0.1,0,0.1,0,0.2-0.1C512,11,512.3,10.4,512.3,10.3"/>
		<path class="st4" d="M500.7,7c-0.1,0-0.3-0.1-0.5-0.1c-0.2,0-0.4,0-0.6,0c-0.8,0-1.5,0.2-2,0.7c-0.5,0.5-0.8,1.2-0.9,2.1l-0.1,0.3
			h-1.1c0,0-0.1,0-0.2,0.1l-0.2,1c0,0.1,0,0.2,0.2,0.2h1l-1.1,5.9c-0.1,0.5-0.2,0.9-0.3,1.2c-0.1,0.3-0.2,0.5-0.3,0.7
			c-0.1,0.2-0.2,0.3-0.4,0.3c-0.2,0.1-0.3,0.1-0.6,0.1c-0.1,0-0.3,0-0.4,0c-0.1,0-0.2,0-0.3-0.1c0,0-0.1,0-0.2,0.1
			c0,0.1-0.3,0.9-0.3,1c0,0.1,0,0.2,0.1,0.2c0.1,0,0.2,0.1,0.4,0.1c0.3,0.1,0.5,0.1,0.7,0.1c0.4,0,0.8-0.1,1.2-0.2
			c0.3-0.1,0.6-0.3,0.9-0.6c0.3-0.3,0.4-0.6,0.6-1.1c0.2-0.4,0.3-1,0.4-1.6l1.1-6h1.5c0,0,0.1,0,0.2-0.1l0.2-1c0-0.1,0-0.2-0.2-0.2
			h-1.5c0,0,0.1-0.6,0.2-1.1c0.1-0.2,0.2-0.4,0.3-0.5c0.1-0.1,0.2-0.2,0.4-0.2c0.1,0,0.3-0.1,0.5-0.1c0.1,0,0.3,0,0.4,0
			c0.1,0,0.2,0,0.2,0.1c0.2,0,0.2,0,0.2-0.1l0.4-1C500.9,7.1,500.8,7,500.7,7"/>
		<path class="st4" d="M479.8,17.2c0,0.1-0.1,0.1-0.1,0.1h-1.2c-0.1,0-0.1-0.1-0.1-0.1v-10c0-0.1,0.1-0.1,0.1-0.1h1.2
			c0.1,0,0.1,0.1,0.1,0.1V17.2z"/>
	</g>
</g>
<g>
	<g>
		<g>
			<polygon class="st5" points="656.2,3.9 632.4,3.9 632.4,8.4 642,8.4 642,32.8 646.6,32.8 646.6,8.4 656.2,8.4 			"/>
			<path class="st5" d="M657.1,13.9l-0.4-2.5h-4.1v21.4h4.7V18.6c0.7-0.9,1.7-1.7,2.9-2.2c1.3-0.6,2.7-0.9,4.2-0.9h0.8V11h-0.8
				C661.4,11,659,12,657.1,13.9z"/>
			<g>
				<rect x="667.4" y="3.2" class="st5" width="4.9" height="4.9"/>
				<rect x="667.5" y="11.4" class="st5" width="4.7" height="21.4"/>
			</g>
			<path class="st5" d="M726.3,11c-2.6,0-4.9,1-7,3l-0.4-2.6h-4.1v21.4h4.7V18.9c1.9-2.3,3.9-3.5,6-3.5c2.6,0,3.9,1.4,3.9,4.3v13
				h4.7V19.3c0-2.3-0.7-4.3-2-5.9C730.5,11.8,728.6,11,726.3,11z"/>
			<path class="st5" d="M743.5,6.3l-8.4,8.3v1h3.8v11.8c0,3.8,2.2,5.8,6.3,5.8c1.4,0,2.6-0.3,3.8-0.9l0.3-0.1v-3.8h-0.9l-0.1,0
				c-1.8,0.8-3.3,0.7-4.2,0.3c-0.4-0.2-0.6-0.7-0.6-1.6V15.6h5.8v-4.1h-5.8V6.3z"/>
			<g>
				<rect x="752" y="3.2" class="st5" width="4.9" height="4.9"/>
				<rect x="752.2" y="11.4" class="st5" width="4.7" height="21.4"/>
			</g>
			<path class="st5" d="M774.5,22.7c-0.9-1-2-1.7-3.2-2l-3.5-0.9c-1.1-0.3-2.1-0.6-2.9-1c-0.9-0.4-1-0.9-1-1.3c0-0.6,0.3-1,1-1.4
				c0.7-0.4,1.9-0.7,3.5-0.7c1.6,0,3.3,0.4,5,1.1l0.1,0h0.9v-4.2l-0.3-0.1c-2-0.8-4.3-1.1-6.6-1.1c-2.4,0-4.4,0.6-5.8,1.9
				c-1.5,1.3-2.2,2.9-2.2,4.9c0,1.5,0.5,2.7,1.4,3.7c0.9,0.9,2,1.6,3.3,1.9l3.5,0.9c1.1,0.3,2.1,0.6,2.9,1c0.9,0.4,0.9,0.9,0.9,1
				c0,1-0.4,2.3-3.9,2.3c-2.5,0-4.8-0.6-6.8-1.8l-0.1-0.1h-0.9v4.3l0.3,0.1c2.2,1.2,4.8,1.9,7.5,1.9c2.8,0,4.9-0.6,6.3-1.8
				c1.5-1.2,2.2-2.7,2.2-4.5C775.9,25.2,775.4,23.8,774.5,22.7z"/>
			<g>
				<path class="st5" d="M702.8,11c-1.3,0-2.5,0.2-3.8,0.7c-1.2,0.5-2.3,1.2-3.3,2.1c-0.9,0.9-1.7,2.1-2.3,3.5
					c-0.6,1.4-0.9,3-0.9,4.9c0,1.6,0.2,3.1,0.7,4.4c0.4,1.3,1.1,2.5,2,3.5c0.9,1,2.1,1.7,3.5,2.3c1.4,0.5,3.1,0.8,5,0.8
					c0.7,0,1.5,0,2.2-0.1c0.7-0.1,1.4-0.2,2-0.3c0.6-0.1,1.2-0.3,1.7-0.4c0.5-0.1,0.8-0.3,1.1-0.4l-0.6-3.9
					c-0.6,0.2-1.4,0.5-2.3,0.7c-1,0.2-2.2,0.3-3.4,0.3c-2.1,0-3.8-0.5-4.9-1.4c-1.1-0.9-1.8-2.3-1.9-4l0-0.1h14.5
					c0-0.2,0-0.5,0.1-0.8c0-0.4,0-0.7,0-0.9c0-3.6-0.8-6.3-2.5-8.1C708.2,11.9,705.8,11,702.8,11z M707.4,20.1h-9.6l0-0.1
					c0.1-0.6,0.2-1.3,0.5-1.8c0.2-0.6,0.6-1.1,1-1.6c0.4-0.5,0.9-0.9,1.5-1.1c0.6-0.3,1.3-0.4,2.1-0.4c0.8,0,1.4,0.1,2,0.4
					c0.6,0.3,1,0.6,1.4,1.1c0.4,0.5,0.7,1,0.9,1.6C707.3,18.7,707.4,19.3,707.4,20.1L707.4,20.1z"/>
			</g>
			<g>
				<path class="st5" d="M686.9,10.9c-6.8,0-12.2,4.9-12.2,11.1V22c0,6.2,5.3,11,12.2,11c2.5,0,4.6-0.5,6.5-1.5c0,0,0,0-0.1,0
					c-0.1-0.1-0.2-0.1-0.2-0.2l0,0c-0.8-0.9-1.5-1.9-2-3.1c-1.2,0.7-2.5,1-3.9,1c-4.2,0-7.3-3.1-7.3-7.1v-0.1c0-4,3.1-7.1,7.1-7.1
					c1.6,0,2.9,0.4,4.2,1.1c0.6-1.4,1.4-2.6,2.4-3.6C691.5,11.4,689.4,10.9,686.9,10.9z"/>
			</g>
		</g>
		<g>
			<g>
				<polygon class="st5" points="598.4,30 593.7,25.4 600.7,18.4 593.8,11.5 598.4,6.8 610,18.4 				"/>
			</g>
			<g>
				<polygon class="st5" points="605.5,37.2 600.9,32.5 612.5,20.9 624.1,32.5 619.4,37.1 612.5,30.2 				"/>
			</g>
			<g>
				<polygon class="st5" points="612.5,15.9 600.9,4.4 605.5,-0.3 612.5,6.7 619.4,-0.3 624.1,4.3 				"/>
			</g>
		</g>
	</g>
	<g>
		<path class="st5" d="M777,12.5h-0.3v-2.2h-0.8v-0.3h1.9v0.3H777V12.5z"/>
		<path class="st5" d="M779.2,12.5l-0.8-2.2h0c0,0.2,0,0.4,0,0.6v1.6h-0.3v-2.5h0.4l0.8,2h0l0.8-2h0.4v2.5h-0.3v-1.6
			c0-0.2,0-0.4,0-0.6h0l-0.8,2.2H779.2z"/>
	</g>
</g>
<g>
	<g id="UiPath_logo_1_">
		<g>
			<path class="st6" d="M990.7,35.7V20.2c0-6.2-1.9-10.2-7.8-10.2c-3.4,0-5.8,2.1-7.9,4.1c-1.7,1.8-3.6,3.8-5.7,6.7V25
				c1.5-1.7,3.8-4.3,5.9-6.6c2.1-2,3.5-3.1,5.7-3.1c2.8,0,3.9,1.5,3.9,5.6v14.7H990.7z"/>
			<path class="st6" d="M969.3,35.7h5.9V20.8c-1.6,1.7-4.4,4.8-5.9,6.6V35.7z"/>
			<path class="st6" d="M890.2,44.5V-7.7c0-0.9-0.7-1.7-1.7-1.7h-52.1c-0.9,0-1.7,0.7-1.7,1.7v52.3c0,0.9,0.7,1.7,1.7,1.7h52.1
				C889.5,46.2,890.2,45.5,890.2,44.5z M888,44h-51.1V-7.1H888V44z"/>
			<path class="st6" d="M855.9,35.9c7.7,0,12.5-4.3,12.5-15.2V2.1h-5.6v19.1c0,7.2-2.8,9.6-6.9,9.6c-4,0-6.7-2.4-6.7-9.6V2.1h-5.9
				v18.6C843.4,31.6,848.3,35.9,855.9,35.9z"/>
			<path class="st6" d="M879,6.6c2.1,0,3.6-1.4,3.6-3.3c0-2-1.5-3.3-3.6-3.3c-2.1,0-3.6,1.4-3.6,3.3C875.4,5.2,876.9,6.6,879,6.6z"
				/>
			<rect x="876.1" y="11" class="st6" width="5.8" height="24.9"/>
			<path class="st6" d="M897.5,1.1v6.8c1.9-2.3,3.6-4.4,5-5.5l-0.2-1.3H897.5z"/>
			<path class="st6" d="M903.3,24c5,4.8,15.8,3.1,16.8-8.9c1.1-13.2-7.6-15.5-12.1-14.3c-1.6,0.4-3.2,1.5-4.7,2.9
				c-2.3,2.2-4.4,5-5.8,7.2v4.4c1.2-1.9,3.1-4.6,5.8-7.2c0.5-0.5,1.1-1,1.7-1.5c4.3-3.3,9.7-1,9,7.5c-0.6,8.1-6.4,9.4-10.8,5.5
				c0-4.1,0-7.2,0-9.6l-5.8,7.9v17.8h5.8V24z"/>
			<path class="st6" d="M938.8,33h0.2l0.5,2.7h4.7V21.1c0-6.9-3-10.7-9.2-10.7c-3.9,0-7.4,1.5-10.1,3.2l2.1,3.9
				c2.2-1.3,4.5-2.4,6.9-2.4c3.3,0,4.4,2.2,4.5,4.8c-10.1,1.1-14.5,3.9-14.5,9.2c0,4.3,3,7.2,7.3,7.2C934,36.3,936.6,34.8,938.8,33z
				 M929.4,28.6c0-2.5,2.2-4.2,8.9-5.1v5.5c-1.8,1.7-3.4,2.7-5.4,2.7C930.9,31.8,929.4,30.8,929.4,28.6z"/>
			<path class="st6" d="M964.9,35.4l-1-4.3c-0.7,0.3-1.7,0.6-2.6,0.6c-2.4,0-3.5-1.4-3.5-4.3V15.6h6.3V11h-6.3V4.2H953l-0.7,6.7
				l-3.8,0.3v4.3h3.5v11.8c0,5.3,2.1,9,7.9,9C961.8,36.3,963.5,35.9,964.9,35.4z"/>
		</g>
	</g>
	<path class="st6" d="M975.2,11.9V9.3V1.1h-5.9v16.2V18C969.7,17.5,972,14.6,975.2,11.9z"/>
</g>
<g>
	<g>
		<path class="st7" d="M1059.6,18.1v-0.4c0-1.4-1.3-2.5-3-2.5c-1.6,0-2.6,0.9-2.6,2.1c0,0.6,0.3,1.2,0.7,1.5c0.7,0.6,0.8,0.6,4,1.6
			c5.3,1.6,7.4,3.7,7.4,7.6c0,4.6-3.7,7.7-9.2,7.7c-5.6,0-9.1-2.9-9.3-7.8h6.2c0.3,2,1.2,3,3.1,3c1.5,0,2.6-0.9,2.6-2.3
			c0-1.4-0.9-2.1-4.4-3.2c-5.1-1.5-7.4-3.8-7.4-7.6c0-4.5,3.6-7.5,9.2-7.5c5.4,0,8.7,2.9,8.8,7.7H1059.6z"/>
		<path class="st7" d="M1074.6,24.6c0.6,3.3,3,5.3,6.2,5.3c2.4,0,4.4-1.2,5.5-3.1l6,1.6c-2.4,4.6-6.5,7.2-11.5,7.2
			c-7.5,0-12.9-5.3-12.9-12.7c0-7.4,5.2-12.6,12.5-12.6c7.6,0,12.8,5.3,12.8,12.9l-0.1,1.3H1074.6z M1086.5,20.9c-0.6-3.1-2.8-5-6-5
			c-3.1,0-5.2,1.8-5.8,5H1086.5z"/>
		<path class="st7" d="M1102.5,11.2v3.5c0.7-1.7,1.1-2.5,2.1-3.2c1-0.7,2.4-1.1,3.8-1.1c0.2,0,0.4,0,0.8,0.1v6.6
			c-0.5-0.1-1-0.1-1.4-0.1c-1.8,0-3.4,0.8-4.3,2.1c-0.8,1.1-1,2.1-1,4.3v11.4h-6.5V11.2H1102.5z"/>
		<path class="st7" d="M1135.5,11.2l-8.6,23.7h-6.7l-8.5-23.7h6.8l5.2,14.1l5.3-14.1H1135.5z"/>
		<path class="st7" d="M1144.9,4.5c0,2-1.5,3.5-3.6,3.5c-2.1,0-3.6-1.5-3.6-3.6c0-2.1,1.5-3.6,3.6-3.6
			C1143.4,0.8,1144.9,2.4,1144.9,4.5z M1144.5,34.9h-6.5V11.2h6.5V34.9z"/>
		<path class="st7" d="M1170.5,32.2c-2.7,2.5-5.5,3.5-9.1,3.5c-7.2,0-12.5-5.3-12.5-12.5c0-7.5,5.2-12.8,12.6-12.8
			c3.5,0,6.4,1.2,9.5,3.9l-4.3,3.9c-1.4-1.4-3-2.1-4.9-2.1c-3.6,0-6.2,2.9-6.2,6.8c0,4,2.7,7,6.5,7c1.7,0,2.9-0.5,4.6-2L1170.5,32.2
			z"/>
		<path class="st7" d="M1178.2,24.6c0.6,3.3,3,5.3,6.2,5.3c2.4,0,4.5-1.2,5.5-3.1l6,1.6c-2.4,4.6-6.5,7.2-11.5,7.2
			c-7.5,0-12.9-5.3-12.9-12.7c0-7.4,5.2-12.6,12.5-12.6c7.6,0,12.8,5.3,12.8,12.9l-0.1,1.3H1178.2z M1190.1,20.9c-0.6-3.1-2.8-5-6-5
			c-3.1,0-5.2,1.8-5.8,5H1190.1z"/>
		<path class="st7" d="M1206.2,11.2v2.9c1.7-2.7,3.5-3.7,6.4-3.7c2.3,0,4.4,0.8,5.8,2.2c1.5,1.5,2.1,3.4,2.1,7.3v15h-6.5V20.2
			c0-1.3-0.2-2.1-0.6-2.8c-0.6-1-1.8-1.6-3.1-1.6c-2.5,0-4.2,1.9-4.2,4.7v14.4h-6.5V11.2H1206.2z"/>
		<path class="st7" d="M1291,11.2l-7.7,23.7h-6.8l-4.1-14.5l-4.2,14.5h-6.9l-7.6-23.7h6.6l4.8,14.4l4.1-14.4h6.2l4.2,14.4l4.8-14.4
			H1291z"/>
		<path class="st7" d="M1287.2,34.8h-0.7v-2.4h-0.7v-0.5h2.1v0.5h-0.7V34.8z M1289,34.8h-0.7v-2.9h0.7l0.9,1.7l0.9-1.7h0.7v2.9h-0.7
			v-1.7l-0.9,1.8l-0.9-1.8V34.8z"/>
		<path class="st8" d="M1237.1,10.3c-6.8,0.8-12.2,6.4-12.6,13.3c-0.3,4.7,1.8,9,5.1,11.8c1.2,1,2.9,0.9,4-0.2
			c1.3-1.3,3.1-2.1,5-2.1c2,0,3.8,0.8,5,2.1c1.1,1.1,2.8,1.2,4,0.2c3.1-2.6,5.1-6.5,5.1-10.9C1252.9,16,1245.6,9.3,1237.1,10.3z
			 M1238.7,31.5c-3.9,0-7.1-3.2-7.1-7.1c0-3.9,3.2-7.1,7.1-7.1c3.9,0,7.1,3.2,7.1,7.1C1245.8,28.3,1242.6,31.5,1238.7,31.5z"/>
	</g>
</g>
<g>
	<path class="st9" d="M80.6,29.1l-1.3,3.7h-0.1c-0.2-0.9-0.6-2.1-1.3-3.7l-7.1-17.8h-6.9v28.3h4.6V22.2c0-1.1,0-2.4-0.1-3.9
		c0-0.8-0.1-1.4-0.1-1.8h0.1c0.2,1.1,0.5,1.9,0.6,2.4l8.5,20.7h3.2l8.4-20.8c0.2-0.5,0.4-1.4,0.6-2.2h0.1c-0.1,2.1-0.2,3.9-0.2,5.1
		v18h4.9V11.3h-6.6L80.6,29.1"/>
	<polyline class="st9" points="99,39.6 103.8,39.6 103.8,24.3 103.8,19.4 99,19.4 99,29.3 99,39.6 	"/>
	<path class="st9" d="M101.5,10.7c-0.8,0-1.5,0.3-2,0.8c-0.6,0.5-0.8,1.2-0.8,2c0,0.8,0.3,1.4,0.8,2c0.6,0.5,1.2,0.8,2,0.8
		c0.8,0,1.5-0.3,2-0.8c0.6-0.5,0.9-1.2,0.9-2c0-0.8-0.3-1.4-0.8-2C103,11,102.3,10.7,101.5,10.7"/>
	<path class="st9" d="M120.7,19.2c-0.9-0.2-1.8-0.3-2.7-0.3c-2.2,0-4.1,0.5-5.8,1.4c-1.7,0.9-2.9,2.3-3.8,3.9
		c-0.9,1.7-1.3,3.6-1.3,5.8c0,1.9,0.4,3.7,1.3,5.2c0.8,1.6,2,2.8,3.6,3.6c1.5,0.8,3.3,1.3,5.2,1.3c2.3,0,4.2-0.5,5.7-1.3l0.1,0v-4.4
		l-0.2,0.1c-0.7,0.5-1.5,0.9-2.3,1.2c-0.8,0.3-1.6,0.4-2.3,0.4c-1.9,0-3.4-0.6-4.5-1.7c-1.1-1.2-1.6-2.8-1.6-4.8
		c0-2.1,0.6-3.7,1.7-5c1.1-1.2,2.6-1.8,4.5-1.8c1.6,0,3.1,0.5,4.5,1.6l0.2,0.1v-4.6l-0.1,0C122.3,19.6,121.6,19.3,120.7,19.2"/>
	<path class="st9" d="M136.3,19c-1.2,0-2.3,0.4-3.2,1.1c-0.8,0.7-1.4,1.6-1.8,2.7h-0.1v-3.5h-4.8v20.3h4.8V29.3
		c0-1.8,0.4-3.2,1.2-4.3c0.8-1.1,1.8-1.6,3.1-1.6c0.4,0,0.9,0.1,1.4,0.2c0.5,0.1,0.9,0.3,1.1,0.5l0.2,0.1v-4.8l-0.1,0
		C137.8,19.1,137.1,19,136.3,19"/>
	<path class="st9" d="M153,34.5c-0.9,1.1-2.2,1.7-4,1.7c-1.7,0-3.1-0.6-4.1-1.7c-1-1.2-1.5-2.8-1.5-4.9c0-2.2,0.5-3.8,1.5-5
		c1-1.2,2.3-1.8,4.1-1.8c1.7,0,3,0.6,4,1.7c1,1.1,1.4,2.8,1.4,5C154.4,31.7,153.9,33.4,153,34.5 M149.3,18.9c-3.3,0-6,1-7.9,2.9
		c-1.9,1.9-2.8,4.6-2.8,8c0,3.2,0.9,5.7,2.8,7.6c1.8,1.9,4.4,2.8,7.5,2.8c3.2,0,5.8-1,7.7-3c1.9-2,2.8-4.6,2.8-7.9
		c0-3.2-0.9-5.8-2.7-7.7C154.9,19.8,152.4,18.9,149.3,18.9"/>
	<path class="st9" d="M169.9,27.7c-1.5-0.6-2.5-1.1-2.9-1.5c-0.4-0.4-0.6-0.9-0.6-1.6c0-0.6,0.2-1.1,0.7-1.4c0.5-0.4,1.2-0.6,2-0.6
		c0.8,0,1.6,0.1,2.4,0.4c0.8,0.2,1.5,0.6,2.1,1l0.2,0.1v-4.4l-0.1,0c-0.6-0.2-1.3-0.4-2.2-0.6c-0.9-0.2-1.7-0.2-2.4-0.2
		c-2.3,0-4.1,0.6-5.6,1.7c-1.4,1.2-2.2,2.7-2.2,4.5c0,1,0.2,1.8,0.5,2.5c0.3,0.7,0.8,1.4,1.4,1.9c0.6,0.5,1.6,1.1,2.9,1.6
		c1.1,0.5,1.9,0.8,2.4,1.1c0.5,0.3,0.9,0.6,1.1,0.9c0.2,0.3,0.3,0.7,0.3,1.2c0,1.4-1,2-3.1,2c-0.8,0-1.7-0.2-2.6-0.5
		c-1-0.3-1.9-0.8-2.7-1.4l-0.2-0.1V39l0.1,0c0.7,0.3,1.5,0.6,2.6,0.8c1,0.2,1.9,0.3,2.7,0.3c2.5,0,4.4-0.6,5.9-1.7
		c1.5-1.2,2.2-2.7,2.2-4.6c0-1.4-0.4-2.5-1.2-3.5C173.1,29.4,171.8,28.5,169.9,27.7"/>
	<path class="st9" d="M191.7,34.5c-0.9,1.1-2.2,1.7-4,1.7c-1.7,0-3.1-0.6-4.1-1.7c-1-1.2-1.5-2.8-1.5-4.9c0-2.2,0.5-3.8,1.5-5
		c1-1.2,2.3-1.8,4.1-1.8c1.7,0,3,0.6,4,1.7c1,1.1,1.4,2.8,1.4,5C193,31.7,192.6,33.4,191.7,34.5 M187.9,18.9c-3.3,0-6,1-7.9,2.9
		c-1.9,1.9-2.8,4.6-2.8,8c0,3.2,0.9,5.7,2.8,7.6c1.8,1.9,4.4,2.8,7.5,2.8c3.2,0,5.8-1,7.7-3c1.9-2,2.8-4.6,2.8-7.9
		c0-3.2-0.9-5.8-2.7-7.7C193.5,19.8,191,18.9,187.9,18.9"/>
	<path class="st9" d="M223.3,23.2v-3.9h-4.8v-6.1l-0.2,0l-4.5,1.4l-0.1,0v4.6h-7.1v-2.6c0-1.2,0.3-2.1,0.8-2.7
		c0.5-0.6,1.3-0.9,2.2-0.9c0.7,0,1.4,0.2,2.1,0.5l0.2,0.1V9.6l-0.1,0c-0.7-0.2-1.6-0.4-2.7-0.4c-1.4,0-2.7,0.3-3.8,0.9
		c-1.1,0.6-2,1.5-2.6,2.6c-0.6,1.1-0.9,2.4-0.9,3.8v2.8h-3.4v3.9h3.4v16.4h4.8V23.2h7.1v10.4c0,4.3,2,6.5,6,6.5c0.7,0,1.3-0.1,2-0.2
		c0.7-0.2,1.2-0.3,1.5-0.5l0.1,0v-3.9l-0.2,0.1c-0.3,0.2-0.6,0.3-1,0.4c-0.4,0.1-0.7,0.2-1,0.2c-0.9,0-1.6-0.3-2.1-0.7
		c-0.4-0.5-0.7-1.4-0.7-2.6v-9.6H223.3"/>
	<polyline class="st10" points="25.1,24.3 2.7,24.3 2.7,1.9 25.1,1.9 25.1,24.3 	"/>
	<polyline class="st11" points="49.8,24.3 27.4,24.3 27.4,1.9 49.8,1.9 49.8,24.3 	"/>
	<polyline class="st12" points="25.1,49.1 2.7,49.1 2.7,26.7 25.1,26.7 25.1,49.1 	"/>
	<polyline class="st13" points="49.8,49.1 27.4,49.1 27.4,26.7 49.8,26.7 49.8,49.1 	"/>
</g>
</svg>
