<?xml version="1.0" encoding="utf-8"?>
<!-- Generator: Adobe Illustrator 25.2.1, SVG Export Plug-In . SVG Version: 6.00 Build 0)  -->
<svg version="1.1" id="Layer_1" xmlns="http://www.w3.org/2000/svg" xmlns:xlink="http://www.w3.org/1999/xlink" x="0px" y="0px"
	 viewBox="0 0 249 51" style="enable-background:new 0 0 249 51;" xml:space="preserve">
<style type="text/css">
	.st0{clip-path:url(#SVGID_2_);fill:#262F3E;}
	.st1{clip-path:url(#SVGID_2_);fill:#F7971D;}
	.st2{fill:#0F9BD7;}
	.st3{fill:#FFFFFF;}
	.st4{fill-rule:evenodd;clip-rule:evenodd;fill:#FFFFFF;}
	.st5{fill:#005289;}
	.st6{fill:#0098D8;}
	.st7{fill:#2B4E4E;}
	.st8{fill:#80B7A2;}
	.st9{fill:#777471;}
	.st10{fill:#E34C22;}
	.st11{fill:#6DBB29;}
	.st12{fill:#599DD5;}
	.st13{fill:#F3BF00;}
</style>
<g>
	<g>
		<defs>
			<rect id="SVGID_1_" x="-158" y="-146.2" width="90" height="74.2"/>
		</defs>
		<clipPath id="SVGID_2_">
			<use xlink:href="#SVGID_1_"  style="overflow:visible;"/>
		</clipPath>
		<path class="st0" d="M-92.7-107.3c0.7,0.4,1.7,0.8,3.1,1.1c1.3,0.3,2.7,0.5,4.1,0.5c1.4,0,2.6-0.2,3.8-0.5c1.1-0.3,2.1-0.8,3-1.5
			c0.8-0.7,1.5-1.4,1.9-2.4c0.5-0.9,0.7-2,0.7-3.1c0-1.4-0.4-2.6-1.2-3.7c-0.8-1.1-2.2-1.9-4.1-2.6l-3.8-1.2c-1.4-0.5-2.4-1-2.9-1.5
			c-0.5-0.5-0.8-1.1-0.8-1.9c0-1.1,0.4-1.9,1.3-2.4c0.8-0.5,2-0.7,3.5-0.7c1.9,0,3.6,0.3,5.1,1c0.5,0.2,0.8,0.3,1,0.3
			c0.4,0,0.6-0.3,0.6-0.8v-1.3c0-0.4-0.1-0.7-0.2-0.9c-0.2-0.2-0.4-0.4-0.8-0.7c-0.3-0.2-0.7-0.3-1.1-0.5s-1-0.3-1.5-0.4
			c-0.5-0.1-1.1-0.2-1.7-0.3c-0.6-0.1-1.2-0.1-1.8-0.1c-1.2,0-2.3,0.2-3.4,0.5c-1.1,0.3-2,0.8-2.8,1.4c-0.8,0.6-1.4,1.3-1.9,2.2
			c-0.5,0.9-0.7,1.8-0.7,3c0,1.4,0.4,2.7,1.3,3.9c0.9,1.2,2.3,2.1,4.3,2.7l3.9,1.2c1.3,0.4,2.2,0.9,2.7,1.4c0.5,0.5,0.7,1.1,0.7,1.9
			c0,1.1-0.5,1.9-1.4,2.5c-0.9,0.6-2.2,0.9-3.9,0.9c-1.1,0-2.1-0.1-3.2-0.3c-1.1-0.2-2-0.5-2.9-0.9c-0.3-0.1-0.5-0.2-0.7-0.3
			c-0.2-0.1-0.3-0.1-0.5-0.1c-0.4,0-0.6,0.3-0.6,0.8v1.4c0,0.3,0.1,0.5,0.2,0.7C-93.4-107.8-93.2-107.6-92.7-107.3"/>
		<path class="st0" d="M-137.8-120.3c-1-0.1-1.9-0.2-2.8-0.2c-2.7,0-4.9,0.7-6.5,2.1c-1.6,1.4-2.4,3.2-2.4,5.5c0,2.1,0.7,3.9,2,5.1
			c1.3,1.3,3.1,1.9,5.3,1.9c3.1,0,5.8-1.2,7.8-3.7c0.3,0.6,0.6,1.1,0.8,1.6c0.3,0.5,0.6,0.9,1,1.2c0.2,0.2,0.5,0.4,0.8,0.4
			c0.2,0,0.5-0.1,0.7-0.2l1.7-1.1c0.3-0.3,0.5-0.5,0.5-0.8c0-0.2-0.1-0.4-0.2-0.6c-0.4-0.7-0.7-1.3-0.9-1.9
			c-0.2-0.6-0.3-1.4-0.3-2.4v-8.7c0-2.9-0.7-5.1-2.2-6.6c-1.5-1.4-3.8-2.2-7-2.2c-1.5,0-2.8,0.2-4.2,0.5c-1.3,0.3-2.4,0.7-3.4,1.2
			c-0.4,0.2-0.6,0.4-0.7,0.6c-0.1,0.2-0.2,0.5-0.2,0.9v1.3c0,0.6,0.2,0.8,0.6,0.8c0.1,0,0.2,0,0.4-0.1c0.2,0,0.5-0.2,0.9-0.3
			c0.9-0.4,1.9-0.7,2.9-0.9c1-0.2,1.9-0.3,2.9-0.3c2.1,0,3.5,0.4,4.3,1.2c0.8,0.8,1.3,2.2,1.3,4.3v2
			C-135.8-120-136.8-120.1-137.8-120.3 M-134.8-115.6c0,0.9-0.1,1.7-0.3,2.3c-0.2,0.6-0.5,1.2-0.9,1.7c-0.7,0.8-1.6,1.4-2.5,1.7
			c-1,0.3-1.9,0.5-2.8,0.5c-1.2,0-2.1-0.3-2.8-1c-0.7-0.6-1-1.6-1-2.8c0-1.3,0.4-2.4,1.3-3.1c0.9-0.7,2.2-1.1,4-1.1
			c0.8,0,1.6,0.1,2.5,0.2c0.9,0.1,1.7,0.3,2.4,0.4V-115.6z"/>
		<path class="st0" d="M-121.4-107.8c0.2,0.5,0.3,0.9,0.6,1c0.2,0.2,0.6,0.3,1,0.3h2.3c0.5,0,0.9-0.1,1.1-0.3
			c0.2-0.2,0.4-0.5,0.5-1.1l4.1-17.2l4.1,17.2c0.1,0.5,0.3,0.9,0.5,1.1c0.2,0.2,0.6,0.3,1.1,0.3h2.3c0.5,0,0.8-0.1,1-0.3
			c0.2-0.2,0.4-0.5,0.6-1l6.4-20.6c0.1-0.3,0.2-0.5,0.2-0.7c0-0.2,0-0.3,0-0.4c0-0.4-0.2-0.7-0.7-0.7h-2.5c-0.5,0-0.8,0.1-1,0.3
			c-0.2,0.2-0.4,0.5-0.5,1l-4.6,17.9l-4.2-17.9c-0.1-0.5-0.3-0.9-0.5-1c-0.2-0.2-0.6-0.3-1.1-0.3h-2.1c-0.5,0-0.9,0.1-1.1,0.3
			c-0.2,0.2-0.4,0.5-0.5,1l-4.2,17.6l-4.5-17.6c-0.2-0.5-0.3-0.9-0.5-1c-0.2-0.2-0.6-0.3-1.1-0.3h-2.6c-0.4,0-0.7,0.2-0.7,0.7
			c0,0.2,0.1,0.5,0.2,1.1L-121.4-107.8z"/>
		<path class="st1" d="M-81.8-94.9c-9.8,4.2-20.5,6.2-30.3,6.2c-14.4,0-28.4-4-39.7-10.5c-1-0.6-1.7,0.4-0.9,1.2
			c10.5,9.4,24.3,15.1,39.6,15.1c11,0,23.7-3.4,32.5-9.9C-79.1-93.9-80.3-95.5-81.8-94.9"/>
		<path class="st1" d="M-87.3-98.5c-0.8,0.5-0.6,1.3,0.2,1.2c2.8-0.3,9.1-1.1,10.2,0.3c1.1,1.4-1.2,7.4-2.3,10
			c-0.3,0.8,0.4,1.1,1.1,0.5c4.7-3.9,5.9-12.2,5-13.4C-74.1-101.1-82.3-102.1-87.3-98.5"/>
	</g>
</g>
<g>
	<g>
		<path class="st2" d="M23.1-48.7c2.3-2.4,5.4-3.8,8.9-3.8c4.6,0,8.7,2.6,10.8,6.4c1.9-0.8,3.9-1.3,6.1-1.3
			c8.3,0,15.1,6.8,15.1,15.2c0,8.4-6.8,15.2-15.1,15.2c-1,0-2-0.1-3-0.3c-1.9,3.4-5.5,5.7-9.6,5.7c-1.7,0-3.4-0.4-4.8-1.1
			C29.6-8.2,25.1-5,19.9-5c-5.4,0-10-3.4-11.8-8.2C7.3-13.1,6.5-13,5.7-13C-0.8-13-6-18.3-6-24.8C-6-29.2-3.7-33-0.2-35
			c-0.7-1.7-1.1-3.5-1.1-5.4c0-7.5,6.1-13.6,13.6-13.6C16.7-54,20.6-51.9,23.1-48.7"/>
		<path class="st3" d="M4.1-28.6c0,0.1,0,0.1,0,0.2c0.1,0.1,0.3,0.2,0.4,0.2c0.7,0.4,1.4,0.5,2.1,0.5c1.4,0,2.3-0.8,2.3-2v0
			c0-1.1-1-1.6-2-1.8l-0.1,0c-0.7-0.2-1.3-0.4-1.3-0.9v0c0-0.4,0.4-0.7,0.9-0.7c0.6,0,1.4,0.2,1.8,0.5c0,0,0.1,0.1,0.2,0
			c0-0.1,0.3-0.7,0.3-0.8c0-0.1,0-0.1-0.1-0.2c-0.5-0.3-1.3-0.6-2.1-0.6l-0.1,0c-1.3,0-2.2,0.8-2.2,1.9v0c0,1.2,1,1.6,2,1.9l0.2,0
			c0.7,0.2,1.3,0.4,1.3,0.9v0c0,0.4-0.4,0.8-1,0.8c-0.2,0-1,0-1.8-0.5c-0.1-0.1-0.2-0.1-0.2-0.1c0,0-0.1-0.1-0.2,0.1L4.1-28.6z"/>
		<path class="st3" d="M25.2-28.6c0,0.1,0,0.1,0,0.2c0.1,0.1,0.3,0.2,0.4,0.2c0.7,0.4,1.4,0.5,2.1,0.5c1.4,0,2.3-0.8,2.3-2v0
			c0-1.1-1-1.6-2-1.8l-0.1,0c-0.7-0.2-1.3-0.4-1.3-0.9v0c0-0.4,0.4-0.7,0.9-0.7c0.6,0,1.4,0.2,1.8,0.5c0,0,0.1,0.1,0.2,0
			c0-0.1,0.3-0.7,0.3-0.8c0-0.1,0-0.1-0.1-0.2c-0.5-0.3-1.3-0.6-2.1-0.6l-0.1,0c-1.3,0-2.2,0.8-2.2,1.9v0c0,1.2,1,1.6,2,1.9l0.2,0
			c0.7,0.2,1.3,0.4,1.3,0.9v0c0,0.4-0.4,0.8-1,0.8c-0.2,0-1,0-1.8-0.5c-0.1-0.1-0.2-0.1-0.2-0.1c0,0-0.1-0.1-0.2,0.1L25.2-28.6z"/>
		<path class="st3" d="M40.7-32.3c-0.1-0.4-0.3-0.7-0.5-1c-0.2-0.3-0.6-0.5-0.9-0.7c-0.4-0.2-0.8-0.3-1.3-0.3
			c-0.5,0-0.9,0.1-1.3,0.3s-0.7,0.4-0.9,0.7c-0.2,0.3-0.4,0.6-0.5,1C35.1-31.9,35-31.5,35-31c0,0.5,0.1,0.9,0.2,1.3
			c0.1,0.4,0.3,0.7,0.5,1c0.2,0.3,0.6,0.5,0.9,0.7c0.4,0.2,0.8,0.3,1.3,0.3c0.5,0,0.9-0.1,1.3-0.3c0.4-0.2,0.7-0.4,0.9-0.7
			c0.2-0.3,0.4-0.6,0.5-1c0.1-0.4,0.2-0.8,0.2-1.3C40.9-31.5,40.8-31.9,40.7-32.3 M39.5-31c0,0.7-0.1,1.2-0.4,1.6
			c-0.3,0.4-0.6,0.6-1.2,0.6c-0.5,0-0.9-0.2-1.2-0.6c-0.3-0.4-0.4-0.9-0.4-1.6c0-0.7,0.1-1.2,0.4-1.6c0.2-0.4,0.6-0.6,1.2-0.6
			c0.5,0,0.9,0.2,1.2,0.6C39.4-32.2,39.5-31.7,39.5-31"/>
		<path class="st4" d="M50.6-29c0-0.1-0.2-0.1-0.2-0.1c-0.2,0.1-0.4,0.1-0.6,0.2c-0.2,0-0.4,0-0.7,0c-0.6,0-1-0.2-1.4-0.5
			c-0.3-0.3-0.5-0.9-0.5-1.6c0-0.7,0.2-1.2,0.5-1.6c0.3-0.4,0.7-0.6,1.3-0.6c0.5,0,0.9,0.1,1.3,0.2c0,0,0.1,0,0.1-0.1
			c0.1-0.3,0.2-0.5,0.3-0.8c0-0.1,0-0.1-0.1-0.1c-0.2-0.1-0.5-0.2-0.8-0.2c-0.3,0-0.6-0.1-0.9-0.1c-0.5,0-1,0.1-1.3,0.3
			c-0.4,0.2-0.7,0.4-1,0.7c-0.3,0.3-0.5,0.6-0.6,1c-0.1,0.4-0.2,0.8-0.2,1.3c0,1,0.3,1.8,0.8,2.4c0.5,0.6,1.3,0.9,2.4,0.9
			c0.6,0,1.2-0.1,1.7-0.3c0,0,0.1,0,0-0.1L50.6-29z"/>
		<path class="st4" d="M56.7-32.5c-0.1-0.4-0.4-0.8-0.5-0.9c-0.3-0.3-0.5-0.5-0.8-0.6c-0.3-0.1-0.7-0.2-1.2-0.2
			c-0.5,0-1,0.1-1.3,0.3c-0.4,0.2-0.7,0.4-0.9,0.7c-0.2,0.3-0.4,0.7-0.5,1.1c-0.1,0.4-0.2,0.8-0.2,1.3c0,0.5,0.1,0.9,0.2,1.3
			c0.1,0.4,0.3,0.7,0.6,1c0.3,0.3,0.6,0.5,1,0.7c0.4,0.2,0.9,0.2,1.5,0.2c1.2,0,1.8-0.3,2-0.4c0,0,0.1-0.1,0-0.2l-0.3-0.7
			c0-0.1-0.2-0.1-0.2-0.1c-0.3,0.1-0.7,0.3-1.7,0.3c-0.6,0-1.1-0.2-1.4-0.5c-0.3-0.3-0.4-0.7-0.5-1.3l4.1,0c0,0,0.1,0,0.1-0.1
			C56.8-30.8,56.9-31.6,56.7-32.5 M52.6-31.7c0.1-0.4,0.2-0.7,0.3-1c0.2-0.4,0.6-0.6,1.2-0.6c0.5,0,0.9,0.2,1.1,0.6
			c0.2,0.3,0.2,0.6,0.3,1L52.6-31.7z"/>
		<path class="st4" d="M24.2-32.5c-0.1-0.4-0.4-0.8-0.5-0.9c-0.3-0.3-0.5-0.5-0.8-0.6c-0.3-0.1-0.7-0.2-1.2-0.2
			c-0.5,0-1,0.1-1.3,0.3c-0.4,0.2-0.7,0.4-0.9,0.7c-0.2,0.3-0.4,0.7-0.5,1.1c-0.1,0.4-0.2,0.8-0.2,1.3c0,0.5,0.1,0.9,0.2,1.3
			c0.1,0.4,0.3,0.7,0.6,1c0.3,0.3,0.6,0.5,1,0.7c0.4,0.2,0.9,0.2,1.5,0.2c1.2,0,1.8-0.3,2-0.4c0,0,0.1-0.1,0-0.2l-0.3-0.7
			c0-0.1-0.2-0.1-0.2-0.1C23.4-29,23-28.8,22-28.8c-0.6,0-1.1-0.2-1.4-0.5c-0.3-0.3-0.4-0.7-0.5-1.3l4.1,0c0,0,0.1,0,0.1-0.1
			C24.3-30.8,24.4-31.6,24.2-32.5 M20.2-31.7c0.1-0.4,0.2-0.7,0.3-1c0.3-0.4,0.6-0.6,1.2-0.6c0.5,0,0.9,0.2,1.1,0.6
			c0.2,0.3,0.2,0.6,0.3,1L20.2-31.7z"/>
		<path class="st3" d="M13-31.9c-0.2,0-0.4,0-0.6,0c-0.3,0-0.7,0-1,0.1c-0.3,0.1-0.6,0.2-0.8,0.4c-0.2,0.2-0.4,0.4-0.6,0.7
			c-0.1,0.3-0.2,0.6-0.2,0.9c0,0.4,0.1,0.7,0.2,0.9c0.1,0.3,0.3,0.5,0.5,0.6c0.2,0.2,0.5,0.3,0.8,0.4c0.3,0.1,0.7,0.1,1.1,0.1
			c0.4,0,0.8,0,1.2-0.1c0.4-0.1,0.9-0.2,1-0.2c0.1,0,0.3-0.1,0.3-0.1c0.1,0,0.1-0.1,0.1-0.1l0-3.7c0-0.8-0.2-1.4-0.6-1.8
			c-0.4-0.4-1.1-0.6-1.9-0.6c-0.3,0-0.8,0-1.1,0.1c0,0-0.9,0.2-1.2,0.5c0,0-0.1,0,0,0.2l0.3,0.8c0,0.1,0.1,0.1,0.1,0.1s0,0,0.1,0
			c0.8-0.4,1.8-0.4,1.8-0.4c0.4,0,0.8,0.1,1,0.3c0.2,0.2,0.3,0.4,0.3,1v0.2C13.3-31.8,13-31.9,13-31.9 M11.4-29
			c-0.2-0.1-0.2-0.2-0.2-0.2c-0.1-0.1-0.1-0.3-0.1-0.5c0-0.4,0.1-0.6,0.4-0.8c0,0,0.3-0.3,1.2-0.3c0.6,0,1.1,0.1,1.1,0.1v1.8
			c0,0-0.5,0.1-1.1,0.1C11.7-28.7,11.4-29,11.4-29"/>
		<path class="st4" d="M45.7-33.9c0-0.1,0-0.1-0.1-0.1c-0.1,0-0.4-0.1-0.7-0.1c-0.5,0-0.8,0.1-1,0.2c-0.3,0.1-0.5,0.3-0.7,0.5l0-0.5
			c0-0.1,0-0.1-0.1-0.1h-1C42-34.2,42-34.1,42-34v6.1c0,0.1,0.1,0.1,0.1,0.1h1.1c0.1,0,0.1-0.1,0.1-0.1v-3c0-0.4,0-0.8,0.1-1.1
			c0.1-0.3,0.2-0.5,0.4-0.6c0.1-0.1,0.3-0.2,0.5-0.3c0.2-0.1,0.4-0.1,0.5-0.1c0.2,0,0.4,0.1,0.4,0.1c0.1,0,0.1,0,0.1-0.1
			C45.5-33.3,45.7-33.8,45.7-33.9"/>
		<path class="st4" d="M35.7-36.8c-0.1,0-0.2-0.1-0.4-0.1c-0.2,0-0.3,0-0.6,0c-0.7,0-1.3,0.2-1.7,0.6c-0.4,0.4-0.7,1-0.8,1.8l0,0.3
			h-0.9c0,0-0.1,0-0.1,0.1L31-33.2c0,0.1,0,0.1,0.1,0.1H32L31.1-28c-0.1,0.4-0.2,0.7-0.2,1c-0.1,0.3-0.2,0.4-0.3,0.6
			c-0.1,0.1-0.2,0.2-0.4,0.3c-0.1,0-0.3,0.1-0.5,0.1c-0.1,0-0.2,0-0.3,0c-0.1,0-0.1,0-0.2-0.1c0,0-0.1,0-0.1,0.1
			c0,0.1-0.3,0.7-0.3,0.8c0,0.1,0,0.1,0.1,0.2c0.1,0,0.2,0.1,0.4,0.1c0.2,0.1,0.4,0.1,0.6,0.1c0.4,0,0.7-0.1,1-0.2
			c0.3-0.1,0.5-0.3,0.7-0.5c0.2-0.3,0.4-0.5,0.5-0.9c0.1-0.4,0.3-0.8,0.4-1.4l0.9-5.2h1.3c0,0,0.1,0,0.1-0.1l0.2-0.8
			c0-0.1,0-0.1-0.1-0.1h-1.3c0,0,0.1-0.5,0.2-0.9c0.1-0.2,0.2-0.3,0.3-0.4c0.1-0.1,0.2-0.2,0.3-0.2c0.1,0,0.3-0.1,0.4-0.1
			c0.1,0,0.2,0,0.3,0c0.1,0,0.2,0,0.2,0.1c0.1,0,0.1,0,0.2-0.1l0.3-0.9C35.8-36.7,35.7-36.7,35.7-36.8"/>
		<path class="st4" d="M17.6-28c0,0.1,0,0.1-0.1,0.1h-1.1c-0.1,0-0.1-0.1-0.1-0.1v-8.7c0-0.1,0-0.1,0.1-0.1h1.1
			c0.1,0,0.1,0.1,0.1,0.1V-28z"/>
	</g>
</g>
<g>
	<g>
		<g>
			<polygon class="st5" points="138.6,-165 114.7,-165 114.7,-160.6 124.3,-160.6 124.3,-136.1 129,-136.1 129,-160.6 138.6,-160.6 
							"/>
			<path class="st5" d="M139.5-155l-0.4-2.5h-4.1v21.4h4.7v-14.1c0.7-0.9,1.7-1.7,2.9-2.2c1.3-0.6,2.7-0.9,4.2-0.9h0.8v-4.5h-0.8
				C143.8-157.9,141.4-156.9,139.5-155z"/>
			<g>
				<rect x="149.8" y="-165.7" class="st5" width="4.9" height="4.9"/>
				<rect x="149.9" y="-157.5" class="st5" width="4.7" height="21.4"/>
			</g>
			<path class="st5" d="M208.6-157.9c-2.6,0-4.9,1-7,3l-0.4-2.6h-4.1v21.4h4.7V-150c1.9-2.3,3.9-3.5,6-3.5c2.6,0,3.9,1.4,3.9,4.3v13
				h4.7v-13.4c0-2.3-0.7-4.3-2-5.9C212.9-157.1,211-157.9,208.6-157.9z"/>
			<path class="st5" d="M225.9-162.6l-8.4,8.3v1h3.8v11.8c0,3.8,2.2,5.8,6.3,5.8c1.4,0,2.6-0.3,3.8-0.9l0.3-0.1v-3.8h-0.9l-0.1,0
				c-1.8,0.8-3.3,0.7-4.2,0.3c-0.4-0.2-0.6-0.7-0.6-1.6v-11.5h5.8v-4.1h-5.8V-162.6z"/>
			<g>
				<rect x="234.4" y="-165.7" class="st5" width="4.9" height="4.9"/>
				<rect x="234.5" y="-157.5" class="st5" width="4.7" height="21.4"/>
			</g>
			<path class="st5" d="M256.9-146.2c-0.9-1-2-1.7-3.2-2l-3.5-0.9c-1.1-0.3-2.1-0.6-2.9-1c-0.9-0.4-1-0.9-1-1.3c0-0.6,0.3-1,1-1.4
				c0.7-0.4,1.9-0.7,3.5-0.7c1.6,0,3.3,0.4,5,1.1l0.1,0h0.9v-4.2l-0.3-0.1c-2-0.8-4.3-1.1-6.6-1.1c-2.4,0-4.4,0.6-5.8,1.9
				c-1.5,1.3-2.2,2.9-2.2,4.9c0,1.5,0.5,2.7,1.4,3.7c0.9,0.9,2,1.6,3.3,1.9l3.5,0.9c1.1,0.3,2.1,0.6,2.9,1c0.9,0.4,0.9,0.9,0.9,1
				c0,1-0.4,2.3-3.9,2.3c-2.5,0-4.8-0.6-6.8-1.8l-0.1-0.1H242v4.3l0.3,0.1c2.2,1.2,4.8,1.9,7.5,1.9c2.8,0,4.9-0.6,6.3-1.8
				c1.5-1.2,2.2-2.7,2.2-4.5C258.2-143.8,257.8-145.2,256.9-146.2z"/>
			<g>
				<path class="st5" d="M185.2-157.9c-1.3,0-2.5,0.2-3.8,0.7c-1.2,0.5-2.3,1.2-3.3,2.1c-0.9,0.9-1.7,2.1-2.3,3.5
					c-0.6,1.4-0.9,3-0.9,4.9c0,1.6,0.2,3.1,0.7,4.4c0.4,1.3,1.1,2.5,2,3.5c0.9,1,2.1,1.7,3.5,2.3c1.4,0.5,3.1,0.8,5,0.8
					c0.7,0,1.5,0,2.2-0.1c0.7-0.1,1.4-0.2,2-0.3c0.6-0.1,1.2-0.3,1.7-0.4c0.5-0.1,0.8-0.3,1.1-0.4l-0.6-3.9
					c-0.6,0.2-1.4,0.5-2.3,0.7c-1,0.2-2.2,0.3-3.4,0.3c-2.1,0-3.8-0.5-4.9-1.4c-1.1-0.9-1.8-2.3-1.9-4l0-0.1h14.5
					c0-0.2,0-0.5,0.1-0.8c0-0.4,0-0.7,0-0.9c0-3.6-0.8-6.3-2.5-8.1C190.5-157,188.2-157.9,185.2-157.9z M189.8-148.8h-9.6l0-0.1
					c0.1-0.6,0.2-1.3,0.5-1.8c0.2-0.6,0.6-1.1,1-1.6c0.4-0.5,0.9-0.9,1.5-1.1c0.6-0.3,1.3-0.4,2.1-0.4c0.8,0,1.4,0.1,2,0.4
					c0.6,0.3,1,0.6,1.4,1.1c0.4,0.5,0.7,1,0.9,1.6C189.7-150.3,189.8-149.6,189.8-148.8L189.8-148.8z"/>
			</g>
			<g>
				<path class="st5" d="M169.2-158c-6.8,0-12.2,4.9-12.2,11.1v0.1c0,6.2,5.3,11,12.2,11c2.5,0,4.6-0.5,6.5-1.5c0,0,0,0-0.1,0
					c-0.1-0.1-0.2-0.1-0.2-0.2l0,0c-0.8-0.9-1.5-1.9-2-3.1c-1.2,0.7-2.5,1-3.9,1c-4.2,0-7.3-3.1-7.3-7.1v-0.1c0-4,3.1-7.1,7.1-7.1
					c1.6,0,2.9,0.4,4.2,1.1c0.6-1.4,1.4-2.6,2.4-3.6C173.9-157.6,171.8-158,169.2-158z"/>
			</g>
		</g>
		<g>
			<g>
				<polygon class="st5" points="80.7,-138.9 76.1,-143.5 83.1,-150.5 76.1,-157.5 80.8,-162.1 92.4,-150.5 				"/>
			</g>
			<g>
				<polygon class="st5" points="87.9,-131.8 83.2,-136.4 94.8,-148 106.4,-136.5 101.8,-131.8 94.8,-138.7 				"/>
			</g>
			<g>
				<polygon class="st5" points="94.8,-153 83.2,-164.5 87.9,-169.2 94.8,-162.3 101.8,-169.2 106.4,-164.6 				"/>
			</g>
		</g>
	</g>
	<g>
		<path class="st5" d="M259.3-156.4H259v-2.2h-0.8v-0.3h1.9v0.3h-0.8V-156.4z"/>
		<path class="st5" d="M261.6-156.4l-0.8-2.2h0c0,0.2,0,0.4,0,0.6v1.6h-0.3v-2.5h0.4l0.8,2h0l0.8-2h0.4v2.5h-0.3v-1.6
			c0-0.2,0-0.4,0-0.6h0l-0.8,2.2H261.6z"/>
	</g>
</g>
<g>
	<g id="UiPath_logo_1_">
		<g>
			<path class="st6" d="M253-84.8V-98c0-5.3-1.6-8.7-6.6-8.7c-2.9,0-5,1.8-6.8,3.5c-1.4,1.5-3.1,3.3-4.8,5.7v3.6
				c1.3-1.5,3.2-3.7,5-5.6c1.8-1.7,3-2.6,4.9-2.6c2.3,0,3.3,1.3,3.3,4.8v12.6H253z"/>
			<path class="st6" d="M234.8-84.8h5v-12.7c-1.3,1.5-3.7,4.1-5,5.6V-84.8z"/>
			<path class="st6" d="M167.3-77.2v-44.6c0-0.8-0.6-1.4-1.4-1.4h-44.5c-0.8,0-1.4,0.6-1.4,1.4v44.6c0,0.8,0.6,1.4,1.4,1.4h44.5
				C166.7-75.8,167.3-76.4,167.3-77.2z M165.4-77.6h-43.6v-43.7h43.6V-77.6z"/>
			<path class="st6" d="M138-84.6c6.5,0,10.6-3.6,10.6-12.9v-15.9h-4.8v16.3c0,6.1-2.4,8.2-5.9,8.2c-3.4,0-5.7-2-5.7-8.2v-16.3h-5
				v15.9C127.3-88.3,131.5-84.6,138-84.6z"/>
			<path class="st6" d="M157.7-109.6c1.8,0,3.1-1.2,3.1-2.8c0-1.7-1.3-2.9-3.1-2.9c-1.8,0-3.1,1.2-3.1,2.9
				C154.7-110.7,156-109.6,157.7-109.6z"/>
			<rect x="155.2" y="-105.9" class="st6" width="5" height="21.2"/>
			<path class="st6" d="M173.5-114.2v5.8c1.6-2,3.1-3.7,4.3-4.7l-0.2-1.1H173.5z"/>
			<path class="st6" d="M178.5-94.8c4.2,4.1,13.5,2.6,14.3-7.6c0.9-11.3-6.5-13.2-10.3-12.2c-1.4,0.4-2.8,1.3-4,2.5
				c-2,1.8-3.7,4.3-5,6.1v3.7c1-1.6,2.6-4,5-6.1c0.5-0.4,1-0.8,1.5-1.2c3.6-2.8,8.2-0.9,7.7,6.4c-0.5,6.9-5.5,8.1-9.2,4.7
				c0-3.5,0-6.1,0-8.2l-5,6.7v15.2h5V-94.8z"/>
			<path class="st6" d="M208.7-87.1h0.1l0.4,2.3h4v-12.5c0-5.9-2.6-9.1-7.9-9.1c-3.3,0-6.3,1.3-8.6,2.7l1.8,3.3
				c1.8-1.1,3.8-2.1,5.9-2.1c2.8,0,3.8,1.9,3.8,4.1c-8.6,0.9-12.4,3.3-12.4,7.8c0,3.7,2.6,6.2,6.3,6.2
				C204.7-84.2,206.8-85.5,208.7-87.1z M200.7-90.8c0-2.1,1.9-3.6,7.6-4.3v4.7c-1.5,1.5-2.9,2.3-4.6,2.3
				C202-88.1,200.7-88.9,200.7-90.8z"/>
			<path class="st6" d="M231-85l-0.9-3.6c-0.6,0.3-1.5,0.5-2.2,0.5c-2,0-3-1.2-3-3.7v-10h5.4v-3.9H225v-5.8h-4.1l-0.6,5.8l-3.3,0.2
				v3.7h3v10c0,4.6,1.8,7.6,6.7,7.6C228.4-84.2,229.9-84.6,231-85z"/>
		</g>
	</g>
	<path class="st6" d="M239.8-105.1v-2.2v-7h-5v13.8v0.6C235.1-100.3,237-102.7,239.8-105.1z"/>
</g>
<g>
	<g>
		<path class="st7" d="M14,25.2v-0.4c0-1.4-1.3-2.5-3-2.5c-1.6,0-2.6,0.9-2.6,2.1c0,0.6,0.3,1.2,0.7,1.5c0.7,0.6,0.8,0.6,4,1.6
			c5.3,1.6,7.4,3.7,7.4,7.6c0,4.6-3.7,7.7-9.2,7.7c-5.6,0-9.1-2.9-9.3-7.8h6.2c0.3,2,1.2,3,3.1,3c1.5,0,2.6-0.9,2.6-2.3
			c0-1.4-0.9-2.1-4.4-3.2C4.5,31,2.2,28.7,2.2,25c0-4.5,3.6-7.5,9.2-7.5c5.4,0,8.7,2.9,8.8,7.7H14z"/>
		<path class="st7" d="M29,31.7c0.6,3.3,3,5.3,6.2,5.3c2.4,0,4.4-1.2,5.5-3.1l6,1.6c-2.4,4.6-6.5,7.2-11.5,7.2
			c-7.5,0-12.9-5.3-12.9-12.7c0-7.4,5.2-12.6,12.5-12.6c7.6,0,12.8,5.3,12.8,12.9l-0.1,1.3H29z M40.9,28c-0.6-3.1-2.8-5-6-5
			c-3.1,0-5.2,1.8-5.8,5H40.9z"/>
		<path class="st7" d="M56.9,18.3v3.5c0.7-1.7,1.1-2.5,2.1-3.2c1-0.7,2.4-1.1,3.8-1.1c0.2,0,0.4,0,0.8,0.1v6.6
			c-0.5-0.1-1-0.1-1.4-0.1c-1.8,0-3.4,0.8-4.3,2.1c-0.8,1.1-1,2.1-1,4.3V42h-6.5V18.3H56.9z"/>
		<path class="st7" d="M89.9,18.3L81.2,42h-6.7L66,18.3h6.8L78,32.4l5.3-14.1H89.9z"/>
		<path class="st7" d="M99.3,11.6c0,2-1.5,3.5-3.6,3.5c-2.1,0-3.6-1.5-3.6-3.6c0-2.1,1.5-3.6,3.6-3.6C97.8,7.9,99.3,9.5,99.3,11.6z
			 M98.9,42h-6.5V18.3h6.5V42z"/>
		<path class="st7" d="M124.9,39.3c-2.7,2.5-5.5,3.5-9.1,3.5c-7.2,0-12.5-5.3-12.5-12.5c0-7.5,5.2-12.8,12.6-12.8
			c3.5,0,6.4,1.2,9.5,3.9l-4.3,3.9c-1.4-1.4-3-2.1-4.9-2.1c-3.6,0-6.2,2.9-6.2,6.8c0,4,2.7,7,6.5,7c1.7,0,2.9-0.5,4.6-2L124.9,39.3z
			"/>
		<path class="st7" d="M132.6,31.7c0.6,3.3,3,5.3,6.2,5.3c2.4,0,4.5-1.2,5.5-3.1l6,1.6c-2.4,4.6-6.5,7.2-11.5,7.2
			c-7.5,0-12.9-5.3-12.9-12.7c0-7.4,5.2-12.6,12.5-12.6c7.6,0,12.8,5.3,12.8,12.9l-0.1,1.3H132.6z M144.5,28c-0.6-3.1-2.8-5-6-5
			c-3.1,0-5.2,1.8-5.8,5H144.5z"/>
		<path class="st7" d="M160.6,18.3v2.9c1.7-2.7,3.5-3.7,6.4-3.7c2.3,0,4.4,0.8,5.8,2.2c1.5,1.5,2.1,3.4,2.1,7.3v15h-6.5V27.3
			c0-1.3-0.2-2.1-0.6-2.8c-0.6-1-1.8-1.6-3.1-1.6c-2.5,0-4.2,1.9-4.2,4.7V42h-6.5V18.3H160.6z"/>
		<path class="st7" d="M245.4,18.3L237.7,42H231l-4.1-14.5L222.6,42h-6.9L208,18.3h6.6l4.8,14.4l4.1-14.4h6.2l4.2,14.4l4.8-14.4
			H245.4z"/>
		<path class="st7" d="M241.6,41.9H241v-2.4h-0.7V39h2.1v0.5h-0.7V41.9z M243.4,41.9h-0.7V39h0.7l0.9,1.7l0.9-1.7h0.7v2.9h-0.7v-1.7
			l-0.9,1.8l-0.9-1.8V41.9z"/>
		<path class="st8" d="M191.5,17.4c-6.8,0.8-12.2,6.4-12.6,13.3c-0.3,4.7,1.8,9,5.1,11.8c1.2,1,2.9,0.9,4-0.2c1.3-1.3,3.1-2.1,5-2.1
			c2,0,3.8,0.8,5,2.1c1.1,1.1,2.8,1.2,4,0.2c3.1-2.6,5.1-6.5,5.1-10.9C207.3,23.1,200.1,16.4,191.5,17.4z M193.1,38.5
			c-3.9,0-7.1-3.2-7.1-7.1c0-3.9,3.2-7.1,7.1-7.1c3.9,0,7.1,3.2,7.1,7.1C200.2,35.4,197,38.5,193.1,38.5z"/>
	</g>
</g>
<g>
	<path class="st9" d="M-161.4,33.1l-1.3,3.7h-0.1c-0.2-0.9-0.6-2.1-1.3-3.7l-7.1-17.8h-6.9v28.3h4.6V26.2c0-1.1,0-2.4-0.1-3.9
		c0-0.8-0.1-1.4-0.1-1.8h0.1c0.2,1.1,0.5,1.9,0.6,2.4l8.5,20.7h3.2l8.4-20.8c0.2-0.5,0.4-1.4,0.6-2.2h0.1c-0.1,2.1-0.2,3.9-0.2,5.1
		v18h4.9V15.3h-6.6L-161.4,33.1"/>
	<polyline class="st9" points="-143,43.6 -138.2,43.6 -138.2,28.3 -138.2,23.4 -143,23.4 -143,33.3 -143,43.6 	"/>
	<path class="st9" d="M-140.5,14.7c-0.8,0-1.5,0.3-2,0.8c-0.6,0.5-0.8,1.2-0.8,2c0,0.8,0.3,1.4,0.8,2c0.6,0.5,1.2,0.8,2,0.8
		c0.8,0,1.5-0.3,2-0.8c0.6-0.5,0.9-1.2,0.9-2c0-0.8-0.3-1.4-0.8-2C-139,15-139.7,14.7-140.5,14.7"/>
	<path class="st9" d="M-121.3,23.2c-0.9-0.2-1.8-0.3-2.7-0.3c-2.2,0-4.1,0.5-5.8,1.4c-1.7,0.9-2.9,2.3-3.8,3.9
		c-0.9,1.7-1.3,3.6-1.3,5.8c0,1.9,0.4,3.7,1.3,5.2c0.8,1.6,2,2.8,3.6,3.6c1.5,0.8,3.3,1.3,5.2,1.3c2.3,0,4.2-0.5,5.7-1.3l0.1,0v-4.4
		l-0.2,0.1c-0.7,0.5-1.5,0.9-2.3,1.2c-0.8,0.3-1.6,0.4-2.3,0.4c-1.9,0-3.4-0.6-4.5-1.7c-1.1-1.2-1.6-2.8-1.6-4.8
		c0-2.1,0.6-3.7,1.7-5c1.1-1.2,2.6-1.8,4.5-1.8c1.6,0,3.1,0.5,4.5,1.6l0.2,0.1v-4.6l-0.1,0C-119.7,23.6-120.4,23.3-121.3,23.2"/>
	<path class="st9" d="M-105.7,23c-1.2,0-2.3,0.4-3.2,1.1c-0.8,0.7-1.4,1.6-1.8,2.7h-0.1v-3.5h-4.8v20.3h4.8V33.3
		c0-1.8,0.4-3.2,1.2-4.3c0.8-1.1,1.8-1.6,3.1-1.6c0.4,0,0.9,0.1,1.4,0.2c0.5,0.1,0.9,0.3,1.1,0.5l0.2,0.1v-4.8l-0.1,0
		C-104.2,23.1-104.9,23-105.7,23"/>
	<path class="st9" d="M-89,38.5c-0.9,1.1-2.2,1.7-4,1.7c-1.7,0-3.1-0.6-4.1-1.7c-1-1.2-1.5-2.8-1.5-4.9c0-2.2,0.5-3.8,1.5-5
		c1-1.2,2.3-1.8,4.1-1.8c1.7,0,3,0.6,4,1.7c1,1.1,1.4,2.8,1.4,5C-87.6,35.7-88.1,37.4-89,38.5 M-92.7,22.9c-3.3,0-6,1-7.9,2.9
		c-1.9,1.9-2.8,4.6-2.8,8c0,3.2,0.9,5.7,2.8,7.6c1.8,1.9,4.4,2.8,7.5,2.8c3.2,0,5.8-1,7.7-3c1.9-2,2.8-4.6,2.8-7.9
		c0-3.2-0.9-5.8-2.7-7.7C-87.1,23.8-89.6,22.9-92.7,22.9"/>
	<path class="st9" d="M-72.1,31.7c-1.5-0.6-2.5-1.1-2.9-1.5c-0.4-0.4-0.6-0.9-0.6-1.6c0-0.6,0.2-1.1,0.7-1.4c0.5-0.4,1.2-0.6,2-0.6
		c0.8,0,1.6,0.1,2.4,0.4c0.8,0.2,1.5,0.6,2.1,1l0.2,0.1v-4.4l-0.1,0c-0.6-0.2-1.3-0.4-2.2-0.6c-0.9-0.2-1.7-0.2-2.4-0.2
		c-2.3,0-4.1,0.6-5.6,1.7c-1.4,1.2-2.2,2.7-2.2,4.5c0,1,0.2,1.8,0.5,2.5c0.3,0.7,0.8,1.4,1.4,1.9c0.6,0.5,1.6,1.1,2.9,1.6
		c1.1,0.5,1.9,0.8,2.4,1.1c0.5,0.3,0.9,0.6,1.1,0.9c0.2,0.3,0.3,0.7,0.3,1.2c0,1.4-1,2-3.1,2c-0.8,0-1.7-0.2-2.6-0.5
		c-1-0.3-1.9-0.8-2.7-1.4l-0.2-0.1V43l0.1,0c0.7,0.3,1.5,0.6,2.6,0.8c1,0.2,1.9,0.3,2.7,0.3c2.5,0,4.4-0.6,5.9-1.7
		c1.5-1.2,2.2-2.7,2.2-4.6c0-1.4-0.4-2.5-1.2-3.5C-68.9,33.4-70.2,32.5-72.1,31.7"/>
	<path class="st9" d="M-50.3,38.5c-0.9,1.1-2.2,1.7-4,1.7c-1.7,0-3.1-0.6-4.1-1.7c-1-1.2-1.5-2.8-1.5-4.9c0-2.2,0.5-3.8,1.5-5
		c1-1.2,2.3-1.8,4.1-1.8c1.7,0,3,0.6,4,1.7c1,1.1,1.4,2.8,1.4,5C-49,35.7-49.4,37.4-50.3,38.5 M-54.1,22.9c-3.3,0-6,1-7.9,2.9
		c-1.9,1.9-2.8,4.6-2.8,8c0,3.2,0.9,5.7,2.8,7.6c1.8,1.9,4.4,2.8,7.5,2.8c3.2,0,5.8-1,7.7-3c1.9-2,2.8-4.6,2.8-7.9
		c0-3.2-0.9-5.8-2.7-7.7C-48.5,23.8-51,22.9-54.1,22.9"/>
	<path class="st9" d="M-18.7,27.2v-3.9h-4.8v-6.1l-0.2,0l-4.5,1.4l-0.1,0v4.6h-7.1v-2.6c0-1.2,0.3-2.1,0.8-2.7
		c0.5-0.6,1.3-0.9,2.2-0.9c0.7,0,1.4,0.2,2.1,0.5l0.2,0.1v-4.1l-0.1,0c-0.7-0.2-1.6-0.4-2.7-0.4c-1.4,0-2.7,0.3-3.8,0.9
		c-1.1,0.6-2,1.5-2.6,2.6c-0.6,1.1-0.9,2.4-0.9,3.8v2.8h-3.4v3.9h3.4v16.4h4.8V27.2h7.1v10.4c0,4.3,2,6.5,6,6.5c0.7,0,1.3-0.1,2-0.2
		c0.7-0.2,1.2-0.3,1.5-0.5l0.1,0v-3.9l-0.2,0.1c-0.3,0.2-0.6,0.3-1,0.4c-0.4,0.1-0.7,0.2-1,0.2c-0.9,0-1.6-0.3-2.1-0.7
		c-0.4-0.5-0.7-1.4-0.7-2.6v-9.6H-18.7"/>
	<polyline class="st10" points="-216.9,28.3 -239.3,28.3 -239.3,5.9 -216.9,5.9 -216.9,28.3 	"/>
	<polyline class="st11" points="-192.2,28.3 -214.6,28.3 -214.6,5.9 -192.2,5.9 -192.2,28.3 	"/>
	<polyline class="st12" points="-216.9,53.1 -239.3,53.1 -239.3,30.7 -216.9,30.7 -216.9,53.1 	"/>
	<polyline class="st13" points="-192.2,53.1 -214.6,53.1 -214.6,30.7 -192.2,30.7 -192.2,53.1 	"/>
</g>
</svg>
