<?xml version="1.0" encoding="utf-8"?>
<!-- Generator: Adobe Illustrator 25.2.1, SVG Export Plug-In . SVG Version: 6.00 Build 0)  -->
<svg version="1.1" id="Layer_1" xmlns="http://www.w3.org/2000/svg" xmlns:xlink="http://www.w3.org/1999/xlink" x="0px" y="0px"
	 viewBox="0 0 191 51" style="enable-background:new 0 0 191 51;" xml:space="preserve">
<style type="text/css">
	.st0{clip-path:url(#SVGID_2_);fill:#262F3E;}
	.st1{clip-path:url(#SVGID_2_);fill:#F7971D;}
	.st2{fill:#0F9BD7;}
	.st3{fill:#FFFFFF;}
	.st4{fill-rule:evenodd;clip-rule:evenodd;fill:#FFFFFF;}
	.st5{fill:#005289;}
	.st6{fill:#0098D8;}
	.st7{fill:#2B4E4E;}
	.st8{fill:#80B7A2;}
	.st9{fill:#777471;}
	.st10{fill:#E34C22;}
	.st11{fill:#6DBB29;}
	.st12{fill:#599DD5;}
	.st13{fill:#F3BF00;}
</style>
<g>
	<g>
		<defs>
			<rect id="SVGID_1_" x="-187" y="-146.2" width="90" height="74.2"/>
		</defs>
		<clipPath id="SVGID_2_">
			<use xlink:href="#SVGID_1_"  style="overflow:visible;"/>
		</clipPath>
		<path class="st0" d="M-121.7-107.3c0.7,0.4,1.7,0.8,3.1,1.1c1.3,0.3,2.7,0.5,4.1,0.5c1.4,0,2.6-0.2,3.8-0.5c1.1-0.3,2.1-0.8,3-1.5
			c0.8-0.7,1.5-1.4,1.9-2.4c0.5-0.9,0.7-2,0.7-3.1c0-1.4-0.4-2.6-1.2-3.7c-0.8-1.1-2.2-1.9-4.1-2.6l-3.8-1.2c-1.4-0.5-2.4-1-2.9-1.5
			c-0.5-0.5-0.8-1.1-0.8-1.9c0-1.1,0.4-1.9,1.3-2.4c0.8-0.5,2-0.7,3.5-0.7c1.9,0,3.6,0.3,5.1,1c0.5,0.2,0.8,0.3,1,0.3
			c0.4,0,0.6-0.3,0.6-0.8v-1.3c0-0.4-0.1-0.7-0.2-0.9c-0.2-0.2-0.4-0.4-0.8-0.7c-0.3-0.2-0.7-0.3-1.1-0.5s-1-0.3-1.5-0.4
			c-0.5-0.1-1.1-0.2-1.7-0.3c-0.6-0.1-1.2-0.1-1.8-0.1c-1.2,0-2.3,0.2-3.4,0.5c-1.1,0.3-2,0.8-2.8,1.4c-0.8,0.6-1.4,1.3-1.9,2.2
			c-0.5,0.9-0.7,1.8-0.7,3c0,1.4,0.4,2.7,1.3,3.9c0.9,1.2,2.3,2.1,4.3,2.7l3.9,1.2c1.3,0.4,2.2,0.9,2.7,1.4c0.5,0.5,0.7,1.1,0.7,1.9
			c0,1.1-0.5,1.9-1.4,2.5c-0.9,0.6-2.2,0.9-3.9,0.9c-1.1,0-2.1-0.1-3.2-0.3c-1.1-0.2-2-0.5-2.9-0.9c-0.3-0.1-0.5-0.2-0.7-0.3
			c-0.2-0.1-0.3-0.1-0.5-0.1c-0.4,0-0.6,0.3-0.6,0.8v1.4c0,0.3,0.1,0.5,0.2,0.7C-122.4-107.8-122.2-107.6-121.7-107.3"/>
		<path class="st0" d="M-166.8-120.3c-1-0.1-1.9-0.2-2.8-0.2c-2.7,0-4.9,0.7-6.5,2.1c-1.6,1.4-2.4,3.2-2.4,5.5c0,2.1,0.7,3.9,2,5.1
			c1.3,1.3,3.1,1.9,5.3,1.9c3.1,0,5.8-1.2,7.8-3.7c0.3,0.6,0.6,1.1,0.8,1.6c0.3,0.5,0.6,0.9,1,1.2c0.2,0.2,0.5,0.4,0.8,0.4
			c0.2,0,0.5-0.1,0.7-0.2l1.7-1.1c0.3-0.3,0.5-0.5,0.5-0.8c0-0.2-0.1-0.4-0.2-0.6c-0.4-0.7-0.7-1.3-0.9-1.9
			c-0.2-0.6-0.3-1.4-0.3-2.4v-8.7c0-2.9-0.7-5.1-2.2-6.6c-1.5-1.4-3.8-2.2-7-2.2c-1.5,0-2.8,0.2-4.2,0.5c-1.3,0.3-2.4,0.7-3.4,1.2
			c-0.4,0.2-0.6,0.4-0.7,0.6c-0.1,0.2-0.2,0.5-0.2,0.9v1.3c0,0.6,0.2,0.8,0.6,0.8c0.1,0,0.2,0,0.4-0.1c0.2,0,0.5-0.2,0.9-0.3
			c0.9-0.4,1.9-0.7,2.9-0.9c1-0.2,1.9-0.3,2.9-0.3c2.1,0,3.5,0.4,4.3,1.2c0.8,0.8,1.3,2.2,1.3,4.3v2
			C-164.8-120-165.8-120.1-166.8-120.3 M-163.8-115.6c0,0.9-0.1,1.7-0.3,2.3c-0.2,0.6-0.5,1.2-0.9,1.7c-0.7,0.8-1.6,1.4-2.5,1.7
			c-1,0.3-1.9,0.5-2.8,0.5c-1.2,0-2.1-0.3-2.8-1c-0.7-0.6-1-1.6-1-2.8c0-1.3,0.4-2.4,1.3-3.1c0.9-0.7,2.2-1.1,4-1.1
			c0.8,0,1.6,0.1,2.5,0.2c0.9,0.1,1.7,0.3,2.4,0.4V-115.6z"/>
		<path class="st0" d="M-150.4-107.8c0.2,0.5,0.3,0.9,0.6,1c0.2,0.2,0.6,0.3,1,0.3h2.3c0.5,0,0.9-0.1,1.1-0.3
			c0.2-0.2,0.4-0.5,0.5-1.1l4.1-17.2l4.1,17.2c0.1,0.5,0.3,0.9,0.5,1.1c0.2,0.2,0.6,0.3,1.1,0.3h2.3c0.5,0,0.8-0.1,1-0.3
			c0.2-0.2,0.4-0.5,0.6-1l6.4-20.6c0.1-0.3,0.2-0.5,0.2-0.7c0-0.2,0-0.3,0-0.4c0-0.4-0.2-0.7-0.7-0.7h-2.5c-0.5,0-0.8,0.1-1,0.3
			c-0.2,0.2-0.4,0.5-0.5,1l-4.6,17.9l-4.2-17.9c-0.1-0.5-0.3-0.9-0.5-1c-0.2-0.2-0.6-0.3-1.1-0.3h-2.1c-0.5,0-0.9,0.1-1.1,0.3
			c-0.2,0.2-0.4,0.5-0.5,1l-4.2,17.6l-4.5-17.6c-0.2-0.5-0.3-0.9-0.5-1c-0.2-0.2-0.6-0.3-1.1-0.3h-2.6c-0.4,0-0.7,0.2-0.7,0.7
			c0,0.2,0.1,0.5,0.2,1.1L-150.4-107.8z"/>
		<path class="st1" d="M-110.8-94.9c-9.8,4.2-20.5,6.2-30.3,6.2c-14.4,0-28.4-4-39.7-10.5c-1-0.6-1.7,0.4-0.9,1.2
			c10.5,9.4,24.3,15.1,39.6,15.1c11,0,23.7-3.4,32.5-9.9C-108.1-93.9-109.3-95.5-110.8-94.9"/>
		<path class="st1" d="M-116.3-98.5c-0.8,0.5-0.6,1.3,0.2,1.2c2.8-0.3,9.1-1.1,10.2,0.3c1.1,1.4-1.2,7.4-2.3,10
			c-0.3,0.8,0.4,1.1,1.1,0.5c4.7-3.9,5.9-12.2,5-13.4C-103.1-101.1-111.3-102.1-116.3-98.5"/>
	</g>
</g>
<g>
	<g>
		<path class="st2" d="M-5.9-48.7c2.3-2.4,5.4-3.8,8.9-3.8c4.6,0,8.7,2.6,10.8,6.4c1.9-0.8,3.9-1.3,6.1-1.3
			c8.3,0,15.1,6.8,15.1,15.2c0,8.4-6.8,15.2-15.1,15.2c-1,0-2-0.1-3-0.3c-1.9,3.4-5.5,5.7-9.6,5.7c-1.7,0-3.4-0.4-4.8-1.1
			C0.6-8.2-3.9-5-9.1-5c-5.4,0-10-3.4-11.8-8.2c-0.8,0.2-1.6,0.2-2.4,0.2C-29.8-13-35-18.3-35-24.8c0-4.4,2.3-8.2,5.8-10.2
			c-0.7-1.7-1.1-3.5-1.1-5.4c0-7.5,6.1-13.6,13.6-13.6C-12.3-54-8.4-51.9-5.9-48.7"/>
		<path class="st3" d="M-24.9-28.6c0,0.1,0,0.1,0,0.2c0.1,0.1,0.3,0.2,0.4,0.2c0.7,0.4,1.4,0.5,2.1,0.5c1.4,0,2.3-0.8,2.3-2v0
			c0-1.1-1-1.6-2-1.8l-0.1,0c-0.7-0.2-1.3-0.4-1.3-0.9v0c0-0.4,0.4-0.7,0.9-0.7c0.6,0,1.4,0.2,1.8,0.5c0,0,0.1,0.1,0.2,0
			c0-0.1,0.3-0.7,0.3-0.8c0-0.1,0-0.1-0.1-0.2c-0.5-0.3-1.3-0.6-2.1-0.6l-0.1,0c-1.3,0-2.2,0.8-2.2,1.9v0c0,1.2,1,1.6,2,1.9l0.2,0
			c0.7,0.2,1.3,0.4,1.3,0.9v0c0,0.4-0.4,0.8-1,0.8c-0.2,0-1,0-1.8-0.5c-0.1-0.1-0.2-0.1-0.2-0.1c0,0-0.1-0.1-0.2,0.1L-24.9-28.6z"/>
		<path class="st3" d="M-3.8-28.6c0,0.1,0,0.1,0,0.2c0.1,0.1,0.3,0.2,0.4,0.2c0.7,0.4,1.4,0.5,2.1,0.5c1.4,0,2.3-0.8,2.3-2v0
			c0-1.1-1-1.6-2-1.8l-0.1,0c-0.7-0.2-1.3-0.4-1.3-0.9v0c0-0.4,0.4-0.7,0.9-0.7c0.6,0,1.4,0.2,1.8,0.5c0,0,0.1,0.1,0.2,0
			c0-0.1,0.3-0.7,0.3-0.8c0-0.1,0-0.1-0.1-0.2c-0.5-0.3-1.3-0.6-2.1-0.6l-0.1,0c-1.3,0-2.2,0.8-2.2,1.9v0c0,1.2,1,1.6,2,1.9l0.2,0
			c0.7,0.2,1.3,0.4,1.3,0.9v0c0,0.4-0.4,0.8-1,0.8c-0.2,0-1,0-1.8-0.5c-0.1-0.1-0.2-0.1-0.2-0.1c0,0-0.1-0.1-0.2,0.1L-3.8-28.6z"/>
		<path class="st3" d="M11.7-32.3c-0.1-0.4-0.3-0.7-0.5-1c-0.2-0.3-0.6-0.5-0.9-0.7c-0.4-0.2-0.8-0.3-1.3-0.3
			c-0.5,0-0.9,0.1-1.3,0.3c-0.4,0.2-0.7,0.4-0.9,0.7c-0.2,0.3-0.4,0.6-0.5,1C6.1-31.9,6-31.5,6-31c0,0.5,0.1,0.9,0.2,1.3
			c0.1,0.4,0.3,0.7,0.5,1C7-28.4,7.3-28.1,7.7-28C8-27.8,8.5-27.7,9-27.7c0.5,0,0.9-0.1,1.3-0.3c0.4-0.2,0.7-0.4,0.9-0.7
			c0.2-0.3,0.4-0.6,0.5-1c0.1-0.4,0.2-0.8,0.2-1.3C11.9-31.5,11.8-31.9,11.7-32.3 M10.5-31c0,0.7-0.1,1.2-0.4,1.6
			C9.9-29,9.5-28.8,9-28.8c-0.5,0-0.9-0.2-1.2-0.6c-0.3-0.4-0.4-0.9-0.4-1.6c0-0.7,0.1-1.2,0.4-1.6C8-33,8.4-33.2,9-33.2
			c0.5,0,0.9,0.2,1.2,0.6C10.4-32.2,10.5-31.7,10.5-31"/>
		<path class="st4" d="M21.6-29c0-0.1-0.2-0.1-0.2-0.1c-0.2,0.1-0.4,0.1-0.6,0.2c-0.2,0-0.4,0-0.7,0c-0.6,0-1-0.2-1.4-0.5
			c-0.3-0.3-0.5-0.9-0.5-1.6c0-0.7,0.2-1.2,0.5-1.6c0.3-0.4,0.7-0.6,1.3-0.6c0.5,0,0.9,0.1,1.3,0.2c0,0,0.1,0,0.1-0.1
			c0.1-0.3,0.2-0.5,0.3-0.8c0-0.1,0-0.1-0.1-0.1c-0.2-0.1-0.5-0.2-0.8-0.2c-0.3,0-0.6-0.1-0.9-0.1c-0.5,0-1,0.1-1.3,0.3
			c-0.4,0.2-0.7,0.4-1,0.7c-0.3,0.3-0.5,0.6-0.6,1c-0.1,0.4-0.2,0.8-0.2,1.3c0,1,0.3,1.8,0.8,2.4c0.5,0.6,1.3,0.9,2.4,0.9
			c0.6,0,1.2-0.1,1.7-0.3c0,0,0.1,0,0-0.1L21.6-29z"/>
		<path class="st4" d="M27.7-32.5c-0.1-0.4-0.4-0.8-0.5-0.9c-0.3-0.3-0.5-0.5-0.8-0.6c-0.3-0.1-0.7-0.2-1.2-0.2
			c-0.5,0-1,0.1-1.3,0.3c-0.4,0.2-0.7,0.4-0.9,0.7c-0.2,0.3-0.4,0.7-0.5,1.1c-0.1,0.4-0.2,0.8-0.2,1.3c0,0.5,0.1,0.9,0.2,1.3
			c0.1,0.4,0.3,0.7,0.6,1c0.3,0.3,0.6,0.5,1,0.7c0.4,0.2,0.9,0.2,1.5,0.2c1.2,0,1.8-0.3,2-0.4c0,0,0.1-0.1,0-0.2l-0.3-0.7
			c0-0.1-0.2-0.1-0.2-0.1c-0.3,0.1-0.7,0.3-1.7,0.3c-0.6,0-1.1-0.2-1.4-0.5c-0.3-0.3-0.4-0.7-0.5-1.3l4.1,0c0,0,0.1,0,0.1-0.1
			C27.8-30.8,27.9-31.6,27.7-32.5 M23.6-31.7c0.1-0.4,0.2-0.7,0.3-1c0.2-0.4,0.6-0.6,1.2-0.6c0.5,0,0.9,0.2,1.1,0.6
			c0.2,0.3,0.2,0.6,0.3,1L23.6-31.7z"/>
		<path class="st4" d="M-4.8-32.5c-0.1-0.4-0.4-0.8-0.5-0.9c-0.3-0.3-0.5-0.5-0.8-0.6c-0.3-0.1-0.7-0.2-1.2-0.2
			c-0.5,0-1,0.1-1.3,0.3c-0.4,0.2-0.7,0.4-0.9,0.7c-0.2,0.3-0.4,0.7-0.5,1.1c-0.1,0.4-0.2,0.8-0.2,1.3c0,0.5,0.1,0.9,0.2,1.3
			c0.1,0.4,0.3,0.7,0.6,1c0.3,0.3,0.6,0.5,1,0.7c0.4,0.2,0.9,0.2,1.5,0.2c1.2,0,1.8-0.3,2-0.4c0,0,0.1-0.1,0-0.2l-0.3-0.7
			c0-0.1-0.2-0.1-0.2-0.1C-5.6-29-6-28.8-7-28.8c-0.6,0-1.1-0.2-1.4-0.5c-0.3-0.3-0.4-0.7-0.5-1.3l4.1,0c0,0,0.1,0,0.1-0.1
			C-4.7-30.8-4.6-31.6-4.8-32.5 M-8.8-31.7c0.1-0.4,0.2-0.7,0.3-1c0.3-0.4,0.6-0.6,1.2-0.6c0.5,0,0.9,0.2,1.1,0.6
			c0.2,0.3,0.2,0.6,0.3,1L-8.8-31.7z"/>
		<path class="st3" d="M-16-31.9c-0.2,0-0.4,0-0.6,0c-0.3,0-0.7,0-1,0.1c-0.3,0.1-0.6,0.2-0.8,0.4c-0.2,0.2-0.4,0.4-0.6,0.7
			c-0.1,0.3-0.2,0.6-0.2,0.9c0,0.4,0.1,0.7,0.2,0.9c0.1,0.3,0.3,0.5,0.5,0.6c0.2,0.2,0.5,0.3,0.8,0.4c0.3,0.1,0.7,0.1,1.1,0.1
			c0.4,0,0.8,0,1.2-0.1c0.4-0.1,0.9-0.2,1-0.2c0.1,0,0.3-0.1,0.3-0.1c0.1,0,0.1-0.1,0.1-0.1l0-3.7c0-0.8-0.2-1.4-0.6-1.8
			c-0.4-0.4-1.1-0.6-1.9-0.6c-0.3,0-0.8,0-1.1,0.1c0,0-0.9,0.2-1.2,0.5c0,0-0.1,0,0,0.2l0.3,0.8c0,0.1,0.1,0.1,0.1,0.1s0,0,0.1,0
			c0.8-0.4,1.8-0.4,1.8-0.4c0.4,0,0.8,0.1,1,0.3c0.2,0.2,0.3,0.4,0.3,1v0.2C-15.7-31.8-16-31.9-16-31.9 M-17.6-29
			c-0.2-0.1-0.2-0.2-0.2-0.2c-0.1-0.1-0.1-0.3-0.1-0.5c0-0.4,0.1-0.6,0.4-0.8c0,0,0.3-0.3,1.2-0.3c0.6,0,1.1,0.1,1.1,0.1v1.8
			c0,0-0.5,0.1-1.1,0.1C-17.3-28.7-17.6-29-17.6-29"/>
		<path class="st4" d="M16.7-33.9c0-0.1,0-0.1-0.1-0.1c-0.1,0-0.4-0.1-0.7-0.1c-0.5,0-0.8,0.1-1,0.2c-0.3,0.1-0.5,0.3-0.7,0.5l0-0.5
			c0-0.1,0-0.1-0.1-0.1h-1C13-34.2,13-34.1,13-34v6.1c0,0.1,0.1,0.1,0.1,0.1h1.1c0.1,0,0.1-0.1,0.1-0.1v-3c0-0.4,0-0.8,0.1-1.1
			c0.1-0.3,0.2-0.5,0.4-0.6c0.1-0.1,0.3-0.2,0.5-0.3c0.2-0.1,0.4-0.1,0.5-0.1c0.2,0,0.4,0.1,0.4,0.1c0.1,0,0.1,0,0.1-0.1
			C16.5-33.3,16.7-33.8,16.7-33.9"/>
		<path class="st4" d="M6.7-36.8c-0.1,0-0.2-0.1-0.4-0.1c-0.2,0-0.3,0-0.6,0c-0.7,0-1.3,0.2-1.7,0.6c-0.4,0.4-0.7,1-0.8,1.8l0,0.3
			H2.3c0,0-0.1,0-0.1,0.1L2-33.2c0,0.1,0,0.1,0.1,0.1H3L2.1-28c-0.1,0.4-0.2,0.7-0.2,1c-0.1,0.3-0.2,0.4-0.3,0.6
			c-0.1,0.1-0.2,0.2-0.4,0.3c-0.1,0-0.3,0.1-0.5,0.1c-0.1,0-0.2,0-0.3,0c-0.1,0-0.1,0-0.2-0.1c0,0-0.1,0-0.1,0.1
			c0,0.1-0.3,0.7-0.3,0.8c0,0.1,0,0.1,0.1,0.2c0.1,0,0.2,0.1,0.4,0.1c0.2,0.1,0.4,0.1,0.6,0.1c0.4,0,0.7-0.1,1-0.2
			c0.3-0.1,0.5-0.3,0.7-0.5c0.2-0.3,0.4-0.5,0.5-0.9c0.1-0.4,0.3-0.8,0.4-1.4l0.9-5.2h1.3c0,0,0.1,0,0.1-0.1L5.9-34
			c0-0.1,0-0.1-0.1-0.1H4.5c0,0,0.1-0.5,0.2-0.9c0.1-0.2,0.2-0.3,0.3-0.4c0.1-0.1,0.2-0.2,0.3-0.2c0.1,0,0.3-0.1,0.4-0.1
			c0.1,0,0.2,0,0.3,0c0.1,0,0.2,0,0.2,0.1c0.1,0,0.1,0,0.2-0.1l0.3-0.9C6.8-36.7,6.7-36.7,6.7-36.8"/>
		<path class="st4" d="M-11.4-28c0,0.1,0,0.1-0.1,0.1h-1.1c-0.1,0-0.1-0.1-0.1-0.1v-8.7c0-0.1,0-0.1,0.1-0.1h1.1
			c0.1,0,0.1,0.1,0.1,0.1V-28z"/>
	</g>
</g>
<g>
	<g>
		<g>
			<polygon class="st5" points="64.6,11 40.7,11 40.7,15.4 50.3,15.4 50.3,39.9 55,39.9 55,15.4 64.6,15.4 			"/>
			<path class="st5" d="M65.5,21L65,18.5h-4.1v21.4h4.7V25.7c0.7-0.9,1.7-1.7,2.9-2.2c1.3-0.6,2.7-0.9,4.2-0.9h0.8v-4.5h-0.8
				C69.8,18.1,67.4,19.1,65.5,21z"/>
			<g>
				<rect x="75.8" y="10.3" class="st5" width="4.9" height="4.9"/>
				<rect x="75.9" y="18.5" class="st5" width="4.7" height="21.4"/>
			</g>
			<path class="st5" d="M134.6,18.1c-2.6,0-4.9,1-7,3l-0.4-2.6h-4.1v21.4h4.7V26c1.9-2.3,3.9-3.5,6-3.5c2.6,0,3.9,1.4,3.9,4.3v13
				h4.7V26.4c0-2.3-0.7-4.3-2-5.9C138.9,18.9,137,18.1,134.6,18.1z"/>
			<path class="st5" d="M151.9,13.4l-8.4,8.3v1h3.8v11.8c0,3.8,2.2,5.8,6.3,5.8c1.4,0,2.6-0.3,3.8-0.9l0.3-0.1v-3.8h-0.9l-0.1,0
				c-1.8,0.8-3.3,0.7-4.2,0.3c-0.4-0.2-0.6-0.7-0.6-1.6V22.6h5.8v-4.1h-5.8V13.4z"/>
			<g>
				<rect x="160.4" y="10.3" class="st5" width="4.9" height="4.9"/>
				<rect x="160.5" y="18.5" class="st5" width="4.7" height="21.4"/>
			</g>
			<path class="st5" d="M182.9,29.8c-0.9-1-2-1.7-3.2-2l-3.5-0.9c-1.1-0.3-2.1-0.6-2.9-1c-0.9-0.4-1-0.9-1-1.3c0-0.6,0.3-1,1-1.4
				c0.7-0.4,1.9-0.7,3.5-0.7c1.6,0,3.3,0.4,5,1.1l0.1,0h0.9v-4.2l-0.3-0.1c-2-0.8-4.3-1.1-6.6-1.1c-2.4,0-4.4,0.6-5.8,1.9
				c-1.5,1.3-2.2,2.9-2.2,4.9c0,1.5,0.5,2.7,1.4,3.7c0.9,0.9,2,1.6,3.3,1.9l3.5,0.9c1.1,0.3,2.1,0.6,2.9,1c0.9,0.4,0.9,0.9,0.9,1
				c0,1-0.4,2.3-3.9,2.3c-2.5,0-4.8-0.6-6.8-1.8l-0.1-0.1H168v4.3l0.3,0.1c2.2,1.2,4.8,1.9,7.5,1.9c2.8,0,4.9-0.6,6.3-1.8
				c1.5-1.2,2.2-2.7,2.2-4.5C184.2,32.2,183.8,30.8,182.9,29.8z"/>
			<g>
				<path class="st5" d="M111.2,18.1c-1.3,0-2.5,0.2-3.8,0.7c-1.2,0.5-2.3,1.2-3.3,2.1c-0.9,0.9-1.7,2.1-2.3,3.5
					c-0.6,1.4-0.9,3-0.9,4.9c0,1.6,0.2,3.1,0.7,4.4c0.4,1.3,1.1,2.5,2,3.5c0.9,1,2.1,1.7,3.5,2.3c1.4,0.5,3.1,0.8,5,0.8
					c0.7,0,1.5,0,2.2-0.1c0.7-0.1,1.4-0.2,2-0.3c0.6-0.1,1.2-0.3,1.7-0.4c0.5-0.1,0.8-0.3,1.1-0.4l-0.6-3.9
					c-0.6,0.2-1.4,0.5-2.3,0.7c-1,0.2-2.2,0.3-3.4,0.3c-2.1,0-3.8-0.5-4.9-1.4c-1.1-0.9-1.8-2.3-1.9-4l0-0.1h14.5
					c0-0.2,0-0.5,0.1-0.8c0-0.4,0-0.7,0-0.9c0-3.6-0.8-6.3-2.5-8.1C116.5,19,114.2,18.1,111.2,18.1z M115.8,27.2h-9.6l0-0.1
					c0.1-0.6,0.2-1.3,0.5-1.8c0.2-0.6,0.6-1.1,1-1.6c0.4-0.5,0.9-0.9,1.5-1.1c0.6-0.3,1.3-0.4,2.1-0.4c0.8,0,1.4,0.1,2,0.4
					c0.6,0.3,1,0.6,1.4,1.1c0.4,0.5,0.7,1,0.9,1.6C115.7,25.7,115.8,26.4,115.8,27.2L115.8,27.2z"/>
			</g>
			<g>
				<path class="st5" d="M95.2,18C88.4,18,83,22.8,83,29v0.1c0,6.2,5.3,11,12.2,11c2.5,0,4.6-0.5,6.5-1.5c0,0,0,0-0.1,0
					c-0.1-0.1-0.2-0.1-0.2-0.2l0,0c-0.8-0.9-1.5-1.9-2-3.1c-1.2,0.7-2.5,1-3.9,1c-4.2,0-7.3-3.1-7.3-7.1V29c0-4,3.1-7.1,7.1-7.1
					c1.6,0,2.9,0.4,4.2,1.1c0.6-1.4,1.4-2.6,2.4-3.6C99.9,18.4,97.8,18,95.2,18z"/>
			</g>
		</g>
		<g>
			<g>
				<polygon class="st5" points="6.7,37.1 2.1,32.5 9.1,25.5 2.1,18.5 6.8,13.9 18.4,25.5 				"/>
			</g>
			<g>
				<polygon class="st5" points="13.9,44.2 9.2,39.6 20.8,28 32.4,39.5 27.8,44.2 20.8,37.3 				"/>
			</g>
			<g>
				<polygon class="st5" points="20.8,23 9.2,11.5 13.9,6.8 20.8,13.7 27.8,6.8 32.4,11.4 				"/>
			</g>
		</g>
	</g>
	<g>
		<path class="st5" d="M185.3,19.6H185v-2.2h-0.8v-0.3h1.9v0.3h-0.8V19.6z"/>
		<path class="st5" d="M187.6,19.6l-0.8-2.2h0c0,0.2,0,0.4,0,0.6v1.6h-0.3v-2.5h0.4l0.8,2h0l0.8-2h0.4v2.5h-0.3V18
			c0-0.2,0-0.4,0-0.6h0l-0.8,2.2H187.6z"/>
	</g>
</g>
<g>
	<g id="UiPath_logo_1_">
		<g>
			<path class="st6" d="M967.7,35.7V20.2c0-6.2-1.9-10.2-7.8-10.2c-3.4,0-5.8,2.1-7.9,4.1c-1.7,1.8-3.6,3.8-5.7,6.7V25
				c1.5-1.7,3.8-4.3,5.9-6.6c2.1-2,3.5-3.1,5.7-3.1c2.8,0,3.9,1.5,3.9,5.6v14.7H967.7z"/>
			<path class="st6" d="M946.3,35.7h5.9V20.8c-1.6,1.7-4.4,4.8-5.9,6.6V35.7z"/>
			<path class="st6" d="M867.2,44.5V-7.7c0-0.9-0.7-1.7-1.7-1.7h-52.1c-0.9,0-1.7,0.7-1.7,1.7v52.3c0,0.9,0.7,1.7,1.7,1.7h52.1
				C866.5,46.2,867.2,45.5,867.2,44.5z M865,44h-51.1V-7.1H865V44z"/>
			<path class="st6" d="M832.9,35.9c7.7,0,12.5-4.3,12.5-15.2V2.1h-5.6v19.1c0,7.2-2.8,9.6-6.9,9.6c-4,0-6.7-2.4-6.7-9.6V2.1h-5.9
				v18.6C820.4,31.6,825.3,35.9,832.9,35.9z"/>
			<path class="st6" d="M856,6.6c2.1,0,3.6-1.4,3.6-3.3c0-2-1.5-3.3-3.6-3.3c-2.1,0-3.6,1.4-3.6,3.3C852.4,5.2,853.9,6.6,856,6.6z"
				/>
			<rect x="853.1" y="11" class="st6" width="5.8" height="24.9"/>
			<path class="st6" d="M874.5,1.1v6.8c1.9-2.3,3.6-4.4,5-5.5l-0.2-1.3H874.5z"/>
			<path class="st6" d="M880.3,24c5,4.8,15.8,3.1,16.8-8.9c1.1-13.2-7.6-15.5-12.1-14.3c-1.6,0.4-3.2,1.5-4.7,2.9
				c-2.3,2.2-4.4,5-5.8,7.2v4.4c1.2-1.9,3.1-4.6,5.8-7.2c0.5-0.5,1.1-1,1.7-1.5c4.3-3.3,9.7-1,9,7.5c-0.6,8.1-6.4,9.4-10.8,5.5
				c0-4.1,0-7.2,0-9.6l-5.8,7.9v17.8h5.8V24z"/>
			<path class="st6" d="M915.8,33h0.2l0.5,2.7h4.7V21.1c0-6.9-3-10.7-9.2-10.7c-3.9,0-7.4,1.5-10.1,3.2l2.1,3.9
				c2.2-1.3,4.5-2.4,6.9-2.4c3.3,0,4.4,2.2,4.5,4.8c-10.1,1.1-14.5,3.9-14.5,9.2c0,4.3,3,7.2,7.3,7.2C911,36.3,913.6,34.8,915.8,33z
				 M906.4,28.6c0-2.5,2.2-4.2,8.9-5.1v5.5c-1.8,1.7-3.4,2.7-5.4,2.7C907.9,31.8,906.4,30.8,906.4,28.6z"/>
			<path class="st6" d="M941.9,35.4l-1-4.3c-0.7,0.3-1.7,0.6-2.6,0.6c-2.4,0-3.5-1.4-3.5-4.3V15.6h6.3V11h-6.3V4.2H930l-0.7,6.7
				l-3.8,0.3v4.3h3.5v11.8c0,5.3,2.1,9,7.9,9C938.8,36.3,940.5,35.9,941.9,35.4z"/>
		</g>
	</g>
	<path class="st6" d="M952.2,11.9V9.3V1.1h-5.9v16.2V18C946.7,17.5,949,14.6,952.2,11.9z"/>
</g>
<g>
	<g>
		<path class="st7" d="M1036.6,18.1v-0.4c0-1.4-1.3-2.5-3-2.5c-1.6,0-2.6,0.9-2.6,2.1c0,0.6,0.3,1.2,0.7,1.5c0.7,0.6,0.8,0.6,4,1.6
			c5.3,1.6,7.4,3.7,7.4,7.6c0,4.6-3.7,7.7-9.2,7.7c-5.6,0-9.1-2.9-9.3-7.8h6.2c0.3,2,1.2,3,3.1,3c1.5,0,2.6-0.9,2.6-2.3
			c0-1.4-0.9-2.1-4.4-3.2c-5.1-1.5-7.4-3.8-7.4-7.6c0-4.5,3.6-7.5,9.2-7.5c5.4,0,8.7,2.9,8.8,7.7H1036.6z"/>
		<path class="st7" d="M1051.6,24.6c0.6,3.3,3,5.3,6.2,5.3c2.4,0,4.4-1.2,5.5-3.1l6,1.6c-2.4,4.6-6.5,7.2-11.5,7.2
			c-7.5,0-12.9-5.3-12.9-12.7c0-7.4,5.2-12.6,12.5-12.6c7.6,0,12.8,5.3,12.8,12.9l-0.1,1.3H1051.6z M1063.5,20.9c-0.6-3.1-2.8-5-6-5
			c-3.1,0-5.2,1.8-5.8,5H1063.5z"/>
		<path class="st7" d="M1079.5,11.2v3.5c0.7-1.7,1.1-2.5,2.1-3.2c1-0.7,2.4-1.1,3.8-1.1c0.2,0,0.4,0,0.8,0.1v6.6
			c-0.5-0.1-1-0.1-1.4-0.1c-1.8,0-3.4,0.8-4.3,2.1c-0.8,1.1-1,2.1-1,4.3v11.4h-6.5V11.2H1079.5z"/>
		<path class="st7" d="M1112.5,11.2l-8.6,23.7h-6.7l-8.5-23.7h6.8l5.2,14.1l5.3-14.1H1112.5z"/>
		<path class="st7" d="M1121.9,4.5c0,2-1.5,3.5-3.6,3.5c-2.1,0-3.6-1.5-3.6-3.6c0-2.1,1.5-3.6,3.6-3.6
			C1120.4,0.8,1121.9,2.4,1121.9,4.5z M1121.5,34.9h-6.5V11.2h6.5V34.9z"/>
		<path class="st7" d="M1147.5,32.2c-2.7,2.5-5.5,3.5-9.1,3.5c-7.2,0-12.5-5.3-12.5-12.5c0-7.5,5.2-12.8,12.6-12.8
			c3.5,0,6.4,1.2,9.5,3.9l-4.3,3.9c-1.4-1.4-3-2.1-4.9-2.1c-3.6,0-6.2,2.9-6.2,6.8c0,4,2.7,7,6.5,7c1.7,0,2.9-0.5,4.6-2L1147.5,32.2
			z"/>
		<path class="st7" d="M1155.2,24.6c0.6,3.3,3,5.3,6.2,5.3c2.4,0,4.5-1.2,5.5-3.1l6,1.6c-2.4,4.6-6.5,7.2-11.5,7.2
			c-7.5,0-12.9-5.3-12.9-12.7c0-7.4,5.2-12.6,12.5-12.6c7.6,0,12.8,5.3,12.8,12.9l-0.1,1.3H1155.2z M1167.1,20.9c-0.6-3.1-2.8-5-6-5
			c-3.1,0-5.2,1.8-5.8,5H1167.1z"/>
		<path class="st7" d="M1183.2,11.2v2.9c1.7-2.7,3.5-3.7,6.4-3.7c2.3,0,4.4,0.8,5.8,2.2c1.5,1.5,2.1,3.4,2.1,7.3v15h-6.5V20.2
			c0-1.3-0.2-2.1-0.6-2.8c-0.6-1-1.8-1.6-3.1-1.6c-2.5,0-4.2,1.9-4.2,4.7v14.4h-6.5V11.2H1183.2z"/>
		<path class="st7" d="M1268,11.2l-7.7,23.7h-6.8l-4.1-14.5l-4.2,14.5h-6.9l-7.6-23.7h6.6l4.8,14.4l4.1-14.4h6.2l4.2,14.4l4.8-14.4
			H1268z"/>
		<path class="st7" d="M1264.2,34.8h-0.7v-2.4h-0.7v-0.5h2.1v0.5h-0.7V34.8z M1266,34.8h-0.7v-2.9h0.7l0.9,1.7l0.9-1.7h0.7v2.9h-0.7
			v-1.7l-0.9,1.8l-0.9-1.8V34.8z"/>
		<path class="st8" d="M1214.1,10.3c-6.8,0.8-12.2,6.4-12.6,13.3c-0.3,4.7,1.8,9,5.1,11.8c1.2,1,2.9,0.9,4-0.2
			c1.3-1.3,3.1-2.1,5-2.1c2,0,3.8,0.8,5,2.1c1.1,1.1,2.8,1.2,4,0.2c3.1-2.6,5.1-6.5,5.1-10.9C1229.9,16,1222.6,9.3,1214.1,10.3z
			 M1215.7,31.5c-3.9,0-7.1-3.2-7.1-7.1c0-3.9,3.2-7.1,7.1-7.1c3.9,0,7.1,3.2,7.1,7.1C1222.8,28.3,1219.6,31.5,1215.7,31.5z"/>
	</g>
</g>
<g>
	<path class="st9" d="M-190.4,33.1l-1.3,3.7h-0.1c-0.2-0.9-0.6-2.1-1.3-3.7l-7.1-17.8h-6.9v28.3h4.6V26.2c0-1.1,0-2.4-0.1-3.9
		c0-0.8-0.1-1.4-0.1-1.8h0.1c0.2,1.1,0.5,1.9,0.6,2.4l8.5,20.7h3.2l8.4-20.8c0.2-0.5,0.4-1.4,0.6-2.2h0.1c-0.1,2.1-0.2,3.9-0.2,5.1
		v18h4.9V15.3h-6.6L-190.4,33.1"/>
	<polyline class="st9" points="-172,43.6 -167.2,43.6 -167.2,28.3 -167.2,23.4 -172,23.4 -172,33.3 -172,43.6 	"/>
	<path class="st9" d="M-169.5,14.7c-0.8,0-1.5,0.3-2,0.8c-0.6,0.5-0.8,1.2-0.8,2c0,0.8,0.3,1.4,0.8,2c0.6,0.5,1.2,0.8,2,0.8
		c0.8,0,1.5-0.3,2-0.8c0.6-0.5,0.9-1.2,0.9-2c0-0.8-0.3-1.4-0.8-2C-168,15-168.7,14.7-169.5,14.7"/>
	<path class="st9" d="M-150.3,23.2c-0.9-0.2-1.8-0.3-2.7-0.3c-2.2,0-4.1,0.5-5.8,1.4c-1.7,0.9-2.9,2.3-3.8,3.9
		c-0.9,1.7-1.3,3.6-1.3,5.8c0,1.9,0.4,3.7,1.3,5.2c0.8,1.6,2,2.8,3.6,3.6c1.5,0.8,3.3,1.3,5.2,1.3c2.3,0,4.2-0.5,5.7-1.3l0.1,0v-4.4
		l-0.2,0.1c-0.7,0.5-1.5,0.9-2.3,1.2c-0.8,0.3-1.6,0.4-2.3,0.4c-1.9,0-3.4-0.6-4.5-1.7c-1.1-1.2-1.6-2.8-1.6-4.8
		c0-2.1,0.6-3.7,1.7-5c1.1-1.2,2.6-1.8,4.5-1.8c1.6,0,3.1,0.5,4.5,1.6l0.2,0.1v-4.6l-0.1,0C-148.7,23.6-149.4,23.3-150.3,23.2"/>
	<path class="st9" d="M-134.7,23c-1.2,0-2.3,0.4-3.2,1.1c-0.8,0.7-1.4,1.6-1.8,2.7h-0.1v-3.5h-4.8v20.3h4.8V33.3
		c0-1.8,0.4-3.2,1.2-4.3c0.8-1.1,1.8-1.6,3.1-1.6c0.4,0,0.9,0.1,1.4,0.2c0.5,0.1,0.9,0.3,1.1,0.5l0.2,0.1v-4.8l-0.1,0
		C-133.2,23.1-133.9,23-134.7,23"/>
	<path class="st9" d="M-118,38.5c-0.9,1.1-2.2,1.7-4,1.7c-1.7,0-3.1-0.6-4.1-1.7c-1-1.2-1.5-2.8-1.5-4.9c0-2.2,0.5-3.8,1.5-5
		c1-1.2,2.3-1.8,4.1-1.8c1.7,0,3,0.6,4,1.7c1,1.1,1.4,2.8,1.4,5C-116.6,35.7-117.1,37.4-118,38.5 M-121.7,22.9c-3.3,0-6,1-7.9,2.9
		c-1.9,1.9-2.8,4.6-2.8,8c0,3.2,0.9,5.7,2.8,7.6c1.8,1.9,4.4,2.8,7.5,2.8c3.2,0,5.8-1,7.7-3c1.9-2,2.8-4.6,2.8-7.9
		c0-3.2-0.9-5.8-2.7-7.7C-116.1,23.8-118.6,22.9-121.7,22.9"/>
	<path class="st9" d="M-101.1,31.7c-1.5-0.6-2.5-1.1-2.9-1.5c-0.4-0.4-0.6-0.9-0.6-1.6c0-0.6,0.2-1.1,0.7-1.4c0.5-0.4,1.2-0.6,2-0.6
		c0.8,0,1.6,0.1,2.4,0.4c0.8,0.2,1.5,0.6,2.1,1l0.2,0.1v-4.4l-0.1,0c-0.6-0.2-1.3-0.4-2.2-0.6c-0.9-0.2-1.7-0.2-2.4-0.2
		c-2.3,0-4.1,0.6-5.6,1.7c-1.4,1.2-2.2,2.7-2.2,4.5c0,1,0.2,1.8,0.5,2.5c0.3,0.7,0.8,1.4,1.4,1.9c0.6,0.5,1.6,1.1,2.9,1.6
		c1.1,0.5,1.9,0.8,2.4,1.1c0.5,0.3,0.9,0.6,1.1,0.9c0.2,0.3,0.3,0.7,0.3,1.2c0,1.4-1,2-3.1,2c-0.8,0-1.7-0.2-2.6-0.5
		c-1-0.3-1.9-0.8-2.7-1.4l-0.2-0.1V43l0.1,0c0.7,0.3,1.5,0.6,2.6,0.8c1,0.2,1.9,0.3,2.7,0.3c2.5,0,4.4-0.6,5.9-1.7
		c1.5-1.2,2.2-2.7,2.2-4.6c0-1.4-0.4-2.5-1.2-3.5C-97.9,33.4-99.2,32.5-101.1,31.7"/>
	<path class="st9" d="M-79.3,38.5c-0.9,1.1-2.2,1.7-4,1.7c-1.7,0-3.1-0.6-4.1-1.7c-1-1.2-1.5-2.8-1.5-4.9c0-2.2,0.5-3.8,1.5-5
		c1-1.2,2.3-1.8,4.1-1.8c1.7,0,3,0.6,4,1.7c1,1.1,1.4,2.8,1.4,5C-78,35.7-78.4,37.4-79.3,38.5 M-83.1,22.9c-3.3,0-6,1-7.9,2.9
		c-1.9,1.9-2.8,4.6-2.8,8c0,3.2,0.9,5.7,2.8,7.6c1.8,1.9,4.4,2.8,7.5,2.8c3.2,0,5.8-1,7.7-3c1.9-2,2.8-4.6,2.8-7.9
		c0-3.2-0.9-5.8-2.7-7.7C-77.5,23.8-80,22.9-83.1,22.9"/>
	<path class="st9" d="M-47.7,27.2v-3.9h-4.8v-6.1l-0.2,0l-4.5,1.4l-0.1,0v4.6h-7.1v-2.6c0-1.2,0.3-2.1,0.8-2.7
		c0.5-0.6,1.3-0.9,2.2-0.9c0.7,0,1.4,0.2,2.1,0.5l0.2,0.1v-4.1l-0.1,0c-0.7-0.2-1.6-0.4-2.7-0.4c-1.4,0-2.7,0.3-3.8,0.9
		c-1.1,0.6-2,1.5-2.6,2.6c-0.6,1.1-0.9,2.4-0.9,3.8v2.8h-3.4v3.9h3.4v16.4h4.8V27.2h7.1v10.4c0,4.3,2,6.5,6,6.5c0.7,0,1.3-0.1,2-0.2
		c0.7-0.2,1.2-0.3,1.5-0.5l0.1,0v-3.9l-0.2,0.1c-0.3,0.2-0.6,0.3-1,0.4c-0.4,0.1-0.7,0.2-1,0.2c-0.9,0-1.6-0.3-2.1-0.7
		c-0.4-0.5-0.7-1.4-0.7-2.6v-9.6H-47.7"/>
	<polyline class="st10" points="-245.9,28.3 -268.3,28.3 -268.3,5.9 -245.9,5.9 -245.9,28.3 	"/>
	<polyline class="st11" points="-221.2,28.3 -243.6,28.3 -243.6,5.9 -221.2,5.9 -221.2,28.3 	"/>
	<polyline class="st12" points="-245.9,53.1 -268.3,53.1 -268.3,30.7 -245.9,30.7 -245.9,53.1 	"/>
	<polyline class="st13" points="-221.2,53.1 -243.6,53.1 -243.6,30.7 -221.2,30.7 -221.2,53.1 	"/>
</g>
</svg>
