<?xml version="1.0" encoding="utf-8"?>
<!-- Generator: Adobe Illustrator 25.2.1, SVG Export Plug-In . SVG Version: 6.00 Build 0)  -->
<svg version="1.1" id="Layer_1" xmlns="http://www.w3.org/2000/svg" xmlns:xlink="http://www.w3.org/1999/xlink" x="0px" y="0px"
	 viewBox="0 0 140 51" style="enable-background:new 0 0 140 51;" xml:space="preserve">
<style type="text/css">
	.st0{clip-path:url(#SVGID_2_);fill:#262F3E;}
	.st1{clip-path:url(#SVGID_2_);fill:#F7971D;}
	.st2{fill:#0F9BD7;}
	.st3{fill:#FFFFFF;}
	.st4{fill-rule:evenodd;clip-rule:evenodd;fill:#FFFFFF;}
	.st5{fill:#005289;}
	.st6{fill:#0098D8;}
	.st7{fill:#2B4E4E;}
	.st8{fill:#80B7A2;}
	.st9{fill:#777471;}
	.st10{fill:#E34C22;}
	.st11{fill:#6DBB29;}
	.st12{fill:#599DD5;}
	.st13{fill:#F3BF00;}
</style>
<g>
	<g>
		<defs>
			<rect id="SVGID_1_" x="-212" y="-146.2" width="90" height="74.2"/>
		</defs>
		<clipPath id="SVGID_2_">
			<use xlink:href="#SVGID_1_"  style="overflow:visible;"/>
		</clipPath>
		<path class="st0" d="M-146.7-107.3c0.7,0.4,1.7,0.8,3.1,1.1c1.3,0.3,2.7,0.5,4.1,0.5c1.4,0,2.6-0.2,3.8-0.5c1.1-0.3,2.1-0.8,3-1.5
			c0.8-0.7,1.5-1.4,1.9-2.4c0.5-0.9,0.7-2,0.7-3.1c0-1.4-0.4-2.6-1.2-3.7c-0.8-1.1-2.2-1.9-4.1-2.6l-3.8-1.2c-1.4-0.5-2.4-1-2.9-1.5
			c-0.5-0.5-0.8-1.1-0.8-1.9c0-1.1,0.4-1.9,1.3-2.4c0.8-0.5,2-0.7,3.5-0.7c1.9,0,3.6,0.3,5.1,1c0.5,0.2,0.8,0.3,1,0.3
			c0.4,0,0.6-0.3,0.6-0.8v-1.3c0-0.4-0.1-0.7-0.2-0.9c-0.2-0.2-0.4-0.4-0.8-0.7c-0.3-0.2-0.7-0.3-1.1-0.5c-0.5-0.2-1-0.3-1.5-0.4
			c-0.5-0.1-1.1-0.2-1.7-0.3c-0.6-0.1-1.2-0.1-1.8-0.1c-1.2,0-2.3,0.2-3.4,0.5c-1.1,0.3-2,0.8-2.8,1.4c-0.8,0.6-1.4,1.3-1.9,2.2
			c-0.5,0.9-0.7,1.8-0.7,3c0,1.4,0.4,2.7,1.3,3.9c0.9,1.2,2.3,2.1,4.3,2.7l3.9,1.2c1.3,0.4,2.2,0.9,2.7,1.4c0.5,0.5,0.7,1.1,0.7,1.9
			c0,1.1-0.5,1.9-1.4,2.5c-0.9,0.6-2.2,0.9-3.9,0.9c-1.1,0-2.1-0.1-3.2-0.3c-1.1-0.2-2-0.5-2.9-0.9c-0.3-0.1-0.5-0.2-0.7-0.3
			c-0.2-0.1-0.3-0.1-0.5-0.1c-0.4,0-0.6,0.3-0.6,0.8v1.4c0,0.3,0.1,0.5,0.2,0.7C-147.4-107.8-147.2-107.6-146.7-107.3"/>
		<path class="st0" d="M-191.8-120.3c-1-0.1-1.9-0.2-2.8-0.2c-2.7,0-4.9,0.7-6.5,2.1c-1.6,1.4-2.4,3.2-2.4,5.5c0,2.1,0.7,3.9,2,5.1
			c1.3,1.3,3.1,1.9,5.3,1.9c3.1,0,5.8-1.2,7.8-3.7c0.3,0.6,0.6,1.1,0.8,1.6c0.3,0.5,0.6,0.9,1,1.2c0.2,0.2,0.5,0.4,0.8,0.4
			c0.2,0,0.5-0.1,0.7-0.2l1.7-1.1c0.3-0.3,0.5-0.5,0.5-0.8c0-0.2-0.1-0.4-0.2-0.6c-0.4-0.7-0.7-1.3-0.9-1.9
			c-0.2-0.6-0.3-1.4-0.3-2.4v-8.7c0-2.9-0.7-5.1-2.2-6.6c-1.5-1.4-3.8-2.2-7-2.2c-1.5,0-2.8,0.2-4.2,0.5c-1.3,0.3-2.4,0.7-3.4,1.2
			c-0.4,0.2-0.6,0.4-0.7,0.6c-0.1,0.2-0.2,0.5-0.2,0.9v1.3c0,0.6,0.2,0.8,0.6,0.8c0.1,0,0.2,0,0.4-0.1c0.2,0,0.5-0.2,0.9-0.3
			c0.9-0.4,1.9-0.7,2.9-0.9c1-0.2,1.9-0.3,2.9-0.3c2.1,0,3.5,0.4,4.3,1.2c0.8,0.8,1.3,2.2,1.3,4.3v2
			C-189.8-120-190.8-120.1-191.8-120.3 M-188.8-115.6c0,0.9-0.1,1.7-0.3,2.3c-0.2,0.6-0.5,1.2-0.9,1.7c-0.7,0.8-1.6,1.4-2.5,1.7
			c-1,0.3-1.9,0.5-2.8,0.5c-1.2,0-2.1-0.3-2.8-1c-0.7-0.6-1-1.6-1-2.8c0-1.3,0.4-2.4,1.3-3.1c0.9-0.7,2.2-1.1,4-1.1
			c0.8,0,1.6,0.1,2.5,0.2c0.9,0.1,1.7,0.3,2.4,0.4V-115.6z"/>
		<path class="st0" d="M-175.4-107.8c0.2,0.5,0.3,0.9,0.6,1c0.2,0.2,0.6,0.3,1,0.3h2.3c0.5,0,0.9-0.1,1.1-0.3
			c0.2-0.2,0.4-0.5,0.5-1.1l4.1-17.2l4.1,17.2c0.1,0.5,0.3,0.9,0.5,1.1c0.2,0.2,0.6,0.3,1.1,0.3h2.3c0.5,0,0.8-0.1,1-0.3
			c0.2-0.2,0.4-0.5,0.6-1l6.4-20.6c0.1-0.3,0.2-0.5,0.2-0.7c0-0.2,0-0.3,0-0.4c0-0.4-0.2-0.7-0.7-0.7h-2.5c-0.5,0-0.8,0.1-1,0.3
			c-0.2,0.2-0.4,0.5-0.5,1l-4.6,17.9l-4.2-17.9c-0.1-0.5-0.3-0.9-0.5-1c-0.2-0.2-0.6-0.3-1.1-0.3h-2.1c-0.5,0-0.9,0.1-1.1,0.3
			c-0.2,0.2-0.4,0.5-0.5,1l-4.2,17.6l-4.5-17.6c-0.2-0.5-0.3-0.9-0.5-1c-0.2-0.2-0.6-0.3-1.1-0.3h-2.6c-0.4,0-0.7,0.2-0.7,0.7
			c0,0.2,0.1,0.5,0.2,1.1L-175.4-107.8z"/>
		<path class="st1" d="M-135.8-94.9c-9.8,4.2-20.5,6.2-30.3,6.2c-14.4,0-28.4-4-39.7-10.5c-1-0.6-1.7,0.4-0.9,1.2
			c10.5,9.4,24.3,15.1,39.6,15.1c11,0,23.7-3.4,32.5-9.9C-133.1-93.9-134.3-95.5-135.8-94.9"/>
		<path class="st1" d="M-141.3-98.5c-0.8,0.5-0.6,1.3,0.2,1.2c2.8-0.3,9.1-1.1,10.2,0.3c1.1,1.4-1.2,7.4-2.3,10
			c-0.3,0.8,0.4,1.1,1.1,0.5c4.7-3.9,5.9-12.2,5-13.4C-128.1-101.1-136.3-102.1-141.3-98.5"/>
	</g>
</g>
<g>
	<g>
		<path class="st2" d="M-30.9-48.7c2.3-2.4,5.4-3.8,8.9-3.8c4.6,0,8.7,2.6,10.8,6.4c1.9-0.8,3.9-1.3,6.1-1.3
			c8.3,0,15.1,6.8,15.1,15.2c0,8.4-6.8,15.2-15.1,15.2c-1,0-2-0.1-3-0.3c-1.9,3.4-5.5,5.7-9.6,5.7c-1.7,0-3.4-0.4-4.8-1.1
			C-24.4-8.2-28.9-5-34.1-5c-5.4,0-10-3.4-11.8-8.2c-0.8,0.2-1.6,0.2-2.4,0.2C-54.8-13-60-18.3-60-24.8c0-4.4,2.3-8.2,5.8-10.2
			c-0.7-1.7-1.1-3.5-1.1-5.4c0-7.5,6.1-13.6,13.6-13.6C-37.3-54-33.4-51.9-30.9-48.7"/>
		<path class="st3" d="M-49.9-28.6c0,0.1,0,0.1,0,0.2c0.1,0.1,0.3,0.2,0.4,0.2c0.7,0.4,1.4,0.5,2.1,0.5c1.4,0,2.3-0.8,2.3-2v0
			c0-1.1-1-1.6-2-1.8l-0.1,0c-0.7-0.2-1.3-0.4-1.3-0.9v0c0-0.4,0.4-0.7,0.9-0.7c0.6,0,1.4,0.2,1.8,0.5c0,0,0.1,0.1,0.2,0
			c0-0.1,0.3-0.7,0.3-0.8c0-0.1,0-0.1-0.1-0.2c-0.5-0.3-1.3-0.6-2.1-0.6l-0.1,0c-1.3,0-2.2,0.8-2.2,1.9v0c0,1.2,1,1.6,2,1.9l0.2,0
			c0.7,0.2,1.3,0.4,1.3,0.9v0c0,0.4-0.4,0.8-1,0.8c-0.2,0-1,0-1.8-0.5c-0.1-0.1-0.2-0.1-0.2-0.1c0,0-0.1-0.1-0.2,0.1L-49.9-28.6z"/>
		<path class="st3" d="M-28.8-28.6c0,0.1,0,0.1,0,0.2c0.1,0.1,0.3,0.2,0.4,0.2c0.7,0.4,1.4,0.5,2.1,0.5c1.4,0,2.3-0.8,2.3-2v0
			c0-1.1-1-1.6-2-1.8l-0.1,0c-0.7-0.2-1.3-0.4-1.3-0.9v0c0-0.4,0.4-0.7,0.9-0.7c0.6,0,1.4,0.2,1.8,0.5c0,0,0.1,0.1,0.2,0
			c0-0.1,0.3-0.7,0.3-0.8c0-0.1,0-0.1-0.1-0.2c-0.5-0.3-1.3-0.6-2.1-0.6l-0.1,0c-1.3,0-2.2,0.8-2.2,1.9v0c0,1.2,1,1.6,2,1.9l0.2,0
			c0.7,0.2,1.3,0.4,1.3,0.9v0c0,0.4-0.4,0.8-1,0.8c-0.2,0-1,0-1.8-0.5c-0.1-0.1-0.2-0.1-0.2-0.1c0,0-0.1-0.1-0.2,0.1L-28.8-28.6z"/>
		<path class="st3" d="M-13.3-32.3c-0.1-0.4-0.3-0.7-0.5-1c-0.2-0.3-0.6-0.5-0.9-0.7c-0.4-0.2-0.8-0.3-1.3-0.3
			c-0.5,0-0.9,0.1-1.3,0.3s-0.7,0.4-0.9,0.7c-0.2,0.3-0.4,0.6-0.5,1c-0.1,0.4-0.2,0.8-0.2,1.3c0,0.5,0.1,0.9,0.2,1.3
			c0.1,0.4,0.3,0.7,0.5,1c0.2,0.3,0.6,0.5,0.9,0.7c0.4,0.2,0.8,0.3,1.3,0.3c0.5,0,0.9-0.1,1.3-0.3c0.4-0.2,0.7-0.4,0.9-0.7
			c0.2-0.3,0.4-0.6,0.5-1c0.1-0.4,0.2-0.8,0.2-1.3C-13.1-31.5-13.2-31.9-13.3-32.3 M-14.5-31c0,0.7-0.1,1.2-0.4,1.6
			c-0.3,0.4-0.6,0.6-1.2,0.6c-0.5,0-0.9-0.2-1.2-0.6c-0.3-0.4-0.4-0.9-0.4-1.6c0-0.7,0.1-1.2,0.4-1.6c0.2-0.4,0.6-0.6,1.2-0.6
			c0.5,0,0.9,0.2,1.2,0.6C-14.6-32.2-14.5-31.7-14.5-31"/>
		<path class="st4" d="M-3.4-29c0-0.1-0.2-0.1-0.2-0.1C-3.8-29-4-28.9-4.2-28.9c-0.2,0-0.4,0-0.7,0c-0.6,0-1-0.2-1.4-0.5
			c-0.3-0.3-0.5-0.9-0.5-1.6c0-0.7,0.2-1.2,0.5-1.6c0.3-0.4,0.7-0.6,1.3-0.6c0.5,0,0.9,0.1,1.3,0.2c0,0,0.1,0,0.1-0.1
			c0.1-0.3,0.2-0.5,0.3-0.8c0-0.1,0-0.1-0.1-0.1c-0.2-0.1-0.5-0.2-0.8-0.2c-0.3,0-0.6-0.1-0.9-0.1c-0.5,0-1,0.1-1.3,0.3
			c-0.4,0.2-0.7,0.4-1,0.7c-0.3,0.3-0.5,0.6-0.6,1C-8-31.9-8.1-31.5-8.1-31c0,1,0.3,1.8,0.8,2.4c0.5,0.6,1.3,0.9,2.4,0.9
			c0.6,0,1.2-0.1,1.7-0.3c0,0,0.1,0,0-0.1L-3.4-29z"/>
		<path class="st4" d="M2.7-32.5c-0.1-0.4-0.4-0.8-0.5-0.9c-0.3-0.3-0.5-0.5-0.8-0.6c-0.3-0.1-0.7-0.2-1.2-0.2c-0.5,0-1,0.1-1.3,0.3
			c-0.4,0.2-0.7,0.4-0.9,0.7c-0.2,0.3-0.4,0.7-0.5,1.1c-0.1,0.4-0.2,0.8-0.2,1.3c0,0.5,0.1,0.9,0.2,1.3c0.1,0.4,0.3,0.7,0.6,1
			c0.3,0.3,0.6,0.5,1,0.7c0.4,0.2,0.9,0.2,1.5,0.2c1.2,0,1.8-0.3,2-0.4c0,0,0.1-0.1,0-0.2l-0.3-0.7c0-0.1-0.2-0.1-0.2-0.1
			c-0.3,0.1-0.7,0.3-1.7,0.3c-0.6,0-1.1-0.2-1.4-0.5c-0.3-0.3-0.4-0.7-0.5-1.3l4.1,0c0,0,0.1,0,0.1-0.1C2.8-30.8,2.9-31.6,2.7-32.5
			 M-1.4-31.7c0.1-0.4,0.2-0.7,0.3-1c0.2-0.4,0.6-0.6,1.2-0.6c0.5,0,0.9,0.2,1.1,0.6c0.2,0.3,0.2,0.6,0.3,1L-1.4-31.7z"/>
		<path class="st4" d="M-29.8-32.5c-0.1-0.4-0.4-0.8-0.5-0.9c-0.3-0.3-0.5-0.5-0.8-0.6c-0.3-0.1-0.7-0.2-1.2-0.2
			c-0.5,0-1,0.1-1.3,0.3c-0.4,0.2-0.7,0.4-0.9,0.7c-0.2,0.3-0.4,0.7-0.5,1.1c-0.1,0.4-0.2,0.8-0.2,1.3c0,0.5,0.1,0.9,0.2,1.3
			c0.1,0.4,0.3,0.7,0.6,1c0.3,0.3,0.6,0.5,1,0.7c0.4,0.2,0.9,0.2,1.5,0.2c1.2,0,1.8-0.3,2-0.4c0,0,0.1-0.1,0-0.2l-0.3-0.7
			c0-0.1-0.2-0.1-0.2-0.1c-0.3,0.1-0.7,0.3-1.7,0.3c-0.6,0-1.1-0.2-1.4-0.5c-0.3-0.3-0.4-0.7-0.5-1.3l4.1,0c0,0,0.1,0,0.1-0.1
			C-29.7-30.8-29.6-31.6-29.8-32.5 M-33.8-31.7c0.1-0.4,0.2-0.7,0.3-1c0.3-0.4,0.6-0.6,1.2-0.6c0.5,0,0.9,0.2,1.1,0.6
			c0.2,0.3,0.2,0.6,0.3,1L-33.8-31.7z"/>
		<path class="st3" d="M-41-31.9c-0.2,0-0.4,0-0.6,0c-0.3,0-0.7,0-1,0.1c-0.3,0.1-0.6,0.2-0.8,0.4c-0.2,0.2-0.4,0.4-0.6,0.7
			c-0.1,0.3-0.2,0.6-0.2,0.9c0,0.4,0.1,0.7,0.2,0.9c0.1,0.3,0.3,0.5,0.5,0.6c0.2,0.2,0.5,0.3,0.8,0.4c0.3,0.1,0.7,0.1,1.1,0.1
			c0.4,0,0.8,0,1.2-0.1c0.4-0.1,0.9-0.2,1-0.2c0.1,0,0.3-0.1,0.3-0.1c0.1,0,0.1-0.1,0.1-0.1l0-3.7c0-0.8-0.2-1.4-0.6-1.8
			c-0.4-0.4-1.1-0.6-1.9-0.6c-0.3,0-0.8,0-1.1,0.1c0,0-0.9,0.2-1.2,0.5c0,0-0.1,0,0,0.2l0.3,0.8c0,0.1,0.1,0.1,0.1,0.1s0,0,0.1,0
			c0.8-0.4,1.8-0.4,1.8-0.4c0.4,0,0.8,0.1,1,0.3c0.2,0.2,0.3,0.4,0.3,1v0.2C-40.7-31.8-41-31.9-41-31.9 M-42.6-29
			c-0.2-0.1-0.2-0.2-0.2-0.2c-0.1-0.1-0.1-0.3-0.1-0.5c0-0.4,0.1-0.6,0.4-0.8c0,0,0.3-0.3,1.2-0.3c0.6,0,1.1,0.1,1.1,0.1v1.8
			c0,0-0.5,0.1-1.1,0.1C-42.3-28.7-42.6-29-42.6-29"/>
		<path class="st4" d="M-8.3-33.9c0-0.1,0-0.1-0.1-0.1c-0.1,0-0.4-0.1-0.7-0.1c-0.5,0-0.8,0.1-1,0.2c-0.3,0.1-0.5,0.3-0.7,0.5l0-0.5
			c0-0.1,0-0.1-0.1-0.1h-1c-0.1,0-0.1,0.1-0.1,0.1v6.1c0,0.1,0.1,0.1,0.1,0.1h1.1c0.1,0,0.1-0.1,0.1-0.1v-3c0-0.4,0-0.8,0.1-1.1
			c0.1-0.3,0.2-0.5,0.4-0.6c0.1-0.1,0.3-0.2,0.5-0.3C-9.5-33-9.3-33-9.2-33C-9-33-8.7-33-8.7-33c0.1,0,0.1,0,0.1-0.1
			C-8.5-33.3-8.3-33.8-8.3-33.9"/>
		<path class="st4" d="M-18.3-36.8c-0.1,0-0.2-0.1-0.4-0.1c-0.2,0-0.3,0-0.6,0c-0.7,0-1.3,0.2-1.7,0.6c-0.4,0.4-0.7,1-0.8,1.8l0,0.3
			h-0.9c0,0-0.1,0-0.1,0.1l-0.2,0.8c0,0.1,0,0.1,0.1,0.1h0.9l-0.9,5.1c-0.1,0.4-0.2,0.7-0.2,1c-0.1,0.3-0.2,0.4-0.3,0.6
			c-0.1,0.1-0.2,0.2-0.4,0.3c-0.1,0-0.3,0.1-0.5,0.1c-0.1,0-0.2,0-0.3,0c-0.1,0-0.1,0-0.2-0.1c0,0-0.1,0-0.1,0.1
			c0,0.1-0.3,0.7-0.3,0.8c0,0.1,0,0.1,0.1,0.2c0.1,0,0.2,0.1,0.4,0.1c0.2,0.1,0.4,0.1,0.6,0.1c0.4,0,0.7-0.1,1-0.2
			c0.3-0.1,0.5-0.3,0.7-0.5c0.2-0.3,0.4-0.5,0.5-0.9c0.1-0.4,0.3-0.8,0.4-1.4l0.9-5.2h1.3c0,0,0.1,0,0.1-0.1l0.2-0.8
			c0-0.1,0-0.1-0.1-0.1h-1.3c0,0,0.1-0.5,0.2-0.9c0.1-0.2,0.2-0.3,0.3-0.4c0.1-0.1,0.2-0.2,0.3-0.2c0.1,0,0.3-0.1,0.4-0.1
			c0.1,0,0.2,0,0.3,0c0.1,0,0.2,0,0.2,0.1c0.1,0,0.1,0,0.2-0.1l0.3-0.9C-18.2-36.7-18.3-36.7-18.3-36.8"/>
		<path class="st4" d="M-36.4-28c0,0.1,0,0.1-0.1,0.1h-1.1c-0.1,0-0.1-0.1-0.1-0.1v-8.7c0-0.1,0-0.1,0.1-0.1h1.1
			c0.1,0,0.1,0.1,0.1,0.1V-28z"/>
	</g>
</g>
<g>
	<g>
		<g>
			<polygon class="st5" points="84.6,-165 60.7,-165 60.7,-160.6 70.3,-160.6 70.3,-136.1 75,-136.1 75,-160.6 84.6,-160.6 			"/>
			<path class="st5" d="M85.5-155l-0.4-2.5h-4.1v21.4h4.7v-14.1c0.7-0.9,1.7-1.7,2.9-2.2c1.3-0.6,2.7-0.9,4.2-0.9h0.8v-4.5h-0.8
				C89.8-157.9,87.4-156.9,85.5-155z"/>
			<g>
				<rect x="95.8" y="-165.7" class="st5" width="4.9" height="4.9"/>
				<rect x="95.9" y="-157.5" class="st5" width="4.7" height="21.4"/>
			</g>
			<path class="st5" d="M154.6-157.9c-2.6,0-4.9,1-7,3l-0.4-2.6h-4.1v21.4h4.7V-150c1.9-2.3,3.9-3.5,6-3.5c2.6,0,3.9,1.4,3.9,4.3v13
				h4.7v-13.4c0-2.3-0.7-4.3-2-5.9C158.9-157.1,157-157.9,154.6-157.9z"/>
			<path class="st5" d="M171.9-162.6l-8.4,8.3v1h3.8v11.8c0,3.8,2.2,5.8,6.3,5.8c1.4,0,2.6-0.3,3.8-0.9l0.3-0.1v-3.8h-0.9l-0.1,0
				c-1.8,0.8-3.3,0.7-4.2,0.3c-0.4-0.2-0.6-0.7-0.6-1.6v-11.5h5.8v-4.1h-5.8V-162.6z"/>
			<g>
				<rect x="180.4" y="-165.7" class="st5" width="4.9" height="4.9"/>
				<rect x="180.5" y="-157.5" class="st5" width="4.7" height="21.4"/>
			</g>
			<path class="st5" d="M202.9-146.2c-0.9-1-2-1.7-3.2-2l-3.5-0.9c-1.1-0.3-2.1-0.6-2.9-1c-0.9-0.4-1-0.9-1-1.3c0-0.6,0.3-1,1-1.4
				c0.7-0.4,1.9-0.7,3.5-0.7c1.6,0,3.3,0.4,5,1.1l0.1,0h0.9v-4.2l-0.3-0.1c-2-0.8-4.3-1.1-6.6-1.1c-2.4,0-4.4,0.6-5.8,1.9
				c-1.5,1.3-2.2,2.9-2.2,4.9c0,1.5,0.5,2.7,1.4,3.7c0.9,0.9,2,1.6,3.3,1.9l3.5,0.9c1.1,0.3,2.1,0.6,2.9,1c0.9,0.4,0.9,0.9,0.9,1
				c0,1-0.4,2.3-3.9,2.3c-2.5,0-4.8-0.6-6.8-1.8l-0.1-0.1H188v4.3l0.3,0.1c2.2,1.2,4.8,1.9,7.5,1.9c2.8,0,4.9-0.6,6.3-1.8
				c1.5-1.2,2.2-2.7,2.2-4.5C204.2-143.8,203.8-145.2,202.9-146.2z"/>
			<g>
				<path class="st5" d="M131.2-157.9c-1.3,0-2.5,0.2-3.8,0.7c-1.2,0.5-2.3,1.2-3.3,2.1c-0.9,0.9-1.7,2.1-2.3,3.5
					c-0.6,1.4-0.9,3-0.9,4.9c0,1.6,0.2,3.1,0.7,4.4c0.4,1.3,1.1,2.5,2,3.5c0.9,1,2.1,1.7,3.5,2.3c1.4,0.5,3.1,0.8,5,0.8
					c0.7,0,1.5,0,2.2-0.1c0.7-0.1,1.4-0.2,2-0.3c0.6-0.1,1.2-0.3,1.7-0.4c0.5-0.1,0.8-0.3,1.1-0.4l-0.6-3.9
					c-0.6,0.2-1.4,0.5-2.3,0.7c-1,0.2-2.2,0.3-3.4,0.3c-2.1,0-3.8-0.5-4.9-1.4c-1.1-0.9-1.8-2.3-1.9-4l0-0.1h14.5
					c0-0.2,0-0.5,0.1-0.8c0-0.4,0-0.7,0-0.9c0-3.6-0.8-6.3-2.5-8.1C136.5-157,134.2-157.9,131.2-157.9z M135.8-148.8h-9.6l0-0.1
					c0.1-0.6,0.2-1.3,0.5-1.8c0.2-0.6,0.6-1.1,1-1.6c0.4-0.5,0.9-0.9,1.5-1.1c0.6-0.3,1.3-0.4,2.1-0.4c0.8,0,1.4,0.1,2,0.4
					c0.6,0.3,1,0.6,1.4,1.1c0.4,0.5,0.7,1,0.9,1.6C135.7-150.3,135.8-149.6,135.8-148.8L135.8-148.8z"/>
			</g>
			<g>
				<path class="st5" d="M115.2-158c-6.8,0-12.2,4.9-12.2,11.1v0.1c0,6.2,5.3,11,12.2,11c2.5,0,4.6-0.5,6.5-1.5c0,0,0,0-0.1,0
					c-0.1-0.1-0.2-0.1-0.2-0.2l0,0c-0.8-0.9-1.5-1.9-2-3.1c-1.2,0.7-2.5,1-3.9,1c-4.2,0-7.3-3.1-7.3-7.1v-0.1c0-4,3.1-7.1,7.1-7.1
					c1.6,0,2.9,0.4,4.2,1.1c0.6-1.4,1.4-2.6,2.4-3.6C119.9-157.6,117.8-158,115.2-158z"/>
			</g>
		</g>
		<g>
			<g>
				<polygon class="st5" points="26.7,-138.9 22.1,-143.5 29.1,-150.5 22.1,-157.5 26.8,-162.1 38.4,-150.5 				"/>
			</g>
			<g>
				<polygon class="st5" points="33.9,-131.8 29.2,-136.4 40.8,-148 52.4,-136.5 47.8,-131.8 40.8,-138.7 				"/>
			</g>
			<g>
				<polygon class="st5" points="40.8,-153 29.2,-164.5 33.9,-169.2 40.8,-162.3 47.8,-169.2 52.4,-164.6 				"/>
			</g>
		</g>
	</g>
	<g>
		<path class="st5" d="M205.3-156.4H205v-2.2h-0.8v-0.3h1.9v0.3h-0.8V-156.4z"/>
		<path class="st5" d="M207.6-156.4l-0.8-2.2h0c0,0.2,0,0.4,0,0.6v1.6h-0.3v-2.5h0.4l0.8,2h0l0.8-2h0.4v2.5h-0.3v-1.6
			c0-0.2,0-0.4,0-0.6h0l-0.8,2.2H207.6z"/>
	</g>
</g>
<g>
	<g id="UiPath_logo_1_">
		<g>
			<path class="st6" d="M137,40.2V27c0-5.3-1.6-8.7-6.6-8.7c-2.9,0-5,1.8-6.8,3.5c-1.4,1.5-3.1,3.3-4.8,5.7v3.6
				c1.3-1.5,3.2-3.7,5-5.6c1.8-1.7,3-2.6,4.9-2.6c2.3,0,3.3,1.3,3.3,4.8v12.6H137z"/>
			<path class="st6" d="M118.8,40.2h5V27.6c-1.3,1.5-3.7,4.1-5,5.6V40.2z"/>
			<path class="st6" d="M51.3,47.8V3.2c0-0.8-0.6-1.4-1.4-1.4H5.4C4.6,1.8,4,2.4,4,3.2v44.6c0,0.8,0.6,1.4,1.4,1.4h44.5
				C50.7,49.2,51.3,48.6,51.3,47.8z M49.4,47.4H5.8V3.7h43.6V47.4z"/>
			<path class="st6" d="M22,40.4c6.5,0,10.6-3.6,10.6-12.9V11.6h-4.8v16.3c0,6.1-2.4,8.2-5.9,8.2c-3.4,0-5.7-2-5.7-8.2V11.6h-5v15.9
				C11.3,36.7,15.5,40.4,22,40.4z"/>
			<path class="st6" d="M41.7,15.4c1.8,0,3.1-1.2,3.1-2.8c0-1.7-1.3-2.9-3.1-2.9c-1.8,0-3.1,1.2-3.1,2.9
				C38.7,14.3,40,15.4,41.7,15.4z"/>
			<rect x="39.2" y="19.1" class="st6" width="5" height="21.2"/>
			<path class="st6" d="M57.5,10.8v5.8c1.6-2,3.1-3.7,4.3-4.7l-0.2-1.1H57.5z"/>
			<path class="st6" d="M62.5,30.2c4.2,4.1,13.5,2.6,14.3-7.6c0.9-11.3-6.5-13.2-10.3-12.2c-1.4,0.4-2.8,1.3-4,2.5
				c-2,1.8-3.7,4.3-5,6.1v3.7c1-1.6,2.6-4,5-6.1c0.5-0.4,1-0.8,1.5-1.2c3.6-2.8,8.2-0.9,7.7,6.4c-0.5,6.9-5.5,8.1-9.2,4.7
				c0-3.5,0-6.1,0-8.2l-5,6.7v15.2h5V30.2z"/>
			<path class="st6" d="M92.7,37.9h0.1l0.4,2.3h4V27.8c0-5.9-2.6-9.1-7.9-9.1c-3.3,0-6.3,1.3-8.6,2.7l1.8,3.3
				c1.8-1.1,3.8-2.1,5.9-2.1c2.8,0,3.8,1.9,3.8,4.1c-8.6,0.9-12.4,3.3-12.4,7.8c0,3.7,2.6,6.2,6.3,6.2
				C88.7,40.8,90.8,39.5,92.7,37.9z M84.7,34.2c0-2.1,1.9-3.6,7.6-4.3v4.7c-1.5,1.5-2.9,2.3-4.6,2.3C86,36.9,84.7,36.1,84.7,34.2z"
				/>
			<path class="st6" d="M115,40l-0.9-3.6c-0.6,0.3-1.5,0.5-2.2,0.5c-2,0-3-1.2-3-3.7v-10h5.4v-3.9H109v-5.8h-4.1l-0.6,5.8l-3.3,0.2
				v3.7h3v10c0,4.6,1.8,7.6,6.7,7.6C112.4,40.8,113.9,40.4,115,40z"/>
		</g>
	</g>
	<path class="st6" d="M123.8,19.9v-2.2v-7h-5v13.8v0.6C119.1,24.7,121,22.3,123.8,19.9z"/>
</g>
<g>
	<g>
		<path class="st7" d="M1011.6,18.1v-0.4c0-1.4-1.3-2.5-3-2.5c-1.6,0-2.6,0.9-2.6,2.1c0,0.6,0.3,1.2,0.7,1.5c0.7,0.6,0.8,0.6,4,1.6
			c5.3,1.6,7.4,3.7,7.4,7.6c0,4.6-3.7,7.7-9.2,7.7c-5.6,0-9.1-2.9-9.3-7.8h6.2c0.3,2,1.2,3,3.1,3c1.5,0,2.6-0.9,2.6-2.3
			c0-1.4-0.9-2.1-4.4-3.2c-5.1-1.5-7.4-3.8-7.4-7.6c0-4.5,3.6-7.5,9.2-7.5c5.4,0,8.7,2.9,8.8,7.7H1011.6z"/>
		<path class="st7" d="M1026.6,24.6c0.6,3.3,3,5.3,6.2,5.3c2.4,0,4.4-1.2,5.5-3.1l6,1.6c-2.4,4.6-6.5,7.2-11.5,7.2
			c-7.5,0-12.9-5.3-12.9-12.7c0-7.4,5.2-12.6,12.5-12.6c7.6,0,12.8,5.3,12.8,12.9l-0.1,1.3H1026.6z M1038.5,20.9c-0.6-3.1-2.8-5-6-5
			c-3.1,0-5.2,1.8-5.8,5H1038.5z"/>
		<path class="st7" d="M1054.5,11.2v3.5c0.7-1.7,1.1-2.5,2.1-3.2c1-0.7,2.4-1.1,3.8-1.1c0.2,0,0.4,0,0.8,0.1v6.6
			c-0.5-0.1-1-0.1-1.4-0.1c-1.8,0-3.4,0.8-4.3,2.1c-0.8,1.1-1,2.1-1,4.3v11.4h-6.5V11.2H1054.5z"/>
		<path class="st7" d="M1087.5,11.2l-8.6,23.7h-6.7l-8.5-23.7h6.8l5.2,14.1l5.3-14.1H1087.5z"/>
		<path class="st7" d="M1096.9,4.5c0,2-1.5,3.5-3.6,3.5c-2.1,0-3.6-1.5-3.6-3.6c0-2.1,1.5-3.6,3.6-3.6
			C1095.4,0.8,1096.9,2.4,1096.9,4.5z M1096.5,34.9h-6.5V11.2h6.5V34.9z"/>
		<path class="st7" d="M1122.5,32.2c-2.7,2.5-5.5,3.5-9.1,3.5c-7.2,0-12.5-5.3-12.5-12.5c0-7.5,5.2-12.8,12.6-12.8
			c3.5,0,6.4,1.2,9.5,3.9l-4.3,3.9c-1.4-1.4-3-2.1-4.9-2.1c-3.6,0-6.2,2.9-6.2,6.8c0,4,2.7,7,6.5,7c1.7,0,2.9-0.5,4.6-2L1122.5,32.2
			z"/>
		<path class="st7" d="M1130.2,24.6c0.6,3.3,3,5.3,6.2,5.3c2.4,0,4.5-1.2,5.5-3.1l6,1.6c-2.4,4.6-6.5,7.2-11.5,7.2
			c-7.5,0-12.9-5.3-12.9-12.7c0-7.4,5.2-12.6,12.5-12.6c7.6,0,12.8,5.3,12.8,12.9l-0.1,1.3H1130.2z M1142.1,20.9c-0.6-3.1-2.8-5-6-5
			c-3.1,0-5.2,1.8-5.8,5H1142.1z"/>
		<path class="st7" d="M1158.2,11.2v2.9c1.7-2.7,3.5-3.7,6.4-3.7c2.3,0,4.4,0.8,5.8,2.2c1.5,1.5,2.1,3.4,2.1,7.3v15h-6.5V20.2
			c0-1.3-0.2-2.1-0.6-2.8c-0.6-1-1.8-1.6-3.1-1.6c-2.5,0-4.2,1.9-4.2,4.7v14.4h-6.5V11.2H1158.2z"/>
		<path class="st7" d="M1243,11.2l-7.7,23.7h-6.8l-4.1-14.5l-4.2,14.5h-6.9l-7.6-23.7h6.6l4.8,14.4l4.1-14.4h6.2l4.2,14.4l4.8-14.4
			H1243z"/>
		<path class="st7" d="M1239.2,34.8h-0.7v-2.4h-0.7v-0.5h2.1v0.5h-0.7V34.8z M1241,34.8h-0.7v-2.9h0.7l0.9,1.7l0.9-1.7h0.7v2.9h-0.7
			v-1.7l-0.9,1.8l-0.9-1.8V34.8z"/>
		<path class="st8" d="M1189.1,10.3c-6.8,0.8-12.2,6.4-12.6,13.3c-0.3,4.7,1.8,9,5.1,11.8c1.2,1,2.9,0.9,4-0.2
			c1.3-1.3,3.1-2.1,5-2.1c2,0,3.8,0.8,5,2.1c1.1,1.1,2.8,1.2,4,0.2c3.1-2.6,5.1-6.5,5.1-10.9C1204.9,16,1197.6,9.3,1189.1,10.3z
			 M1190.7,31.5c-3.9,0-7.1-3.2-7.1-7.1c0-3.9,3.2-7.1,7.1-7.1c3.9,0,7.1,3.2,7.1,7.1C1197.8,28.3,1194.6,31.5,1190.7,31.5z"/>
	</g>
</g>
<g>
	<path class="st9" d="M-215.4,33.1l-1.3,3.7h-0.1c-0.2-0.9-0.6-2.1-1.3-3.7l-7.1-17.8h-6.9v28.3h4.6V26.2c0-1.1,0-2.4-0.1-3.9
		c0-0.8-0.1-1.4-0.1-1.8h0.1c0.2,1.1,0.5,1.9,0.6,2.4l8.5,20.7h3.2l8.4-20.8c0.2-0.5,0.4-1.4,0.6-2.2h0.1c-0.1,2.1-0.2,3.9-0.2,5.1
		v18h4.9V15.3h-6.6L-215.4,33.1"/>
	<polyline class="st9" points="-197,43.6 -192.2,43.6 -192.2,28.3 -192.2,23.4 -197,23.4 -197,33.3 -197,43.6 	"/>
	<path class="st9" d="M-194.5,14.7c-0.8,0-1.5,0.3-2,0.8c-0.6,0.5-0.8,1.2-0.8,2c0,0.8,0.3,1.4,0.8,2c0.6,0.5,1.2,0.8,2,0.8
		c0.8,0,1.5-0.3,2-0.8c0.6-0.5,0.9-1.2,0.9-2c0-0.8-0.3-1.4-0.8-2C-193,15-193.7,14.7-194.5,14.7"/>
	<path class="st9" d="M-175.3,23.2c-0.9-0.2-1.8-0.3-2.7-0.3c-2.2,0-4.1,0.5-5.8,1.4c-1.7,0.9-2.9,2.3-3.8,3.9
		c-0.9,1.7-1.3,3.6-1.3,5.8c0,1.9,0.4,3.7,1.3,5.2c0.8,1.6,2,2.8,3.6,3.6c1.5,0.8,3.3,1.3,5.2,1.3c2.3,0,4.2-0.5,5.7-1.3l0.1,0v-4.4
		l-0.2,0.1c-0.7,0.5-1.5,0.9-2.3,1.2c-0.8,0.3-1.6,0.4-2.3,0.4c-1.9,0-3.4-0.6-4.5-1.7c-1.1-1.2-1.6-2.8-1.6-4.8
		c0-2.1,0.6-3.7,1.7-5c1.1-1.2,2.6-1.8,4.5-1.8c1.6,0,3.1,0.5,4.5,1.6l0.2,0.1v-4.6l-0.1,0C-173.7,23.6-174.4,23.3-175.3,23.2"/>
	<path class="st9" d="M-159.7,23c-1.2,0-2.3,0.4-3.2,1.1c-0.8,0.7-1.4,1.6-1.8,2.7h-0.1v-3.5h-4.8v20.3h4.8V33.3
		c0-1.8,0.4-3.2,1.2-4.3c0.8-1.1,1.8-1.6,3.1-1.6c0.4,0,0.9,0.1,1.4,0.2c0.5,0.1,0.9,0.3,1.1,0.5l0.2,0.1v-4.8l-0.1,0
		C-158.2,23.1-158.9,23-159.7,23"/>
	<path class="st9" d="M-143,38.5c-0.9,1.1-2.2,1.7-4,1.7c-1.7,0-3.1-0.6-4.1-1.7c-1-1.2-1.5-2.8-1.5-4.9c0-2.2,0.5-3.8,1.5-5
		c1-1.2,2.3-1.8,4.1-1.8c1.7,0,3,0.6,4,1.7c1,1.1,1.4,2.8,1.4,5C-141.6,35.7-142.1,37.4-143,38.5 M-146.7,22.9c-3.3,0-6,1-7.9,2.9
		c-1.9,1.9-2.8,4.6-2.8,8c0,3.2,0.9,5.7,2.8,7.6c1.8,1.9,4.4,2.8,7.5,2.8c3.2,0,5.8-1,7.7-3c1.9-2,2.8-4.6,2.8-7.9
		c0-3.2-0.9-5.8-2.7-7.7C-141.1,23.8-143.6,22.9-146.7,22.9"/>
	<path class="st9" d="M-126.1,31.7c-1.5-0.6-2.5-1.1-2.9-1.5c-0.4-0.4-0.6-0.9-0.6-1.6c0-0.6,0.2-1.1,0.7-1.4c0.5-0.4,1.2-0.6,2-0.6
		c0.8,0,1.6,0.1,2.4,0.4c0.8,0.2,1.5,0.6,2.1,1l0.2,0.1v-4.4l-0.1,0c-0.6-0.2-1.3-0.4-2.2-0.6c-0.9-0.2-1.7-0.2-2.4-0.2
		c-2.3,0-4.1,0.6-5.6,1.7c-1.4,1.2-2.2,2.7-2.2,4.5c0,1,0.2,1.8,0.5,2.5c0.3,0.7,0.8,1.4,1.4,1.9c0.6,0.5,1.6,1.1,2.9,1.6
		c1.1,0.5,1.9,0.8,2.4,1.1c0.5,0.3,0.9,0.6,1.1,0.9c0.2,0.3,0.3,0.7,0.3,1.2c0,1.4-1,2-3.1,2c-0.8,0-1.7-0.2-2.6-0.5
		c-1-0.3-1.9-0.8-2.7-1.4l-0.2-0.1V43l0.1,0c0.7,0.3,1.5,0.6,2.6,0.8c1,0.2,1.9,0.3,2.7,0.3c2.5,0,4.4-0.6,5.9-1.7
		c1.5-1.2,2.2-2.7,2.2-4.6c0-1.4-0.4-2.5-1.2-3.5C-122.9,33.4-124.2,32.5-126.1,31.7"/>
	<path class="st9" d="M-104.3,38.5c-0.9,1.1-2.2,1.7-4,1.7c-1.7,0-3.1-0.6-4.1-1.7c-1-1.2-1.5-2.8-1.5-4.9c0-2.2,0.5-3.8,1.5-5
		c1-1.2,2.3-1.8,4.1-1.8c1.7,0,3,0.6,4,1.7c1,1.1,1.4,2.8,1.4,5C-103,35.7-103.4,37.4-104.3,38.5 M-108.1,22.9c-3.3,0-6,1-7.9,2.9
		c-1.9,1.9-2.8,4.6-2.8,8c0,3.2,0.9,5.7,2.8,7.6c1.8,1.9,4.4,2.8,7.5,2.8c3.2,0,5.8-1,7.7-3c1.9-2,2.8-4.6,2.8-7.9
		c0-3.2-0.9-5.8-2.7-7.7C-102.5,23.8-105,22.9-108.1,22.9"/>
	<path class="st9" d="M-72.7,27.2v-3.9h-4.8v-6.1l-0.2,0l-4.5,1.4l-0.1,0v4.6h-7.1v-2.6c0-1.2,0.3-2.1,0.8-2.7
		c0.5-0.6,1.3-0.9,2.2-0.9c0.7,0,1.4,0.2,2.1,0.5l0.2,0.1v-4.1l-0.1,0c-0.7-0.2-1.6-0.4-2.7-0.4c-1.4,0-2.7,0.3-3.8,0.9
		c-1.1,0.6-2,1.5-2.6,2.6c-0.6,1.1-0.9,2.4-0.9,3.8v2.8h-3.4v3.9h3.4v16.4h4.8V27.2h7.1v10.4c0,4.3,2,6.5,6,6.5c0.7,0,1.3-0.1,2-0.2
		c0.7-0.2,1.2-0.3,1.5-0.5l0.1,0v-3.9l-0.2,0.1c-0.3,0.2-0.6,0.3-1,0.4c-0.4,0.1-0.7,0.2-1,0.2c-0.9,0-1.6-0.3-2.1-0.7
		c-0.4-0.5-0.7-1.4-0.7-2.6v-9.6H-72.7"/>
	<polyline class="st10" points="-270.9,28.3 -293.3,28.3 -293.3,5.9 -270.9,5.9 -270.9,28.3 	"/>
	<polyline class="st11" points="-246.2,28.3 -268.6,28.3 -268.6,5.9 -246.2,5.9 -246.2,28.3 	"/>
	<polyline class="st12" points="-270.9,53.1 -293.3,53.1 -293.3,30.7 -270.9,30.7 -270.9,53.1 	"/>
	<polyline class="st13" points="-246.2,53.1 -268.6,53.1 -268.6,30.7 -246.2,30.7 -246.2,53.1 	"/>
</g>
</svg>
