<?xml version="1.0" encoding="utf-8"?>
<!-- Generator: Adobe Illustrator 25.2.3, SVG Export Plug-In . SVG Version: 6.00 Build 0)  -->
<svg version="1.1" id="Layer_1" xmlns="http://www.w3.org/2000/svg" xmlns:xlink="http://www.w3.org/1999/xlink" x="0px" y="0px"
	width="102px" height="102px" viewBox="0 0 108 108" style="enable-background:new 0 0 108 108;" xml:space="preserve">
<style type="text/css">
	.st0{display:none;}
	.st1{display:inline;fill:#DDEBFD;}
	.st2{display:inline;fill:#BED9FD;}
	.st3{display:inline;fill:#FC8086;}
	.st4{display:inline;fill:#FFECE3;}
	.st5{display:inline;fill:#FFDDCE;}
	.st6{display:inline;fill:#FCD0A3;}
	.st7{display:inline;fill:#FFB983;}
	.st8{display:inline;fill:#7C8B96;}
	.st9{display:inline;}
	.st10{clip-path:url(#SVGID_2_);}
	.st11{fill:#78D2FA;}
	.st12{fill:#878791;}
	.st13{fill:#FFFFFF;}
	.st14{fill:#F5B955;}
	.st15{fill:#FFCDAC;}
	.st16{fill:#FF9155;}
	.st17{fill:none;}
	.st18{fill:#D7FA91;}
	.st19{fill:#FF5A5A;}
	.st20{fill:#A5DC69;}
</style>
<g class="st0">
	<path class="st1" d="M15.1,2.6c-3.5,0-6.4,2.9-6.4,6.4v82.5c0,3.5,2.9,6.4,6.4,6.4h60.2c3.5,0,6.4-2.9,6.4-6.4V22.3
		c0-1.3-0.5-2.5-1.4-3.4L65.5,4c-0.9-0.9-2.1-1.4-3.4-1.4H15.1z M15.1,2.6"/>
	<path class="st2" d="M70.5,20.3c-0.5,0-1-0.1-1.4-0.2v71.3c0,3.5-2.9,6.4-6.4,6.4h12.7c3.5,0,6.4-2.9,6.4-6.4V22.3
		c0-0.7-0.2-1.4-0.4-2H70.5z M70.5,20.3"/>
	<path class="st3" d="M80.4,18.9L65.5,4c-0.4-0.4-0.9-0.7-1.4-1v10.9c0,3.5,2.9,6.4,6.4,6.4h10.9C81.1,19.8,80.8,19.3,80.4,18.9
		L80.4,18.9z M80.4,18.9"/>
	<path class="st4" d="M86.9,85.9L64,72.3c-1.2-0.7-1.6-2.2-0.9-3.4c0,0,0.6-1,1.2-2l-4.6-2.7c-3.1-1.8-4.5-2.1-7.2-1l-3,1.2
		c-1.8,0.7-3.9,0.5-5.6-0.5l-8-4.7L24.4,78.5l10.3,6.1c0.7,0.4,1.3,1,1.8,1.6l3.5,4.5c1.9,2.2,5.9,5.1,8.4,6.6l13.2,7.8
		c1.7,1,4,0.5,5-1.3c1-1.7,0.5-4-1.3-5l4.1,2.4c1.7,1,4,0.5,5-1.3c1-1.7,0.5-4-1.3-5l2.8,1.6c1.7,1,4,0.5,5-1.3c1-1.7,0.5-4-1.3-5
		l3.4,2c1.7,1,4,0.5,5-1.3C89.2,89.2,88.7,86.9,86.9,85.9L86.9,85.9z M86.9,85.9"/>
	<path class="st5" d="M86.9,85.9L79,81.2c-0.2,0.7-0.5,1.3-1.1,1.9c-1.4,1.5-3.6,1.7-5.4,0.7l-2.2-1.3c-0.1,0-0.2,0-0.2,0
		c-0.1,0.1-0.1,0.2,0,0.3c0.9,1.3,1.1,3.1,0.2,4.6c-1.2,2-3.8,2.7-5.9,1.5l-1.8-1.1c-0.1,0-0.2,0-0.2,0c-0.1,0.1-0.1,0.2,0,0.2
		c1,1.4,1.2,3.3,0.2,4.8c-1.2,2-3.9,2.6-5.9,1.4l-1.4-0.9c-0.3-0.2-0.6-0.2-0.9,0C54.1,93.7,54,94,54,94.3c0.2,1,0.1,2.1-0.5,3
		c-0.5,0.8-1.2,1.4-2,1.7l10.1,6c1.8,1.1,4.1,0.5,5.2-1.3c1-1.7,0.4-4-1.3-5l4.1,2.4c1.8,1.1,4.1,0.5,5.2-1.3c1-1.7,0.4-4-1.3-5
		l2.7,1.6c1.8,1,4.1,0.5,5.2-1.3c1-1.7,0.4-4-1.3-5l3.3,1.9c1.8,1,4.1,0.5,5.2-1.3C89.2,89.1,88.6,86.9,86.9,85.9L86.9,85.9z
		 M86.9,85.9"/>
	<path class="st6" d="M84.9,60.3l-6.2,3.6c-1.7,1-3.7,1.2-5.6,0.5l-3.4-1.3c-1.1-0.4-2.2-0.5-3.3-0.2l-5.2,1.3
		c-2.4,0.6-4.1,2.8-4.1,5.3v6.9c0,1,0.8,1.8,1.8,1.8c3,0,5.3-2.4,5.3-5.3v-0.3l22.2,13.2c0.4-0.4,0.9-0.8,1.4-1.1l8.4-4.9L84.9,60.3
		z M84.9,60.3"/>
	<path class="st7" d="M88.2,65.9L87,70.3l-13.3,7.8l12.8,7.6c0.4-0.4,0.9-0.8,1.4-1.1l8.4-4.9L88.2,65.9z M88.2,65.9"/>
	<path class="st6" d="M39.2,88.6l-2.1,2.9c-1.2,1.6-3.5,2-5.1,0.8c-1.6-1.2-2-3.5-0.8-5.1l2.1-2.9c1.2-1.6,3.5-2,5.1-0.8
		C40.1,84.7,40.4,87,39.2,88.6L39.2,88.6z M39.2,88.6"/>
	<path class="st6" d="M47.5,89.7l-4.4,6.1c-1.2,1.6-3.5,2-5.1,0.8c-1.6-1.2-2-3.5-0.8-5.1l4.4-6.1c1.2-1.6,3.5-2,5.1-0.8
		C48.3,85.8,48.7,88,47.5,89.7L47.5,89.7z M47.5,89.7"/>
	<path class="st6" d="M53.5,94l-4.4,6.1c-1.2,1.6-3.5,2-5.1,0.8c-1.6-1.2-2-3.5-0.8-5.1l4.4-6.1c1.2-1.6,3.5-2,5.1-0.8
		C54.3,90,54.7,92.3,53.5,94L53.5,94z M53.5,94"/>
	<path class="st7" d="M57.5,101l-1.5,2c-1.2,1.6-3.5,2-5.1,0.8c-1.6-1.2-2-3.5-0.8-5.1l1.5-2c1.2-1.6,3.5-2,5.1-0.8
		C58.3,97,58.7,99.3,57.5,101L57.5,101z M57.5,101"/>
	<path class="st8" d="M40.2,57.2l-3.2-1.9c-0.9-0.5-2-0.2-2.6,0.7L21.2,78.3c-0.5,0.9-0.2,2,0.7,2.6l3.2,1.9
		c2.2,1.3,4.9,0.6,6.2-1.6l10.5-17.7C43,61.3,42.3,58.5,40.2,57.2L40.2,57.2z M40.2,57.2"/>
	<path class="st8" d="M83.8,55.3l-3.2,1.9c-2.2,1.3-2.9,4.1-1.6,6.2l10.5,17.7c1.3,2.2,4.1,2.9,6.2,1.6l3.2-1.9
		c0.9-0.5,1.2-1.7,0.7-2.6L86.4,55.9C85.9,55,84.7,54.8,83.8,55.3L83.8,55.3z M83.8,55.3"/>
	<path class="st9" d="M70.7,29.6H19.8c-0.9,0-1.6,0.7-1.6,1.6c0,0.9,0.7,1.6,1.6,1.6h50.8c0.9,0,1.6-0.7,1.6-1.6
		C72.3,30.3,71.6,29.6,70.7,29.6L70.7,29.6z M70.7,29.6"/>
	<path class="st9" d="M19.8,21.9h25.4c0.9,0,1.6-0.7,1.6-1.6c0-0.9-0.7-1.6-1.6-1.6H19.8c-0.9,0-1.6,0.7-1.6,1.6
		C18.3,21.2,19,21.9,19.8,21.9L19.8,21.9z M19.8,21.9"/>
	<path class="st9" d="M70.7,39.2H19.8c-0.9,0-1.6,0.7-1.6,1.6c0,0.9,0.7,1.6,1.6,1.6h50.8c0.9,0,1.6-0.7,1.6-1.6
		C72.3,39.9,71.6,39.2,70.7,39.2L70.7,39.2z M70.7,39.2"/>
	<g class="st9">
		<defs>
			<rect id="SVGID_1_" x="7" y="1" width="94.6" height="106.2"/>
		</defs>
		<clipPath id="SVGID_2_">
			<use xlink:href="#SVGID_1_"  style="overflow:visible;"/>
		</clipPath>
		<path class="st10" d="M31.4,96.3H15.2c-2.7,0-4.8-2.2-4.8-4.8V9c0-2.7,2.2-4.8,4.8-4.8H62c0.2,0,0.3,0,0.4,0v9.7c0,4.4,3.6,8,8,8
			h9.7c0,0.1,0,0.3,0,0.4v26.6c0,0.9,0.7,1.6,1.6,1.6c0.9,0,1.6-0.7,1.6-1.6V22.3c0-1.7-0.7-3.3-1.9-4.5L66.6,2.9
			C65.4,1.7,63.7,1,62,1H15.2c-4.4,0-8,3.6-8,8v82.5c0,4.4,3.6,8,8,8h16.3c0.9,0,1.6-0.7,1.6-1.6C33,97,32.3,96.3,31.4,96.3
			L31.4,96.3z M78,18.8h-7.6c-2.7,0-4.8-2.2-4.8-4.8V6.3L78,18.8z M78,18.8"/>
		<path class="st10" d="M101,77.5L87.7,55.1c-1-1.6-3.1-2.2-4.7-1.2l-3.2,1.9c-2.5,1.5-3.6,4.5-2.7,7.1c-1.1,0.4-2.3,0.4-3.4,0
			c-2.5-0.8-4.5-2.4-7.7-1.6c-5.4,1.4-5.3,1.3-5.7,1.5c-3.2-1.8-5.1-2.3-8.4-1l-3,1.2c-1.4,0.5-2.9,0.4-4.2-0.4l-0.8-0.5
			c0.4-2.4-0.7-4.9-2.9-6.3l-3.2-1.9c-1.6-1-3.7-0.4-4.7,1.2L19.8,77.5c-1,1.6-0.4,3.7,1.2,4.7l3.2,1.9c1,0.6,2,0.9,3.1,0.9
			c1.2,0,2.3-0.3,3.3-1l0.7,0.4l-1.4,2c-1.7,2.4-1.2,5.6,1.2,7.3c1.1,0.8,2.5,1.1,3.9,0.9c0.2,1.3,0.9,2.5,2.1,3.4
			c1.1,0.8,2.5,1.1,3.9,0.9c0.2,1.3,0.9,2.5,2.1,3.4c1.6,1.1,3.5,1.2,5.1,0.6c0.4,0.9,1,1.7,1.8,2.4c2.2,1.6,5.3,1.2,7.1-0.9
			l3.8,2.2c2.5,1.5,5.7,0.7,7.2-1.8c0.4-0.6,0.6-1.3,0.7-2l0,0c2.5,1.5,5.7,0.6,7.2-1.8c0.4-0.7,0.7-1.5,0.7-2.3
			c2.2,0.6,4.6-0.4,5.8-2.4c0.4-0.7,0.6-1.4,0.7-2.1c2.3,0.9,5.1,0,6.4-2.2c0.7-1.2,0.9-2.6,0.6-4c-0.2-0.8-0.6-1.5-1.1-2.1l2.1-1.2
			c1.8,0.7,3.8,0.6,5.4-0.4l3.2-1.9C101.4,81.2,101.9,79.1,101,77.5L101,77.5z M25.8,81.4l-3.2-1.9c-0.1-0.1-0.2-0.3-0.1-0.4
			l13.2-22.3c0.1-0.1,0.3-0.2,0.4-0.1l3.2,1.9c1.4,0.8,1.9,2.7,1,4.1L29.9,80.3C29.1,81.8,27.2,82.2,25.8,81.4L25.8,81.4z
			 M32.9,91.1c-0.9-0.7-1.2-2-0.5-2.9l2.1-2.9c0.7-0.9,2-1.2,2.9-0.5c0.9,0.7,1.2,2,0.5,2.9l-2.1,2.9C35.2,91.5,33.9,91.8,32.9,91.1
			L32.9,91.1z M38.9,95.4c-0.9-0.7-1.2-2-0.5-2.9l2.1-2.9v0l2.3-3.2c0.3-0.5,0.8-0.8,1.4-0.9c0.1,0,0.2,0,0.3,0
			c0.4,0,0.9,0.1,1.2,0.4c0.5,0.3,0.8,0.8,0.9,1.4c0.1,0.6,0,1.1-0.4,1.6l-4.4,6.1C41.2,95.8,39.9,96,38.9,95.4L38.9,95.4z
			 M44.9,99.7c-0.9-0.7-1.2-2-0.5-2.9c0,0,0,0,0,0l4.4-6.1c0.7-0.9,2-1.2,2.9-0.5c0.9,0.7,1.2,2,0.5,2.9l-1.9,2.7l-2.4,3.4
			C47.2,100.1,45.8,100.3,44.9,99.7L44.9,99.7z M51.8,102.6c-0.9-0.7-1.2-2-0.5-2.9l1.5-2c0.7-0.9,2-1.2,2.9-0.5
			c0.9,0.7,1.2,2,0.5,2.9l-1.5,2C54.1,103,52.8,103.3,51.8,102.6L51.8,102.6z M86.8,90.1c-0.6,1-1.9,1.3-2.9,0.7
			c-1.7-1-12.7-7.5-13.8-8.2c-0.7-0.4-1.7-0.2-2.1,0.5c-0.4,0.7-0.2,1.7,0.5,2.1L79,91.6c1,0.6,1.3,1.9,0.7,2.9
			c-0.6,1-1.9,1.3-2.9,0.7c-3.9-2.3-7-4.1-10.5-6.2c-0.7-0.4-1.7-0.2-2.1,0.5c-0.4,0.7-0.2,1.7,0.5,2.1l7.7,4.6l0,0
			c1,0.6,1.3,1.9,0.7,2.9c-0.6,1-1.9,1.3-2.9,0.7l-4.1-2.4h0c0,0,0,0,0,0l-3-1.8c-0.7-0.4-1.7-0.2-2.1,0.5c-0.4,0.7-0.2,1.7,0.5,2.1
			l3,1.8c0,0,0,0,0,0c1,0.6,1.3,1.9,0.7,2.9c-0.6,1-1.9,1.3-2.9,0.7l-3.5-2.1c1.5-2.3,0.9-5.5-1.3-7.1c-0.7-0.5-1.4-0.8-2.2-0.9
			c0.8-2.2,0.1-4.7-1.9-6.1c-1.2-0.8-2.6-1.1-3.9-0.9c-0.2-1.4-1-2.6-2.1-3.4c-2.1-1.5-5-1.2-6.8,0.6c-0.4-0.6-0.9-1.2-1.5-1.7
			c-1.8-1.3-4-1.3-5.8-0.2l-0.7-0.4L42.6,65l0.5,0.3c2.1,1.2,4.6,1.5,6.9,0.6l3-1.2c1.7-0.7,2.7-0.7,4.4,0.1
			c-1.1,1.2-1.8,2.9-1.8,4.7v6.9c0,1.8,1.5,3.3,3.3,3.3h0c1.8,0,3.6-0.7,4.9-2c0.8-0.8,1.3-1.7,1.7-2.7c2,1.2,18.7,11.1,20.6,12.2
			c0.5,0.3,0.8,0.7,1,1.3C87.2,89.1,87.1,89.6,86.8,90.1L86.8,90.1z M98.2,79.5L95,81.4c-1.4,0.8-3.2,0.4-4.1-1L85.9,72
			c-0.4-0.7-1.4-1-2.1-0.5c-0.7,0.4-1,1.4-0.5,2.1l4.9,8.3c0.1,0.2,0.2,0.3,0.3,0.4l-1.4,0.8c-0.3,0.2-0.5,0.3-0.8,0.5L65.1,71.2
			c-1-0.6-2.4,0.1-2.4,1.3c0,0.1,0.2,1.7-1.1,3c-0.7,0.7-1.7,1.1-2.7,1.1c0,0,0,0,0,0c-0.1,0-0.2-0.1-0.2-0.2v-6.9
			c0-1.8,1.2-3.3,2.9-3.8l5.2-1.3c1.9-0.5,2.9,0.5,5.8,1.5c2,0.8,4.1,0.7,6-0.1l0.9,1.6c0.4,0.7,1.4,1,2.1,0.5
			c0.7-0.4,1-1.4,0.5-2.1l-1.9-3.1c-0.8-1.4-0.4-3.2,1-4.1l3.2-1.9c0.1-0.1,0.3,0,0.4,0.1l13.2,22.3C98.4,79.2,98.3,79.4,98.2,79.5
			L98.2,79.5z M98.2,79.5"/>
	</g>
</g>
<g>
	<circle class="st11" cx="36.6" cy="36" r="32.7"/>
	<polyline class="st12" points="62.9,55.4 70.2,62.7 63.7,69.3 56.4,62 	"/>
	<circle class="st13" cx="36.6" cy="36" r="22.1"/>
	<path class="st14" d="M45.5,44.9l-3.4-0.6c-1.4-0.3-2.4-1.5-2.4-2.9v-0.8h-6.2v0.8c0,1.4-1,2.6-2.4,2.9l-3.4,0.6
		c-3.3,0.6-5.8,3.5-5.8,6.9v0.7c3.9,3.5,9,5.6,14.7,5.6c5.6,0,10.8-2.1,14.7-5.6v-0.7C51.3,48.4,48.9,45.5,45.5,44.9z"/>
	<g>
		<polygon class="st15" points="32.2,43.8 36.6,50.8 41,43.8 36.6,41.3 		"/>
		<path class="st15" d="M44.2,29v4.7c0,4.2-3.4,7.6-7.6,7.6l0,0l0,0c-4.2,0-7.6-3.4-7.6-7.6V29H44.2z"/>
	</g>
	<g>
		<path class="st16" d="M36.6,21L36.6,21c-4.2,0-7.6,3.4-7.6,7.6v1.8h3.7c2.5,0,4.8-1.1,6.4-3l0,0l5.1,3v-1.8
			C44.2,24.4,40.8,21,36.6,21z"/>
		<path class="st16" d="M60.3,72.6l13.4,13.4c3.6,3.6,9.3,3.6,12.9,0c1.8-1.8,2.7-4.1,2.7-6.5s-0.9-4.7-2.7-6.5L73.2,59.7L60.3,72.6
			z"/>
	</g>
	<line class="st17" x1="66.7" y1="79.1" x2="73.2" y2="72.6"/>
	<circle class="st18" cx="18.6" cy="89.2" r="14.7"/>
	<path class="st19" d="M29.1,98.5c0-2.2-1.6-4.1-3.7-4.5l-2.7-0.5l-8.2,0L11.9,94c-2.2,0.4-3.7,2.3-3.7,4.5v1
		c2.7,2.7,6.4,4.4,10.5,4.4c4.1,0,7.8-1.7,10.5-4.4L29.1,98.5L29.1,98.5z"/>
	<path class="st15" d="M18.6,82.2L18.6,82.2c-2.8,0-5,2.2-5,5v3.2c0,2.8,2.2,5,5,5l0,0c2.8,0,5-2.2,5-5v-3.2
		C23.6,84.4,21.4,82.2,18.6,82.2z"/>
	<circle class="st14" cx="89.8" cy="17.9" r="14.7"/>
	<path class="st20" d="M100.3,27.3c0-2.2-1.6-4.1-3.7-4.5l-2.7-0.5l-8.2,0l-2.7,0.5c-2.2,0.4-3.7,2.3-3.7,4.5v1
		c2.7,2.7,6.4,4.4,10.5,4.4c4.1,0,7.8-1.7,10.5-4.4L100.3,27.3L100.3,27.3z"/>
	<path class="st15" d="M89.8,11L89.8,11c-2.8,0-5,2.2-5,5v3.2c0,2.8,2.2,5,5,5l0,0c2.8,0,5-2.2,5-5V16C94.8,13.2,92.6,11,89.8,11z"
		/>
	<path d="M36.6,66.7c-1.1,0-2,0.9-2,2c0,1.1,0.9,2,2,2l0.2,0c1.1,0,2-0.9,2-2.1s-0.9-2-2.1-2L36.6,66.7z"/>
	<path d="M60.7,36c0-13.3-10.8-24.1-24.1-24.1S12.5,22.7,12.5,36s10.8,24.1,24.1,24.1S60.7,49.3,60.7,36z M16.6,36c0-11,9-20,20-20
		s20,9,20,20c0,4.5-1.5,8.7-4.1,12.1c-1.2-2.6-3.6-4.6-6.6-5.1l-3.5-0.6c-0.3,0-0.5-0.2-0.6-0.5c2.7-1.7,4.4-4.7,4.4-8.1v-3.2V29
		v-0.3c0-5.3-4.3-9.7-9.7-9.7s-9.7,4.3-9.7,9.7V29v1.5v3.2c0,3.4,1.8,6.4,4.4,8.1c-0.1,0.2-0.4,0.4-0.6,0.5L27.3,43
		c-3,0.6-5.4,2.5-6.6,5.1C18.1,44.8,16.6,40.6,16.6,36z M31,32.5h1.7c2.5,0,4.9-0.9,6.8-2.5l2.7,1.6v2.1c0,3.1-2.5,5.6-5.6,5.6
		c-3.1,0-5.6-2.5-5.6-5.6L31,32.5L31,32.5z M31,28.4c0.1-3,2.6-5.4,5.6-5.4c2.4,0,4.5,1.5,5.3,3.7l-1.7-1c-0.9-0.5-2-0.3-2.6,0.4
		c-1.2,1.4-3,2.3-4.9,2.3L31,28.4L31,28.4z M35.2,43.3c0.5,0.1,0.9,0.1,1.4,0.1c0.5,0,1,0,1.4-0.1c0.1,0.3,0.3,0.6,0.4,0.9l-1.9,3
		l-1.9-3C34.9,43.9,35.1,43.6,35.2,43.3z M23.9,51.5c0.2-2.2,1.9-4.1,4.1-4.5l3.3-0.6l3.5,5.7c0.4,0.6,1,1,1.7,1s1.4-0.4,1.7-1
		l3.5-5.7l3.3,0.6c2.2,0.4,3.9,2.3,4.1,4.5c-3.5,2.8-7.9,4.5-12.7,4.5S27.4,54.3,23.9,51.5z"/>
	<path d="M74.7,58.3c-0.4-0.4-0.9-0.6-1.4-0.6c-0.5,0-1.1,0.2-1.4,0.6l-1.6,1.6l-4.6-4.6c3.7-5.5,5.8-12.2,5.8-19.2
		c0-19.2-15.6-34.7-34.7-34.7S1.9,16.9,1.9,36c0,7.7,2.5,15,7.2,21.1c4.5,5.9,11,10.3,18.1,12.3c1.1,0.3,2.2-0.3,2.5-1.4
		c0.3-1.1-0.3-2.2-1.4-2.5C15.1,61.8,6,49.7,6,36C6,19.1,19.7,5.4,36.6,5.4S67.3,19.1,67.3,36c0,6.7-2.2,13-5.9,18.1
		c0,0.1-0.1,0.1-0.1,0.2c-1.6,2.2-3.6,4.2-5.8,5.9c-0.2,0.1-0.3,0.2-0.4,0.3c0,0,0,0,0,0c-3.1,2.3-6.7,4.1-10.7,5.1
		c-1.1,0.3-1.7,1.4-1.5,2.5c0.2,0.9,1.1,1.5,2,1.5c0.2,0,0.3,0,0.5-0.1c4-1,7.6-2.7,10.9-4.9l4.6,4.6l-1.9,1.9
		c-0.8,0.8-0.8,2.1,0,2.9l6.4,6.4l0,0c0,0,0,0,0,0l7.9,7.9c2.2,2.2,5,3.3,7.9,3.3s5.7-1.1,7.9-3.3c2.1-2.1,3.3-4.9,3.3-7.9
		c0-3-1.2-5.8-3.3-7.9L74.7,58.3z M59.5,62.2c1.3-1.1,2.5-2.4,3.6-3.7l4.2,4.2l-3.6,3.6L59.5,62.2z M86.1,85.6
		c-2.8,2.8-7.3,2.8-10,0l-6.5-6.5l5-5c0.8-0.8,0.8-2.1,0-2.9c-0.8-0.8-2.1-0.8-2.9,0l-5,5l-3.5-3.5l1.9-1.9c0,0,0,0,0,0l6.5-6.5
		c0,0,0,0,0,0l1.6-1.6l12.9,12.9c1.3,1.3,2.1,3.1,2.1,5C88.2,82.4,87.5,84.2,86.1,85.6z"/>
	<path d="M70,13.5h3.6c-0.4,1.4-0.6,2.9-0.6,4.4c0,8.6,6.5,15.7,14.8,16.6v18.8c0,1.1,0.9,2,2,2s2-0.9,2-2V34.6
		c8.2-1,14.6-8.1,14.6-16.6c0-9.2-7.5-16.8-16.8-16.8c-6.1,0-11.5,3.3-14.4,8.3H70c-1.1,0-2,0.9-2,2S68.8,13.5,70,13.5z M92.7,19.2
		c0,1.6-1.3,2.9-2.9,2.9c-1.6,0-2.9-1.3-2.9-2.9V16c0-1.6,1.3-2.9,2.9-2.9c1.6,0,2.9,1.3,2.9,2.9V19.2z M85.1,24.5
		c1.2,1.1,2.9,1.8,4.7,1.8s3.4-0.7,4.7-1.8l1.7,0.3c1.2,0.2,2.1,1.3,2.1,2.5v0.1c-2.2,2-5.2,3.2-8.4,3.2c-3.2,0-6.2-1.2-8.4-3.2
		v-0.1c0-1.2,0.9-2.3,2.1-2.5L85.1,24.5z M89.7,5.3c7,0,12.7,5.7,12.7,12.7c0,2-0.5,3.9-1.3,5.6c-1-1.4-2.5-2.4-4.3-2.8l-0.2,0
		c0.1-0.5,0.2-1,0.2-1.5V16c0-3.9-3.2-7-7-7s-7,3.2-7,7v3.2c0,0.5,0.1,1,0.2,1.5l-0.2,0c-1.8,0.3-3.3,1.4-4.3,2.8
		c-0.8-1.7-1.3-3.6-1.3-5.6C77.1,11,82.8,5.3,89.7,5.3z"/>
	<path d="M89.8,59.3c-0.5,0-1.1,0.2-1.4,0.6c-0.4,0.4-0.6,0.9-0.6,1.4s0.2,1.1,0.6,1.4c0.4,0.4,0.9,0.6,1.4,0.6s1.1-0.2,1.4-0.6
		c0.4-0.4,0.6-0.9,0.6-1.4s-0.2-1.1-0.6-1.4C90.9,59.5,90.4,59.3,89.8,59.3z"/>
	<path d="M45.5,87.1H35.3c-1-8.3-8.1-14.7-16.6-14.7c-1.6,0-3.1,0.2-4.5,0.6v-4.3c0-1.1-0.9-2-2-2s-2,0.9-2,2v6.1
		c-4.9,2.9-8.2,8.3-8.2,14.4c0,9.2,7.5,16.8,16.8,16.8c8.5,0,15.6-6.4,16.6-14.7h10.2c1.1,0,2-0.9,2-2S46.6,87.1,45.5,87.1z
		 M10.2,98.6v-0.1c0-1.2,0.9-2.3,2.1-2.5l1.7-0.3c1.2,1.1,2.9,1.8,4.7,1.8c1.8,0,3.4-0.7,4.7-1.8L25,96c1.2,0.2,2.1,1.3,2.1,2.5v0.1
		c-2.2,2-5.2,3.2-8.4,3.2C15.4,101.8,12.4,100.6,10.2,98.6z M21.6,90.4c0,1.6-1.3,2.9-2.9,2.9c-1.6,0-2.9-1.3-2.9-2.9v-3.2
		c0-1.6,1.3-2.9,2.9-2.9c1.6,0,2.9,1.3,2.9,2.9V90.4z M30,94.7c-1-1.4-2.5-2.4-4.3-2.8l-0.2,0c0.1-0.5,0.2-1,0.2-1.5v-3.2
		c0-3.9-3.2-7-7-7s-7,3.2-7,7v3.2c0,0.5,0.1,1,0.2,1.5l-0.2,0c-1.8,0.3-3.3,1.4-4.3,2.8C6.4,93.1,6,91.2,6,89.2
		c0-7,5.7-12.7,12.7-12.7s12.7,5.7,12.7,12.7C31.3,91.2,30.8,93.1,30,94.7z"/>
	<path d="M54.2,91.2h8.2c1.1,0,2-0.9,2-2s-0.9-2-2-2h-8.2c-1.1,0-2,0.9-2,2S53.1,91.2,54.2,91.2z"/>
	<path d="M44.4,95.7c-1.1,0-2,0.9-2,2s0.9,2,2,2h0c1.1,0,2-0.9,2-2S45.5,95.7,44.4,95.7z"/>
	<path d="M54.2,95.7c-1.1,0-2,0.9-2,2s0.9,2,2,2h0c1.1,0,2-0.9,2-2S55.3,95.7,54.2,95.7z"/>
	<path d="M64,95.7c-1.1,0-2,0.9-2,2s0.9,2,2,2h0c1.1,0,2-0.9,2-2S65.1,95.7,64,95.7z"/>
</g>
</svg>
