<?xml version="1.0" encoding="utf-8"?>
<!-- Generator: Adobe Illustrator 25.2.3, SVG Export Plug-In . SVG Version: 6.00 Build 0)  -->
<svg version="1.1" id="Layer_1" xmlns="http://www.w3.org/2000/svg" xmlns:xlink="http://www.w3.org/1999/xlink" x="0px" y="0px"
	 viewBox="0 0 108 108" style="enable-background:new 0 0 108 108;" xml:space="preserve">
<style type="text/css">
	.st0{display:none;}
	.st1{display:inline;fill:#C9F0FF;}
	.st2{display:inline;fill:#FCD770;}
	.st3{display:inline;fill:#CCD1D9;}
	.st4{display:inline;fill:#FF826E;}
	.st5{display:inline;fill:#B4DD7F;}
	.st6{display:inline;}
	.st7{fill:#DDEBFD;}
	.st8{fill:#BED9FD;}
	.st9{fill:#FC8086;}
	.st10{fill:#FFECE3;}
	.st11{fill:#FFDDCE;}
	.st12{fill:#FCD0A3;}
	.st13{fill:#FFB983;}
	.st14{fill:#7C8B96;}
	.st15{clip-path:url(#SVGID_2_);}
</style>
<g class="st0">
	<path class="st1" d="M2.7,14.7v65h68.4c0-4.7,3.8-8.5,8.5-8.5s8.5,3.8,8.5,8.5H95v-65C95,14.7,2.7,14.7,2.7,14.7z"/>
	<rect x="9.5" y="59.1" class="st2" width="6.8" height="13.7"/>
	<rect x="23.2" y="62.5" class="st2" width="6.8" height="10.3"/>
	<rect x="36.9" y="48.9" class="st2" width="6.8" height="23.9"/>
	<path class="st2" d="M57.4,55.7v11.1c-1.1,1.8-1.9,3.8-2.5,5.9h-4.3v-17C50.6,55.7,57.4,55.7,57.4,55.7z"/>
	<path class="st3" d="M79.6,64.3c-8.5,0-15.4,6.9-15.4,15.4c0,2.8,0.8,5.4,2.1,7.7C69,91.9,74,95,79.6,95c5.7,0,10.7-3.1,13.3-7.7
		c1.3-2.3,2.1-4.9,2.1-7.7C95,71.1,88.1,64.3,79.6,64.3L79.6,64.3z M79.6,88.2c-4.7,0-8.5-3.8-8.5-8.5s3.8-8.5,8.5-8.5
		s8.5,3.8,8.5,8.5S84.4,88.2,79.6,88.2L79.6,88.2z"/>
	<path class="st2" d="M93,87.3l8.9,5.1c-4.4,7.7-12.7,12.8-22.2,12.8S61.9,100,57.5,92.4l8.9-5.1C69,91.9,74,95,79.6,95
		C85.3,95,90.3,91.9,93,87.3L93,87.3z"/>
	<path class="st4" d="M105.3,79.6c0,4.7-1.2,9.1-3.4,12.8L93,87.3c1.3-2.3,2.1-4.9,2.1-7.7c0-8.5-6.9-15.4-15.4-15.4V54
		c5.8,0,11.1,1.9,15.4,5.1C101.3,63.8,105.3,71.3,105.3,79.6L105.3,79.6z"/>
	<path class="st5" d="M79.6,54v10.3c-8.5,0-15.4,6.9-15.4,15.4c0,2.8,0.8,5.4,2.1,7.7l-8.9,5.1c-2.2-3.8-3.4-8.2-3.4-12.8
		c0-2.4,0.3-4.7,0.9-6.8c0.6-2.1,1.4-4.1,2.5-5.9C61.8,59.2,70.2,54,79.6,54L79.6,54z"/>
	<path class="st4" d="M49.6,37.9c0.6,0.6,1,1.5,1,2.4c0,1.9-1.5,3.4-3.4,3.4s-3.4-1.5-3.4-3.4s1.5-3.4,3.4-3.4
		C48.1,36.9,49,37.3,49.6,37.9L49.6,37.9z"/>
	<path class="st4" d="M65,27.3c-0.6,0.6-1.5,1-2.4,1s-1.8-0.4-2.4-1c-0.6-0.6-1-1.5-1-2.4c0-1.9,1.5-3.4,3.4-3.4S66,23,66,24.9
		C66,25.9,65.6,26.7,65,27.3L65,27.3z"/>
	<path class="st4" d="M75.2,32.8c0.6,0.6,1,1.5,1,2.4c0,1.9-1.5,3.4-3.4,3.4s-3.4-1.5-3.4-3.4c0-0.9,0.4-1.8,1-2.4
		c0.6-0.6,1.5-1,2.4-1S74.6,32.2,75.2,32.8L75.2,32.8z"/>
	<path class="st4" d="M95,2.7c5.7,0,10.3,4.6,10.3,10.3S100.7,23.3,95,23.3c-2.8,0-5.4-1.1-7.2-3c-1.5-1.5-2.5-3.4-2.9-5.5
		c-0.1-0.5-0.2-1.1-0.2-1.7C84.8,7.3,89.4,2.7,95,2.7L95,2.7z"/>
	<path class="st6" d="M96.7,58.3V24.8C102.5,24,107,19,107,13c0-6.6-5.4-12-12-12S83,6.4,83,13H1v68.4h51.4
		C53.3,95.6,65.1,107,79.6,107c15.1,0,27.4-12.3,27.4-27.4C107,71,103,63.3,96.7,58.3L96.7,58.3z M95,4.4c4.7,0,8.5,3.8,8.5,8.5
		s-3.8,8.5-8.5,8.5s-8.5-3.8-8.5-8.5S90.3,4.4,95,4.4L95,4.4z M4.4,16.4h79.1c0.4,1.4,1.1,2.6,1.9,3.7L75,30.6
		c-0.7-0.3-1.4-0.5-2.2-0.5s-1.5,0.2-2.2,0.5l-3.4-3.4c0.3-0.7,0.5-1.4,0.5-2.2c0-2.8-2.3-5.1-5.1-5.1c-2.8,0-5.1,2.3-5.1,5.1
		c0,0.8,0.2,1.5,0.5,2.2l-8.6,8.6c-0.7-0.3-1.4-0.5-2.2-0.5c-2.8,0-5.1,2.3-5.1,5.1s2.3,5.1,5.1,5.1s5.1-2.3,5.1-5.1
		c0-0.8-0.2-1.5-0.5-2.2l8.6-8.6c0.7,0.3,1.4,0.5,2.2,0.5s1.5-0.2,2.2-0.5l3.4,3.4c-0.3,0.7-0.5,1.4-0.5,2.2c0,2.8,2.3,5.1,5.1,5.1
		c2.8,0,5.1-2.3,5.1-5.1c0-0.8-0.2-1.5-0.5-2.2l10.5-10.5c1.6,1.2,3.4,2,5.4,2.3V56c-4-2.3-8.7-3.7-13.7-3.7
		c-8.2,0-15.5,3.6-20.5,9.3V54H48.9v20.5h3.9c-0.2,1.1-0.3,2.3-0.4,3.4h-48C4.4,77.9,4.4,16.4,4.4,16.4z M72.8,33.5
		c0.9,0,1.7,0.8,1.7,1.7s-0.8,1.7-1.7,1.7c-0.9,0-1.7-0.8-1.7-1.7C71.1,34.2,71.9,33.5,72.8,33.5L72.8,33.5z M60.8,24.9
		c0-0.9,0.8-1.7,1.7-1.7s1.7,0.8,1.7,1.7s-0.8,1.7-1.7,1.7C61.6,26.6,60.8,25.9,60.8,24.9L60.8,24.9z M48.9,40.3
		c0,0.9-0.8,1.7-1.7,1.7s-1.7-0.8-1.7-1.7s0.8-1.7,1.7-1.7C48.1,38.6,48.9,39.4,48.9,40.3L48.9,40.3z M79.6,93.3
		c-7.5,0-13.7-6.1-13.7-13.7S72.1,66,79.6,66s13.7,6.1,13.7,13.7S87.2,93.3,79.6,93.3L79.6,93.3z M55.7,66.4c-0.8,1.5-1.5,3-2,4.7
		h-1.4V57.4h3.4V66.4z M77.9,55.8v6.8c-8.6,0.9-15.4,8.2-15.4,17c0,2.5,0.6,4.9,1.5,7L58.1,90c-1.5-3.2-2.4-6.7-2.4-10.4
		C55.7,67,65.5,56.7,77.9,55.8L77.9,55.8z M79.6,103.6c-8.2,0-15.5-4.2-19.8-10.5l6-3.4c3.1,4.3,8.2,7.1,13.9,7.1
		c5.7,0,10.7-2.8,13.9-7.1l6,3.4C95.1,99.4,87.9,103.6,79.6,103.6L79.6,103.6z M101.1,90.1l-5.9-3.4c1-2.1,1.5-4.5,1.5-7
		c0-8.8-6.8-16.1-15.4-17v-6.8c12.4,0.9,22.2,11.2,22.2,23.8C103.6,83.4,102.7,86.9,101.1,90.1L101.1,90.1z"/>
	<path class="st6" d="M79.6,69.4c-5.7,0-10.3,4.6-10.3,10.3c0,5.7,4.6,10.3,10.3,10.3c5.7,0,10.3-4.6,10.3-10.3S85.3,69.4,79.6,69.4
		L79.6,69.4z M79.6,86.5c-3.8,0-6.8-3.1-6.8-6.8s3.1-6.8,6.8-6.8c3.8,0,6.8,3.1,6.8,6.8S83.4,86.5,79.6,86.5L79.6,86.5z"/>
	<rect x="7.8" y="19.8" class="st6" width="3.4" height="3.4"/>
	<rect x="14.7" y="19.8" class="st6" width="23.9" height="3.4"/>
	<rect x="7.8" y="26.6" class="st6" width="3.4" height="3.4"/>
	<rect x="14.7" y="26.6" class="st6" width="23.9" height="3.4"/>
	<rect x="7.8" y="33.5" class="st6" width="3.4" height="3.4"/>
	<rect x="14.7" y="33.5" class="st6" width="23.9" height="3.4"/>
	<rect x="7.8" y="40.3" class="st6" width="3.4" height="3.4"/>
	<rect x="14.7" y="40.3" class="st6" width="23.9" height="3.4"/>
	<path class="st6" d="M7.8,74.5h10.3V57.4H7.8V74.5z M11.3,60.8h3.4v10.3h-3.4C11.3,71.1,11.3,60.8,11.3,60.8z"/>
	<path class="st6" d="M21.5,74.5h10.3V60.8H21.5V74.5z M24.9,64.3h3.4v6.8h-3.4V64.3z"/>
	<path class="st6" d="M35.2,74.5h10.3V47.2H35.2V74.5z M38.6,50.6H42v20.5h-3.4V50.6z"/>
</g>
<g>
	<path class="st7" d="M15.1,2.6c-3.5,0-6.4,2.9-6.4,6.4v82.5c0,3.5,2.9,6.4,6.4,6.4h60.2c3.5,0,6.4-2.9,6.4-6.4V22.3
		c0-1.3-0.5-2.5-1.4-3.4L65.5,4c-0.9-0.9-2.1-1.4-3.4-1.4H15.1z M15.1,2.6"/>
	<path class="st8" d="M70.5,20.3c-0.5,0-1-0.1-1.4-0.2v71.3c0,3.5-2.9,6.4-6.4,6.4h12.7c3.5,0,6.4-2.9,6.4-6.4V22.3
		c0-0.7-0.2-1.4-0.4-2H70.5z M70.5,20.3"/>
	<path class="st9" d="M80.4,18.9L65.5,4c-0.4-0.4-0.9-0.7-1.4-1v10.9c0,3.5,2.9,6.4,6.4,6.4h10.9C81.1,19.8,80.8,19.3,80.4,18.9
		L80.4,18.9z M80.4,18.9"/>
	<path class="st10" d="M86.9,85.9L64,72.3c-1.2-0.7-1.6-2.2-0.9-3.4c0,0,0.6-1,1.2-2l-4.6-2.7c-3.1-1.8-4.5-2.1-7.2-1l-3,1.2
		c-1.8,0.7-3.9,0.5-5.6-0.5l-8-4.7L24.4,78.5l10.3,6.1c0.7,0.4,1.3,1,1.8,1.6l3.5,4.5c1.9,2.2,5.9,5.1,8.4,6.6l13.2,7.8
		c1.7,1,4,0.5,5-1.3c1-1.7,0.5-4-1.3-5l4.1,2.4c1.7,1,4,0.5,5-1.3c1-1.7,0.5-4-1.3-5l2.8,1.6c1.7,1,4,0.5,5-1.3c1-1.7,0.5-4-1.3-5
		l3.4,2c1.7,1,4,0.5,5-1.3C89.2,89.2,88.7,86.9,86.9,85.9L86.9,85.9z M86.9,85.9"/>
	<path class="st11" d="M86.9,85.9L79,81.2c-0.2,0.7-0.5,1.3-1.1,1.9c-1.4,1.5-3.6,1.7-5.4,0.7l-2.2-1.3c-0.1,0-0.2,0-0.2,0
		c-0.1,0.1-0.1,0.2,0,0.3c0.9,1.3,1.1,3.1,0.2,4.6c-1.2,2-3.8,2.7-5.9,1.5l-1.8-1.1c-0.1,0-0.2,0-0.2,0c-0.1,0.1-0.1,0.2,0,0.2
		c1,1.4,1.2,3.3,0.2,4.8c-1.2,2-3.9,2.6-5.9,1.4l-1.4-0.9c-0.3-0.2-0.6-0.2-0.9,0C54.1,93.7,54,94,54,94.3c0.2,1,0.1,2.1-0.5,3
		c-0.5,0.8-1.2,1.4-2,1.7l10.1,6c1.8,1.1,4.1,0.5,5.2-1.3c1-1.7,0.4-4-1.3-5l4.1,2.4c1.8,1.1,4.1,0.5,5.2-1.3c1-1.7,0.4-4-1.3-5
		l2.7,1.6c1.8,1,4.1,0.5,5.2-1.3c1-1.7,0.4-4-1.3-5l3.3,1.9c1.8,1,4.1,0.5,5.2-1.3C89.2,89.1,88.6,86.9,86.9,85.9L86.9,85.9z
		 M86.9,85.9"/>
	<path class="st12" d="M84.9,60.3l-6.2,3.6c-1.7,1-3.7,1.2-5.6,0.5l-3.4-1.3c-1.1-0.4-2.2-0.5-3.3-0.2l-5.2,1.3
		c-2.4,0.6-4.1,2.8-4.1,5.3v6.9c0,1,0.8,1.8,1.8,1.8c3,0,5.3-2.4,5.3-5.3v-0.3l22.2,13.2c0.4-0.4,0.9-0.8,1.4-1.1l8.4-4.9L84.9,60.3
		z M84.9,60.3"/>
	<path class="st13" d="M88.2,65.9L87,70.3l-13.3,7.8l12.8,7.6c0.4-0.4,0.9-0.8,1.4-1.1l8.4-4.9L88.2,65.9z M88.2,65.9"/>
	<path class="st12" d="M39.2,88.6l-2.1,2.9c-1.2,1.6-3.5,2-5.1,0.8c-1.6-1.2-2-3.5-0.8-5.1l2.1-2.9c1.2-1.6,3.5-2,5.1-0.8
		C40.1,84.7,40.4,87,39.2,88.6L39.2,88.6z M39.2,88.6"/>
	<path class="st12" d="M47.5,89.7l-4.4,6.1c-1.2,1.6-3.5,2-5.1,0.8c-1.6-1.2-2-3.5-0.8-5.1l4.4-6.1c1.2-1.6,3.5-2,5.1-0.8
		C48.3,85.8,48.7,88,47.5,89.7L47.5,89.7z M47.5,89.7"/>
	<path class="st12" d="M53.5,94l-4.4,6.1c-1.2,1.6-3.5,2-5.1,0.8c-1.6-1.2-2-3.5-0.8-5.1l4.4-6.1c1.2-1.6,3.5-2,5.1-0.8
		C54.3,90,54.7,92.3,53.5,94L53.5,94z M53.5,94"/>
	<path class="st13" d="M57.5,101l-1.5,2c-1.2,1.6-3.5,2-5.1,0.8c-1.6-1.2-2-3.5-0.8-5.1l1.5-2c1.2-1.6,3.5-2,5.1-0.8
		C58.3,97,58.7,99.3,57.5,101L57.5,101z M57.5,101"/>
	<path class="st14" d="M40.2,57.2l-3.2-1.9c-0.9-0.5-2-0.2-2.6,0.7L21.2,78.3c-0.5,0.9-0.2,2,0.7,2.6l3.2,1.9
		c2.2,1.3,4.9,0.6,6.2-1.6l10.5-17.7C43,61.3,42.3,58.5,40.2,57.2L40.2,57.2z M40.2,57.2"/>
	<path class="st14" d="M83.8,55.3l-3.2,1.9c-2.2,1.3-2.9,4.1-1.6,6.2l10.5,17.7c1.3,2.2,4.1,2.9,6.2,1.6l3.2-1.9
		c0.9-0.5,1.2-1.7,0.7-2.6L86.4,55.9C85.9,55,84.7,54.8,83.8,55.3L83.8,55.3z M83.8,55.3"/>
	<path d="M70.7,29.6H19.8c-0.9,0-1.6,0.7-1.6,1.6c0,0.9,0.7,1.6,1.6,1.6h50.8c0.9,0,1.6-0.7,1.6-1.6C72.3,30.3,71.6,29.6,70.7,29.6
		L70.7,29.6z M70.7,29.6"/>
	<path d="M19.8,21.9h25.4c0.9,0,1.6-0.7,1.6-1.6c0-0.9-0.7-1.6-1.6-1.6H19.8c-0.9,0-1.6,0.7-1.6,1.6C18.3,21.2,19,21.9,19.8,21.9
		L19.8,21.9z M19.8,21.9"/>
	<path d="M70.7,39.2H19.8c-0.9,0-1.6,0.7-1.6,1.6c0,0.9,0.7,1.6,1.6,1.6h50.8c0.9,0,1.6-0.7,1.6-1.6C72.3,39.9,71.6,39.2,70.7,39.2
		L70.7,39.2z M70.7,39.2"/>
	<g>
		<defs>
			<rect id="SVGID_1_" x="7" y="1" width="94.6" height="106.2"/>
		</defs>
		<clipPath id="SVGID_2_">
			<use xlink:href="#SVGID_1_"  style="overflow:visible;"/>
		</clipPath>
		<path class="st15" d="M31.4,96.3H15.2c-2.7,0-4.8-2.2-4.8-4.8V9c0-2.7,2.2-4.8,4.8-4.8H62c0.2,0,0.3,0,0.4,0v9.7c0,4.4,3.6,8,8,8
			h9.7c0,0.1,0,0.3,0,0.4v26.6c0,0.9,0.7,1.6,1.6,1.6c0.9,0,1.6-0.7,1.6-1.6V22.3c0-1.7-0.7-3.3-1.9-4.5L66.6,2.9
			C65.4,1.7,63.7,1,62,1H15.2c-4.4,0-8,3.6-8,8v82.5c0,4.4,3.6,8,8,8h16.3c0.9,0,1.6-0.7,1.6-1.6C33,97,32.3,96.3,31.4,96.3
			L31.4,96.3z M78,18.8h-7.6c-2.7,0-4.8-2.2-4.8-4.8V6.3L78,18.8z M78,18.8"/>
		<path class="st15" d="M101,77.5L87.7,55.1c-1-1.6-3.1-2.2-4.7-1.2l-3.2,1.9c-2.5,1.5-3.6,4.5-2.7,7.1c-1.1,0.4-2.3,0.4-3.4,0
			c-2.5-0.8-4.5-2.4-7.7-1.6c-5.4,1.4-5.3,1.3-5.7,1.5c-3.2-1.8-5.1-2.3-8.4-1l-3,1.2c-1.4,0.5-2.9,0.4-4.2-0.4l-0.8-0.5
			c0.4-2.4-0.7-4.9-2.9-6.3l-3.2-1.9c-1.6-1-3.7-0.4-4.7,1.2L19.8,77.5c-1,1.6-0.4,3.7,1.2,4.7l3.2,1.9c1,0.6,2,0.9,3.1,0.9
			c1.2,0,2.3-0.3,3.3-1l0.7,0.4l-1.4,2c-1.7,2.4-1.2,5.6,1.2,7.3c1.1,0.8,2.5,1.1,3.9,0.9c0.2,1.3,0.9,2.5,2.1,3.4
			c1.1,0.8,2.5,1.1,3.9,0.9c0.2,1.3,0.9,2.5,2.1,3.4c1.6,1.1,3.5,1.2,5.1,0.6c0.4,0.9,1,1.7,1.8,2.4c2.2,1.6,5.3,1.2,7.1-0.9
			l3.8,2.2c2.5,1.5,5.7,0.7,7.2-1.8c0.4-0.6,0.6-1.3,0.7-2l0,0c2.5,1.5,5.7,0.6,7.2-1.8c0.4-0.7,0.7-1.5,0.7-2.3
			c2.2,0.6,4.6-0.4,5.8-2.4c0.4-0.7,0.6-1.4,0.7-2.1c2.3,0.9,5.1,0,6.4-2.2c0.7-1.2,0.9-2.6,0.6-4c-0.2-0.8-0.6-1.5-1.1-2.1l2.1-1.2
			c1.8,0.7,3.8,0.6,5.4-0.4l3.2-1.9C101.4,81.2,101.9,79.1,101,77.5L101,77.5z M25.8,81.4l-3.2-1.9c-0.1-0.1-0.2-0.3-0.1-0.4
			l13.2-22.3c0.1-0.1,0.3-0.2,0.4-0.1l3.2,1.9c1.4,0.8,1.9,2.7,1,4.1L29.9,80.3C29.1,81.8,27.2,82.2,25.8,81.4L25.8,81.4z
			 M32.9,91.1c-0.9-0.7-1.2-2-0.5-2.9l2.1-2.9c0.7-0.9,2-1.2,2.9-0.5c0.9,0.7,1.2,2,0.5,2.9l-2.1,2.9C35.2,91.5,33.9,91.8,32.9,91.1
			L32.9,91.1z M38.9,95.4c-0.9-0.7-1.2-2-0.5-2.9l2.1-2.9v0l2.3-3.2c0.3-0.5,0.8-0.8,1.4-0.9c0.1,0,0.2,0,0.3,0
			c0.4,0,0.9,0.1,1.2,0.4c0.5,0.3,0.8,0.8,0.9,1.4c0.1,0.6,0,1.1-0.4,1.6l-4.4,6.1C41.2,95.8,39.9,96,38.9,95.4L38.9,95.4z
			 M44.9,99.7c-0.9-0.7-1.2-2-0.5-2.9c0,0,0,0,0,0l4.4-6.1c0.7-0.9,2-1.2,2.9-0.5c0.9,0.7,1.2,2,0.5,2.9l-1.9,2.7l-2.4,3.4
			C47.2,100.1,45.8,100.3,44.9,99.7L44.9,99.7z M51.8,102.6c-0.9-0.7-1.2-2-0.5-2.9l1.5-2c0.7-0.9,2-1.2,2.9-0.5
			c0.9,0.7,1.2,2,0.5,2.9l-1.5,2C54.1,103,52.8,103.3,51.8,102.6L51.8,102.6z M86.8,90.1c-0.6,1-1.9,1.3-2.9,0.7
			c-1.7-1-12.7-7.5-13.8-8.2c-0.7-0.4-1.7-0.2-2.1,0.5c-0.4,0.7-0.2,1.7,0.5,2.1L79,91.6c1,0.6,1.3,1.9,0.7,2.9
			c-0.6,1-1.9,1.3-2.9,0.7c-3.9-2.3-7-4.1-10.5-6.2c-0.7-0.4-1.7-0.2-2.1,0.5c-0.4,0.7-0.2,1.7,0.5,2.1l7.7,4.6l0,0
			c1,0.6,1.3,1.9,0.7,2.9c-0.6,1-1.9,1.3-2.9,0.7l-4.1-2.4h0c0,0,0,0,0,0l-3-1.8c-0.7-0.4-1.7-0.2-2.1,0.5c-0.4,0.7-0.2,1.7,0.5,2.1
			l3,1.8c0,0,0,0,0,0c1,0.6,1.3,1.9,0.7,2.9c-0.6,1-1.9,1.3-2.9,0.7l-3.5-2.1c1.5-2.3,0.9-5.5-1.3-7.1c-0.7-0.5-1.4-0.8-2.2-0.9
			c0.8-2.2,0.1-4.7-1.9-6.1c-1.2-0.8-2.6-1.1-3.9-0.9c-0.2-1.4-1-2.6-2.1-3.4c-2.1-1.5-5-1.2-6.8,0.6c-0.4-0.6-0.9-1.2-1.5-1.7
			c-1.8-1.3-4-1.3-5.8-0.2l-0.7-0.4L42.6,65l0.5,0.3c2.1,1.2,4.6,1.5,6.9,0.6l3-1.2c1.7-0.7,2.7-0.7,4.4,0.1
			c-1.1,1.2-1.8,2.9-1.8,4.7v6.9c0,1.8,1.5,3.3,3.3,3.3h0c1.8,0,3.6-0.7,4.9-2c0.8-0.8,1.3-1.7,1.7-2.7c2,1.2,18.7,11.1,20.6,12.2
			c0.5,0.3,0.8,0.7,1,1.3C87.2,89.1,87.1,89.6,86.8,90.1L86.8,90.1z M98.2,79.5L95,81.4c-1.4,0.8-3.2,0.4-4.1-1L85.9,72
			c-0.4-0.7-1.4-1-2.1-0.5c-0.7,0.4-1,1.4-0.5,2.1l4.9,8.3c0.1,0.2,0.2,0.3,0.3,0.4l-1.4,0.8c-0.3,0.2-0.5,0.3-0.8,0.5L65.1,71.2
			c-1-0.6-2.4,0.1-2.4,1.3c0,0.1,0.2,1.7-1.1,3c-0.7,0.7-1.7,1.1-2.7,1.1c0,0,0,0,0,0c-0.1,0-0.2-0.1-0.2-0.2v-6.9
			c0-1.8,1.2-3.3,2.9-3.8l5.2-1.3c1.9-0.5,2.9,0.5,5.8,1.5c2,0.8,4.1,0.7,6-0.1l0.9,1.6c0.4,0.7,1.4,1,2.1,0.5
			c0.7-0.4,1-1.4,0.5-2.1l-1.9-3.1c-0.8-1.4-0.4-3.2,1-4.1l3.2-1.9c0.1-0.1,0.3,0,0.4,0.1l13.2,22.3C98.4,79.2,98.3,79.4,98.2,79.5
			L98.2,79.5z M98.2,79.5"/>
	</g>
</g>
</svg>
