<?xml version="1.0" encoding="utf-8"?>
<!-- Generator: Adobe Illustrator 25.2.1, SVG Export Plug-In . SVG Version: 6.00 Build 0)  -->
<svg version="1.1" id="Layer_1" xmlns="http://www.w3.org/2000/svg" xmlns:xlink="http://www.w3.org/1999/xlink" x="0px" y="0px"
	 viewBox="0 0 262 92" style="enable-background:new 0 0 262 92;" xml:space="preserve">
<style type="text/css">
	.st0{fill:#FFC107;stroke:#000000;stroke-width:5;stroke-miterlimit:10;}
</style>
<g>
	<path class="st0" d="M170.7,36.8L141.6,35l-11-27.6l-11,27.6l-29.1,1.9l22.3,19l-7.3,28.7l25.1-15.9l25.1,15.9l-7.3-28.7
		L170.7,36.8z"/>
	<path class="st0" d="M255.7,47.4l-24-1.5l-9-22.7l-9,22.7l-23.9,1.5l18.4,15.6l-6,23.7l20.7-13.1l20.7,13.1l-6-23.7L255.7,47.4z"/>
	<path class="st0" d="M72.7,47.4l-24-1.5l-9-22.7l-9,22.7L6.7,47.4l18.4,15.6l-6,23.7l20.7-13.1l20.7,13.1l-6-23.7L72.7,47.4z"/>
</g>
</svg>
